<svg xmlns="http://www.w3.org/2000/svg" xmlns:xlink="http://www.w3.org/1999/xlink" width="400" height="400" viewBox="0 0 400 400"><defs><linearGradient id="gradient-20"><stop stop-color="#616162" offset="0"/><stop stop-color="#e6e7e9" offset="0.5"/><stop stop-color="#616162" offset="1"/></linearGradient><linearGradient id="gradient-18" x1="0%" y1="0%" x2="100%" y2="0%" gradientTransform="rotate(109.6, 0.5, 0.5)">       <stop offset="11.2%" stop-color="rgba(20, 30, 48, 1)"/>       <stop offset="91.1%" stop-color="rgba(36, 59, 85, 1)"/>     </linearGradient></defs>
<rect data-name="background" width="100%" height="100%" fill="none"/><g data-name="container" data="container_num:5" fill="#000000" transform="translate(26.8398347156392,24) scale(1.8616539588893768)"><path xmlns="http://www.w3.org/2000/svg" d="M17.914 148.907zM22.657 154.94a90.586 90.586 0 0 0 5.861 6.251c6.914 6.805 15.159 12.525 24.004 16.851 3.259 1.526 6.265 3.107 9.787 4.468.88.338 1.779.7 2.724 1.026.953.302 1.941.604 2.974.903 1.027.321 2.122.549 3.267.786 1.146.23 2.336.493 3.614.624a91.24 91.24 0 0 1-18.434-5.99 93.833 93.833 0 0 1-16.873-9.842c-10.548-7.727-19.57-17.648-26.16-28.989-.272-.339-.685-.985-1.18-1.808l-.796-1.348-.803-1.551c-.534-1.076-1.149-2.168-1.62-3.226a71.281 71.281 0 0 0-1.326-2.748c2.048 5.101 4.412 9.563 7.059 13.806a93.473 93.473 0 0 0 3.869 5.697c-.192-.259-.392-.511-.583-.771a95.012 95.012 0 0 0 4.6 5.841l.016.02zM18.039 149.078l-.125-.17.125.17zM1.335 106.042l-.483-3.875c.256 2.365.553 5.008 1.096 7.654l-.327-1.879a23.961 23.961 0 0 1-.286-1.9zM85.812 185.575c6.652.673 13.628.472 20.461-.609 6.837-1.077 13.524-2.987 19.741-5.449-11.45 4.503-23.602 6.506-35.49 6.171-1.591-.025-3.159 0-4.712-.113z"/><path xmlns="http://www.w3.org/2000/svg" d="M46.426 171.967l-.259-.165c.087.055.172.111.259.165zM46.167 171.802zM43.653 170.135zM56.077 177.284A83.837 83.837 0 0 0 73.2 183.1c-9.688-2.21-18.805-6.109-26.774-11.133 3.06 1.947 6.277 3.749 9.651 5.317zM177.002 107.094c.098-1.58.296-3.238.346-4.027.594-5.071.77-9.401.745-13.745-.11-.783-.425-2.25-.55-3.918-.153-1.672-.378-3.309-.568-4.924-.289-1.601-.538-3.186-.854-4.74 2.275 11.617 2.237 23.279.144 34.282a94.97 94.97 0 0 1 .737-2.928z"/><path xmlns="http://www.w3.org/2000/svg" d="M.887 83.482c.848-6.9 2.653-13.626 4.37-18.107l-.695 3.28c.429-.961 1.122-3.194 2.067-5.557l.682-1.802.753-1.747c.5-1.131.92-2.203 1.363-3.025-.303.771-.595 1.602-.947 2.436-.345.837-.732 1.687-1.101 2.542l1.514-3.409A111.863 111.863 0 0 0 4.954 69.8c-1.133 4.352-2.029 8.926-2.511 13.032-.14 1.024-.189 2.024-.28 2.978-.067.954-.183 1.864-.192 2.724-.042 1.719-.1 3.224-.071 4.428.105 2.409.25 3.61.459 2.939.411-1.333.403-8.188 1.837-16.767.767-4.276 1.868-8.966 3.362-13.561 1.483-4.599 3.427-9.058 5.44-12.992l-.592 1.292-.545 1.331-1.116 2.691-1.024 2.78-.521 1.402c-.153.476-.308.954-.461 1.434-1.32 3.807-2.307 7.816-3.167 11.857l-.559 3.052c-.205 1.014-.292 2.046-.444 3.067-.318 2.041-.434 4.097-.611 6.129-.199 4.074-.239 8.098.13 11.946-.015-.914-.03-1.726-.017-2.512l.115-2.355c.048-.809.039-1.667.115-2.65.07-.983.134-2.091.19-3.402.391-6.608 1.572-13.15 3.408-19.481 1.75-6.358 3.814-11.957 6.889-17.03l.801-1.526c.542-1.024.993-2.034 1.566-3.064.653-1.13 1.278-1.976 1.784-2.751.521-.767.963-1.441 1.469-2.095l3.682-5.082c.075-.009-.022.185-.2.473a28.962 28.962 0 0 1 1.959-2.49c.755-.875 1.488-1.803 2.109-2.569.146-.007.288-.011.623-.251 8.65-9.197 19.295-16.692 31.291-21.417l2.667-1.039 2.7-.899 1.343-.448 1.36-.38 2.71-.753c1.55-.373 3.12-.751 4.721-1.091l2.437-.426c.819-.141 1.642-.3 2.484-.378 1.674-.201 3.134-.625 3.921-.729 4.369-.249 8.73-.199 13.849.216.397.007 1.015.043 1.732.082.717.041 1.537.061 2.332.134.932.21 1.927.418 2.971.621 6.369.988 12.527 2.754 18.386 5.103l-.007-.028 2.244.894 2.29 1.058c1.571.684 3.11 1.559 4.7 2.383.798.407 1.554.904 2.338 1.354.77.474 1.576.894 2.32 1.412 1.508 1.002 3.037 1.961 4.446 3.032a99.912 99.912 0 0 1 6.6 5.198c.046.042.094.081.14.122l.042.038 1.457 1.322 1.394 1.391 1.395 1.392c.462.467.89.967 1.337 1.449-.216-.35-.208-.491-.2-.63-.689-.66-1.504-1.441-2.309-2.21 1.343 1.222 2.515 2.327 3.477 3.229.371.474.776.94 1.16 1.449l1.186 1.566 1.261 1.629 1.255 1.752c2.226 2.838 4.191 5.874 6.057 8.97.864 1.588 1.817 3.131 2.586 4.774l1.213 2.436 1.092 2.497c.314.533.192.022.231-.068 1.225 2.962 2.21 6.042 3.102 9.146a88.212 88.212 0 0 1 3.408 17.211c.225 1.378.321 2.772.52 4.153l-.123 2.924c-.001 1.103.057 2.206.01 3.311l-.128 3.326c-.016.75-.124 1.569-.187 2.459-.084.888-.128 1.846-.256 2.856l-.412 3.192c-.132 1.119-.387 2.269-.583 3.471a90.635 90.635 0 0 1-4.312 15.482c-.242.826-.427 1.486-.592 1.855-.627 1.501-1.296 2.954-1.942 4.385-.723 1.394-1.386 2.788-2.127 4.108a86.09 86.09 0 0 1-7.949 12.379c-.336.439-.649.885-.987 1.297l-.998 1.206c-.66.779-1.25 1.558-1.876 2.234-1.251 1.352-2.301 2.606-3.286 3.549-1.128 1.178-1.027 1.233-.246.665a35.07 35.07 0 0 0 1.608-1.262l2.122-1.914c.776-.677 1.519-1.441 2.235-2.161.708-.725 1.416-1.386 1.962-1.984 1.101-1.191 1.824-1.926 1.67-1.599-1.777 3.345-5.013 7.471-9.743 12.035-2.413 2.227-5.128 4.647-8.339 6.98-1.566 1.221-3.307 2.338-5.082 3.558-1.834 1.123-3.708 2.353-5.757 3.445-4.484 2.442 3.365-1.475 3.577-1.512a22.87 22.87 0 0 1-2.377 1.64c-1.478.786-2.943 1.597-4.474 2.273-.895.411-1.774.855-2.679 1.239l-2.729 1.122 1.444-.568c2.952-1.173 5.711-2.555 8.202-3.922-.936.566-1.96 1.221-3.082 1.812-1.203.622-2.448 1.302-3.697 1.909l-3.625 1.686c12.968-4.711 24.885-12.507 34.319-22.67 4.723-5.066 8.935-10.631 12.369-16.651a93.904 93.904 0 0 0 8.288-18.999c-3.154 9.93-8.071 19.052-13.981 26.765 10.744-14.507 17.15-32.293 17.999-50.636-.001 1.011-.101 2.018-.168 3.025-.083 1.007-.123 2.018-.241 3.022-.257 2.005-.441 4.021-.827 6.009-.624 4-1.636 7.931-2.782 11.815 2.262-7.021 3.613-14.424 4.145-21.869.554-7.451.092-14.947-1.057-22.211 1.974 9.622 2.301 20.524.619 31.298 1.182-6.949 1.482-14.112 1.028-21.214-.102-2.713-.422-5.407-.685-7.901-.377-2.476-.662-4.762-1.027-6.611 1.445 6.826 2.015 12.648 2.293 18.136-.267-11.977-2.748-24.112-7.62-35.511 2.659 6.191 4.842 12.851 6.175 19.698 1.34 6.84 1.897 13.838 1.58 20.57-.015-.788.018-1.575-.028-2.366l-.107-2.391c.287 10.85-1.384 21.604-4.696 31.717-1.662 5.056-3.715 9.969-6.2 14.644a95.521 95.521 0 0 1-8.56 13.316c3.673-4.29 7.551-10.354 10.646-17.015 3.081-6.675 5.368-13.894 6.941-20.199-2.314 11.322-6.907 22.494-13.571 32.471-6.646 9.985-15.351 18.764-25.423 25.502-10.06 6.759-21.474 11.437-33.187 13.748a94.608 94.608 0 0 1-17.657 1.809 94.462 94.462 0 0 1-17.361-1.515l3.005.571c1.002.19 2.018.295 3.026.445 2.016.324 4.055.446 6.087.633 4.073.229 8.168.306 12.25-.005 4.089-.217 8.152-.827 12.196-1.572 2.006-.456 4.036-.829 6.017-1.414.994-.278 2-.521 2.987-.83l2.955-.958c-1.492.462-3.062 1.074-4.739 1.523l-2.101.618a91.772 91.772 0 0 0 12.91-4.496 89.46 89.46 0 0 0 5.651-2.705 96.653 96.653 0 0 1-10.714 4.872 98.407 98.407 0 0 1-21.66 5.382c-1.11.176-2.122.231-3.029.326l-2.428.24c-1.429.113-2.484.164-3.222.245-1.477.147-1.687.284-1.099.397.587.113 1.971.203 3.673.251 1.697-.01 3.71-.101 5.541-.268 18.397-1.887 35.288-9.107 48.824-19.916 13.545-10.811 23.919-25.172 29.701-41.467.363-.946.642-1.922.944-2.89.293-.971.617-1.932.882-2.912.491-1.97 1.072-3.917 1.448-5.917l.619-2.985.487-3.012.241-1.507.172-1.517.342-3.034c.698-8.114.422-16.315-.812-24.363-.66-4.554-1.82-9.961-3.315-14.777l-1.15-3.484c-.4-1.107-.825-2.151-1.203-3.133l-.557-1.415-.571-1.271-.981-2.124c-3.134-6.359-7.072-12.424-11.682-18.065-4.605-5.643-9.896-10.868-15.861-15.418l-2.244-1.703-2.327-1.608-1.166-.806-1.203-.756-2.417-1.508c-3.295-1.904-6.67-3.739-10.228-5.261-3.521-1.598-7.206-2.895-10.957-4.055-1.895-.52-3.781-1.1-5.724-1.499-.968-.209-1.928-.463-2.907-.638l-2.944-.521C100.363.01 93.04-.285 85.724.265 78.412.83 71.069 2.218 64.028 4.614l-2.635.913c-.881.297-1.73.682-2.597 1.019-.858.359-1.735.673-2.577 1.069l-2.532 1.173c-.852.376-1.675.808-2.496 1.245l-2.469 1.297-2.402 1.412c-.8.472-1.606.933-2.372 1.458l-2.324 1.528c-.782.497-1.506 1.078-2.261 1.612-.741.554-1.51 1.07-2.226 1.654l-2.157 1.737c-.729.565-1.417 1.178-2.103 1.792l-2.063 1.83-1.971 1.919c-.656.639-1.319 1.271-1.93 1.951-5.031 5.298-9.451 11.078-13.066 17.194A99.518 99.518 0 0 0 5.18 64.379C.805 77.299-.45 90.402.134 102.237c-.126-4.872-.147-11.859.753-18.755zm141.132 90.446a96.807 96.807 0 0 0 8.765-6.389c-2.84 2.339-5.758 4.499-8.765 6.389zm40.217-54.282c-.299.901-.552 1.791-.882 2.641l-.957 2.523-.466 1.248-.513 1.231a108.54 108.54 0 0 0-.997 2.501 97.307 97.307 0 0 1-6.587 13.35c-2.521 4.275-5.443 8.281-8.565 12.04-1.542 1.899-3.222 3.66-4.874 5.421l-2.581 2.523c-.847.848-1.774 1.604-2.652 2.404-.736.64-1.478 1.266-2.225 1.882a90.696 90.696 0 0 0 7.896-7.312 89.808 89.808 0 0 1-11.689 10.188c-1.036.722-2.037 1.496-3.113 2.176l-3.247 2.069-3.43 1.949c-1.167.648-2.399 1.224-3.634 1.855a74.206 74.206 0 0 1 2.685-1.508c1.021-.567 2.092-1.237 3.138-1.85 1.054-.601 2.012-1.261 2.808-1.813.796-.552 1.42-1.01 1.745-1.306-.464.315-.936.617-1.406.924a92.477 92.477 0 0 0 1.507-1.015c-.021.023-.065.059-.101.091 10.932-7.466 20.245-17.277 27.223-28.462 7.009-11.175 11.57-23.781 13.46-36.601-.41 5.142-1.352 9.248-2.543 12.851zm-6.654-65.352zm-8.448-12.698a92.37 92.37 0 0 1 7.773 14.352c.25.549.486 1.106.719 1.664 4.963 12.154 7.221 25.192 6.89 38.036.084-4.25-.198-8.498-.669-12.71-.533-4.854-1.518-9.65-2.824-14.341-2.562-9.407-6.723-18.323-12.005-26.451.485.67.996 1.396 1.525 2.166a32.826 32.826 0 0 1 1.59 2.463l-.638-1.109-.689-1.079-1.378-2.156c-.938-1.424-1.955-2.796-2.934-4.192-1.062-1.334-2.069-2.712-3.174-4.011-.836-.953-1.637-1.938-2.485-2.879 2.992 3.155 5.801 6.54 8.299 10.247zM96.886 1.152c1.467.078 2.937.221 4.407.331 1.204.101 2.402.279 3.588.413.356.015.732.039 1.204.092.471.065 1.034.186 1.769.354 5.469.912 10.459 2.283 14.001 3.699 6.798 2.573 13.123 5.774 18.86 9.471 5.739 3.69 10.889 7.887 15.246 12.471 2.008 2.179 1.422 1.704.315.646l1.662 1.764c-.736-.734-1.459-1.478-2.206-2.196l-2.301-2.09c.56.49 1.918 1.663 2.845 2.522-7.389-7.539-16.026-13.799-25.375-18.404-9.356-4.603-19.431-7.446-29.502-8.581 1.618.18 2.412.22 3.168.24-1.085-.127-2.173-.301-3.274-.401-1.479-.097-2.955-.229-4.423-.301l-4.36-.103c1.444-.001 2.907.039 4.376.073z"/><path xmlns="http://www.w3.org/2000/svg" d="M115.942 184.69l.426-.125c-.446.12-.885.252-1.334.366.304-.076.609-.15.908-.241zM160.424 146.151c4.235-5.587 7.977-12.263 10.366-18.014l-.029.006c-6.061 14.322-15.892 26.66-28.16 35.744a159.12 159.12 0 0 0 6.418-4.703c2.698-2.82 7.213-7.406 11.405-13.033zM35.35 162.846c7.172 6.412 15.821 11.992 25.448 15.751 3.754 1.413 7.585 2.651 11.503 3.523 1.944.502 3.929.812 5.899 1.181.987.175 1.987.272 2.979.412.994.129 1.986.275 2.987.333-4.519-.501-9.005-1.251-13.372-2.44-4.364-1.185-8.642-2.65-12.769-4.449a97.4 97.4 0 0 1-11.894-6.314c-3.786-2.408-7.376-5.097-10.781-7.997zM123.877 174.277l-2.219.871-2.266.756c-1.5.54-3.047.944-4.59 1.373 1.551-.39 3.111-.754 4.624-1.254l2.283-.698 2.23-.815c-.086-.044-.594.055-.062-.233zM97.683 179.965c-1.16.099-2.326.09-3.494.102-1.168.014-2.338.039-3.509-.038l1.576.148c.482.031.916.068 1.295.113 1.381-.118 2.752-.151 4.132-.325zM51.441 169.209c1.341.787 2.765 1.48 4.178 2.244.354.194.996.415 1.801.709-1.721-.739-3.37-1.655-5.046-2.505-.83-.441-1.629-.935-2.443-1.395-.812-.464-1.621-.927-2.389-1.445l.937.626.977.584 1.985 1.182z"/></g><g data-name="icon" fill="#000000" data="id:1088577" transform="translate(146.24923088663502,111.6271634515799) scale(1.0281325437625473)">
    <path class="st0" d="M14.03,50.03l36,36v-4.5l31.5-31.5l-31.5-31.5v-4.5L14.03,50.03 M9.53,50.03l40.5-40.5v-4.5l45,45l-45,45v-4.5  L9.53,50.03"/><path class="st0" d="M50.03,45.53v-4.5l-9,9l9,9v-4.5l4.5-4.5L50.03,45.53 M68.03,50.03l-18,18v-4.5l-13.5-13.5l13.5-13.5v-4.5  L68.03,50.03"/><polyline class="st0" points="27.53,50.03 50.03,72.53 50.03,77.03 23.03,50.03 50.03,23.03 50.03,27.53 27.53,50.03 "/>
    </g><g data-name="business_name" fill="#000000" data="id:373" transform="translate(65.19434215968741,217.05917249146856) scale(0.7680892143614504)"><path d="M0.390625,26.93359375l0.37109375-7.890625l7.48046875,0l0,0.25390625l-0.44921875,0.0390625q-3.2421875,0.1171875-4.755859375,1.77734375t-2.470703125,5.8984375z M14.31640625,42.16796875q0,3.046875,0.498046875,4.19921875t1.630859375,1.4453125l0,0.15625l-7.63671875,0l0-0.15625q1.07421875-0.2734375,1.591796875-1.455078125t0.517578125-4.189453125l0-23.125l3.3984375,0l0,23.125z M24.47265625,19.04296875l0.37109375,7.890625l-0.1171875,0.078125q-0.95703125-4.19921875-2.51953125-5.87890625t-4.765625-1.796875l-0.41015625-0.0390625l0-0.25390625l7.44140625,0z M27.67578125,37.40234375q0-4.31640625,2.34375-7.275390625t5.9375-3.388671875l0,0.15625q-2.20703125,0.56640625-3.642578125,2.978515625t-1.435546875,5.849609375q0,4.609375,2.40234375,7.28515625t6.11328125,2.67578125q3.515625,0,5.68359375-2.44140625l0.1171875,0.078125q-0.87890625,2.24609375-2.900390625,3.564453125t-4.775390625,1.318359375q-4.31640625,0-7.080078125-3.056640625t-2.763671875-7.744140625z M33.4765625,35.72265625l-0.0390625-0.1953125l8.59375-0.234375q0.15625-0.64453125,0.15625-1.875q0-5.68359375-3.6328125-6.5234375l0-0.15625q3.0859375,0.3515625,4.78515625,2.490234375t1.69921875,5.029296875q0,0.91796875-0.15625,1.46484375l-11.40625,0z M55.625,43.45703125q0,2.32421875,0.458984375,3.193359375t1.611328125,1.201171875l0,0.1171875l-7.2265625,0l0-0.1171875q1.19140625-0.3515625,1.611328125-1.201171875t0.419921875-3.193359375l0-10.33203125q0-2.51953125-0.439453125-3.53515625t-1.513671875-1.42578125l0.0390625-0.078125q3.0859375-0.234375,5.3125-1.484375l0.078125,0.078125q-0.3515625,1.71875-0.3515625,6.4453125l0,10.33203125z M69.140625,43.45703125q0,2.36328125,0.419921875,3.193359375t1.630859375,1.201171875l0,0.1171875l-7.24609375,0l0-0.1171875q1.19140625-0.3125,1.650390625-1.220703125t0.458984375-3.173828125l0-8.88671875q0-3.0078125-1.171875-4.560546875t-3.33984375-1.552734375q-2.24609375,0-3.515625,1.42578125l-0.078125-0.0390625q0.52734375-1.2890625,1.982421875-2.265625t3.369140625-0.9765625q2.71484375,0,4.27734375,1.884765625t1.5625,4.970703125l0,10z M82.6953125,43.45703125q0,2.36328125,0.419921875,3.193359375t1.630859375,1.201171875l0,0.1171875l-7.24609375,0l0-0.1171875q1.15234375-0.3125,1.62109375-1.201171875t0.46875-3.193359375l0-8.88671875q0-3.0078125-1.181640625-4.560546875t-3.349609375-1.552734375q-2.32421875,0-3.671875,1.42578125l-0.0390625-0.0390625q0.52734375-1.2890625,2.001953125-2.265625t3.466796875-0.9765625q2.71484375,0,4.296875,1.884765625t1.58203125,4.970703125l0,10z M95.078125,40.44921875q0,6.640625,4.19921875,7.48046875l0,0.1953125q-2.44140625-0.3515625-4.19921875-1.8359375l0,6.484375q0,2.28515625,0.48828125,3.18359375t1.6796875,1.2109375l0,0.1171875l-7.32421875,0l0-0.1171875q1.19140625-0.3515625,1.62109375-1.19140625t0.4296875-3.203125l0-19.6484375q0-2.51953125-0.439453125-3.53515625t-1.533203125-1.42578125l0.0390625-0.078125q3.046875-0.234375,5.33203125-1.484375l0.078125,0.078125q-0.3515625,1.71875-0.37109375,6.4453125l0,7.32421875z M102.59765625,26.6015625q3.4765625,0,5.625,2.783203125t2.1484375,7.138671875q0,5.3515625-2.36328125,8.26171875t-6.11328125,3.33984375l0-0.1953125q2.36328125-0.44921875,3.740234375-3.046875t1.376953125-7.265625q0-4.51171875-1.66015625-6.8359375t-4.55078125-2.32421875q-2.0703125,0-3.3203125,1.42578125l-0.078125-0.0390625q0.60546875-1.328125,1.962890625-2.28515625t3.232421875-0.95703125z M120.625,43.45703125q0,2.36328125,0.439453125,3.212890625t1.611328125,1.181640625l0,0.1171875l-7.16796875,0l0-0.1171875q1.19140625-0.3515625,1.6015625-1.201171875t0.41015625-3.193359375l0-20.9765625q0-2.51953125-0.439453125-3.5546875t-1.533203125-1.40625l0.0390625-0.1171875q3.0859375-0.1953125,5.33203125-1.42578125l0.078125,0.0390625q-0.3515625,2.40234375-0.37109375,6.46484375l0,20.9765625z M127.265625,37.40234375q0-4.31640625,2.34375-7.275390625t5.9375-3.388671875l0,0.15625q-2.20703125,0.56640625-3.642578125,2.978515625t-1.435546875,5.849609375q0,4.609375,2.40234375,7.28515625t6.11328125,2.67578125q3.515625,0,5.68359375-2.44140625l0.1171875,0.078125q-0.87890625,2.24609375-2.900390625,3.564453125t-4.775390625,1.318359375q-4.31640625,0-7.080078125-3.056640625t-2.763671875-7.744140625z M133.06640625,35.72265625l-0.0390625-0.1953125l8.59375-0.234375q0.15625-0.64453125,0.15625-1.875q0-5.68359375-3.6328125-6.5234375l0-0.15625q3.0859375,0.3515625,4.78515625,2.490234375t1.69921875,5.029296875q0,0.91796875-0.15625,1.46484375l-11.40625,0z M161.4453125,44.375l0.1171875,0.0390625q-0.1953125,1.40625-1.513671875,2.59765625t-3.310546875,1.19140625q-2.71484375,0-4.19921875-1.66015625t-1.484375-4.94140625l0-14.27734375l-1.40625,0l0-0.234375q1.03515625-0.44921875,2.34375-1.6015625t1.89453125-2.12890625l0.15625,0.09765625l0,3.3984375l6.5234375,0l0,0.46875l-6.5234375,0l0,13.92578125q0,5.44921875,3.76953125,5.4296875q2.67578125,0.01953125,3.6328125-2.3046875z  M172.63671875,25.83984375q0-2.63671875,2.080078125-4.677734375t5.400390625-2.431640625l0,0.234375q-2.12890625,0.44921875-3.408203125,1.845703125t-1.279296875,3.447265625q0,1.6015625,0.83984375,2.8515625t2.177734375,2.119140625t2.958984375,1.640625t3.22265625,1.630859375t2.939453125,1.884765625t2.177734375,2.587890625t0.83984375,3.515625q0,2.83203125-2.197265625,5.09765625t-6.630859375,2.578125l0-0.234375q2.96875-0.3125,4.365234375-2.021484375t1.396484375-3.935546875q0-2.36328125-1.54296875-4.08203125t-3.720703125-2.802734375t-4.365234375-2.177734375t-3.720703125-2.861328125t-1.533203125-4.208984375z M182.75390625,18.96484375l0-0.234375q4.00390625,0.3515625,6.6796875,2.51953125l-0.83984375,6.640625l-0.15625,0.0390625q-0.76171875-8.0078125-5.68359375-8.96484375z M171.7578125,45.64453125l0.87890625-6.5625l0.1171875-0.0390625q0.99609375,7.9296875,6.34765625,8.88671875l0,0.234375q-2.32421875-0.1953125-4.296875-0.95703125t-3.046875-1.5625z M194.86328125,37.40234375q0-4.19921875,2.421875-7.236328125t6.3671875-3.486328125l0,0.21484375q-2.44140625,0.56640625-3.896484375,3.41796875t-1.455078125,7.08984375q0.0390625,4.47265625,1.46484375,7.236328125t3.88671875,3.330078125l0,0.1953125q-4.04296875-0.44921875-6.416015625-3.388671875t-2.373046875-7.373046875z M206.26953125,26.89453125l0-0.21484375q3.92578125,0.48828125,6.318359375,3.525390625t2.392578125,7.197265625q0,4.39453125-2.3828125,7.34375t-6.328125,3.41796875l0-0.1953125q2.44140625-0.56640625,3.857421875-3.33984375t1.416015625-7.2265625q0-4.19921875-1.435546875-7.03125t-3.837890625-3.4765625z M225.25390625,43.45703125q0,2.36328125,0.439453125,3.212890625t1.611328125,1.181640625l0,0.1171875l-7.16796875,0l0-0.1171875q1.19140625-0.3515625,1.6015625-1.201171875t0.41015625-3.193359375l0-20.9765625q0-2.51953125-0.439453125-3.5546875t-1.533203125-1.40625l0.0390625-0.1171875q3.0859375-0.1953125,5.33203125-1.42578125l0.078125,0.0390625q-0.3515625,2.40234375-0.37109375,6.46484375l0,20.9765625z M241.85546875,46.3671875q2.24609375,0,3.515625-1.4453125l0.0390625,0.078125q-0.56640625,1.23046875-1.982421875,2.216796875t-3.330078125,0.986328125q-2.9296875,0-4.62890625-1.85546875t-1.69921875-4.94140625l0-8.28125q0-2.51953125-0.439453125-3.53515625t-1.552734375-1.42578125l0.078125-0.078125q3.046875-0.234375,5.3125-1.484375l0.0390625,0.078125q-0.3515625,2.28515625-0.3515625,6.4453125l0,7.12890625q0,3.0078125,1.298828125,4.560546875t3.701171875,1.552734375z M250.8984375,42.08984375q0,2.55859375,0.419921875,3.49609375t1.494140625,1.30859375l0,0.1171875q-2.32421875,0.0390625-4.9609375,1.23046875l-0.078125-0.078125l0-15.0390625q0-2.51953125-0.439453125-3.53515625t-1.513671875-1.42578125l0.0390625-0.078125q3.046875-0.234375,5.3125-1.484375l0.078125,0.078125q-0.3515625,1.71875-0.3515625,6.4453125l0,8.96484375z M269.43359375,44.375l0.1171875,0.0390625q-0.1953125,1.40625-1.513671875,2.59765625t-3.310546875,1.19140625q-2.71484375,0-4.19921875-1.66015625t-1.484375-4.94140625l0-14.27734375l-1.40625,0l0-0.234375q1.03515625-0.44921875,2.34375-1.6015625t1.89453125-2.12890625l0.15625,0.09765625l0,3.3984375l6.5234375,0l0,0.46875l-6.5234375,0l0,13.92578125q0,5.44921875,3.76953125,5.4296875q2.67578125,0.01953125,3.6328125-2.3046875z M275.87890625,23.359375q-1.03515625,0-1.71875-0.556640625t-0.68359375-1.435546875q0-0.91796875,0.654296875-1.474609375t1.748046875-0.556640625q1.03515625,0,1.69921875,0.556640625t0.6640625,1.474609375q0,0.87890625-0.6640625,1.435546875t-1.69921875,0.556640625z M277.59765625,43.45703125q0,2.36328125,0.419921875,3.212890625t1.572265625,1.181640625l0,0.1171875l-7.1484375,0l0-0.1171875q1.19140625-0.3515625,1.611328125-1.201171875t0.419921875-3.193359375l0-10.33203125q0-2.51953125-0.439453125-3.53515625t-1.513671875-1.42578125l0.0390625-0.078125q3.046875-0.234375,5.3125-1.484375l0.078125,0.078125q-0.3515625,1.71875-0.3515625,6.4453125l0,10.33203125z M284.62890625,37.40234375q0-4.19921875,2.421875-7.236328125t6.3671875-3.486328125l0,0.21484375q-2.44140625,0.56640625-3.896484375,3.41796875t-1.455078125,7.08984375q0.0390625,4.47265625,1.46484375,7.236328125t3.88671875,3.330078125l0,0.1953125q-4.04296875-0.44921875-6.416015625-3.388671875t-2.373046875-7.373046875z M296.03515625,26.89453125l0-0.21484375q3.92578125,0.48828125,6.318359375,3.525390625t2.392578125,7.197265625q0,4.39453125-2.3828125,7.34375t-6.328125,3.41796875l0-0.1953125q2.44140625-0.56640625,3.857421875-3.33984375t1.416015625-7.2265625q0-4.19921875-1.435546875-7.03125t-3.837890625-3.4765625z M315.390625,43.45703125q0,2.32421875,0.458984375,3.193359375t1.611328125,1.201171875l0,0.1171875l-7.2265625,0l0-0.1171875q1.19140625-0.3515625,1.611328125-1.201171875t0.419921875-3.193359375l0-10.33203125q0-2.51953125-0.439453125-3.53515625t-1.513671875-1.42578125l0.0390625-0.078125q3.0859375-0.234375,5.3125-1.484375l0.078125,0.078125q-0.3515625,1.71875-0.3515625,6.4453125l0,10.33203125z M329.39453125,43.45703125q0,2.36328125,0.419921875,3.193359375t1.611328125,1.201171875l0,0.1171875l-7.24609375,0l0-0.1171875q1.19140625-0.3125,1.66015625-1.220703125t0.46875-3.173828125l0-8.88671875q0-3.0078125-1.298828125-4.560546875t-3.701171875-1.552734375q-2.24609375,0-3.515625,1.42578125l-0.078125-0.0390625q0.52734375-1.2890625,1.982421875-2.265625t3.369140625-0.9765625q2.9296875,0,4.62890625,1.884765625t1.69921875,4.970703125l0,10z M337.0703125,32.40234375q0-2.16796875,1.455078125-3.740234375t3.935546875-1.923828125l0,0.15625q-1.328125,0.390625-2.099609375,1.455078125t-0.771484375,2.412109375q0,1.5625,1.1328125,2.744140625t2.75390625,1.982421875t3.2421875,1.640625t2.763671875,2.177734375t1.142578125,3.134765625q0,2.24609375-1.54296875,3.76953125t-4.21875,1.9140625l0-0.1953125q3.046875-0.68359375,3.046875-4.00390625q0-1.5234375-1.123046875-2.67578125t-2.724609375-1.953125t-3.18359375-1.640625t-2.6953125-2.16796875t-1.11328125-3.0859375z M345.05859375,26.89453125l0-0.15625q3.125,0.390625,4.8828125,1.953125l-0.99609375,4.84375l-0.078125,0q-0.83984375-5.72265625-3.80859375-6.640625z M336.42578125,46.25l0.83984375-4.921875l0.078125,0q0.48828125,2.9296875,1.865234375,4.58984375t3.056640625,2.01171875l0,0.1953125q-3.5546875-0.3515625-5.83984375-1.875z"/></g><g data-name="slogan" fill="#000000" data="id:373" transform="translate(151.47908520663916,266.3576630760505) scale(0.29213949974701)"><path d="M2.71484375,19.19921875l0-0.15625l5.33203125,0l0,28.92578125l-5.33203125,0l0-0.15625q0.99609375-0.2734375,1.46484375-1.455078125t0.46875-4.189453125l0-17.32421875q0-3.0078125-0.46875-4.189453125t-1.46484375-1.455078125z M21.328125,27.01171875q-0.99609375-4.16015625-2.685546875-5.76171875t-5.283203125-1.796875l-2.67578125-0.15625l0-0.25390625l10.390625,0l0.37109375,7.890625z M12.67578125,32.65625q3.0078125-0.1171875,4.169921875-0.9375t1.630859375-2.71484375l0.1171875,0l0,8.203125l-0.1171875,0q-0.48828125-2.20703125-1.66015625-3.203125t-4.140625-1.03515625l-1.953125-0.0390625l0-0.234375z M22.75390625,39.8046875l0.1171875,0.078125l-0.87890625,8.0859375l-11.30859375,0l0-0.234375l2.75390625-0.15625q3.76953125-0.1953125,5.927734375-1.884765625t3.388671875-5.888671875z M33.4765625,43.45703125q0,2.32421875,0.458984375,3.193359375t1.611328125,1.201171875l0,0.1171875l-7.2265625,0l0-0.1171875q1.19140625-0.3515625,1.611328125-1.201171875t0.419921875-3.193359375l0-10.33203125q0-2.51953125-0.439453125-3.53515625t-1.513671875-1.42578125l0.0390625-0.078125q3.0859375-0.234375,5.3125-1.484375l0.078125,0.078125q-0.3515625,1.71875-0.3515625,6.4453125l0,10.33203125z M47.48046875,43.45703125q0,2.36328125,0.419921875,3.193359375t1.611328125,1.201171875l0,0.1171875l-7.24609375,0l0-0.1171875q1.19140625-0.3125,1.66015625-1.220703125t0.46875-3.173828125l0-8.88671875q0-3.0078125-1.298828125-4.560546875t-3.701171875-1.552734375q-2.24609375,0-3.515625,1.42578125l-0.078125-0.0390625q0.52734375-1.2890625,1.982421875-2.265625t3.369140625-0.9765625q2.9296875,0,4.62890625,1.884765625t1.69921875,4.970703125l0,10z M70.46875,22.7734375l0.0390625-0.078125l2.63671875-0.87890625q0.76171875,0.95703125,0.76171875,2.1875q0,1.19140625-0.91796875,2.001953125t-2.40234375,1.044921875l-0.1171875-0.078125q0.68359375-0.80078125,0.68359375-2.041015625t-0.68359375-2.158203125z M55.3515625,34.609375q0-3.203125,2.021484375-5.341796875t5.341796875-2.529296875l0,0.15625q-1.9140625,0.48828125-2.958984375,2.44140625t-1.005859375,5.2734375q0.0390625,6.19140625,3.96484375,7.24609375l0,0.15625q-3.3203125-0.3125-5.341796875-2.353515625t-2.021484375-5.048828125z M65.3125,42.01171875l0-0.15625q3.80859375-1.03515625,3.92578125-7.36328125q0.0390625-3.28125-1.005859375-5.205078125t-2.919921875-2.392578125l0-0.15625q3.28125,0.3515625,5.302734375,2.490234375t2.021484375,5.263671875q0,3.046875-2.021484375,5.107421875t-5.302734375,2.412109375z M55.3125,44.765625q1.6015625-0.76171875,2.94921875-1.953125l0.13671875,0.1171875q-0.76171875,0.99609375-0.76171875,1.71875q0,1.328125,1.9921875,1.328125l8.203125,0q3.2421875,0,4.90234375,1.455078125t1.66015625,3.740234375q0,2.55859375-2.3046875,4.4140625t-6.69921875,2.0703125l0-0.21484375q3.3203125-0.1953125,5.1953125-1.591796875t1.875-3.369140625q0-3.80859375-5.5859375-3.7890625l-7.32421875,0q-4.23828125,0-4.23828125-3.92578125z M54.140625,52.8125q0-1.11328125,0.888671875-1.8359375t2.197265625-0.80078125l0.0390625,0.078125q-0.64453125,0.95703125-0.64453125,2.32421875q0,2.0703125,1.5625,3.349609375t4.609375,1.513671875l0,0.21484375q-4.47265625-0.1953125-6.5625-1.640625t-2.08984375-3.203125z M81.30859375,23.359375q-1.03515625,0-1.71875-0.556640625t-0.68359375-1.435546875q0-0.91796875,0.654296875-1.474609375t1.748046875-0.556640625q1.03515625,0,1.69921875,0.556640625t0.6640625,1.474609375q0,0.87890625-0.6640625,1.435546875t-1.69921875,0.556640625z M83.02734375,43.45703125q0,2.36328125,0.419921875,3.212890625t1.572265625,1.181640625l0,0.1171875l-7.1484375,0l0-0.1171875q1.19140625-0.3515625,1.611328125-1.201171875t0.419921875-3.193359375l0-10.33203125q0-2.51953125-0.439453125-3.53515625t-1.513671875-1.42578125l0.0390625-0.078125q3.046875-0.234375,5.3125-1.484375l0.078125,0.078125q-0.3515625,1.71875-0.3515625,6.4453125l0,10.33203125z M95.8203125,43.45703125q0,2.32421875,0.458984375,3.193359375t1.611328125,1.201171875l0,0.1171875l-7.2265625,0l0-0.1171875q1.19140625-0.3515625,1.611328125-1.201171875t0.419921875-3.193359375l0-10.33203125q0-2.51953125-0.439453125-3.53515625t-1.513671875-1.42578125l0.0390625-0.078125q3.0859375-0.234375,5.3125-1.484375l0.078125,0.078125q-0.3515625,1.71875-0.3515625,6.4453125l0,10.33203125z M109.82421875,43.45703125q0,2.36328125,0.419921875,3.193359375t1.611328125,1.201171875l0,0.1171875l-7.24609375,0l0-0.1171875q1.19140625-0.3125,1.66015625-1.220703125t0.46875-3.173828125l0-8.88671875q0-3.0078125-1.298828125-4.560546875t-3.701171875-1.552734375q-2.24609375,0-3.515625,1.42578125l-0.078125-0.0390625q0.52734375-1.2890625,1.982421875-2.265625t3.369140625-0.9765625q2.9296875,0,4.62890625,1.884765625t1.69921875,4.970703125l0,10z M116.85546875,37.40234375q0-4.31640625,2.34375-7.275390625t5.9375-3.388671875l0,0.15625q-2.20703125,0.56640625-3.642578125,2.978515625t-1.435546875,5.849609375q0,4.609375,2.40234375,7.28515625t6.11328125,2.67578125q3.515625,0,5.68359375-2.44140625l0.1171875,0.078125q-0.87890625,2.24609375-2.900390625,3.564453125t-4.775390625,1.318359375q-4.31640625,0-7.080078125-3.056640625t-2.763671875-7.744140625z M122.65625,35.72265625l-0.0390625-0.1953125l8.59375-0.234375q0.15625-0.64453125,0.15625-1.875q0-5.68359375-3.6328125-6.5234375l0-0.15625q3.0859375,0.3515625,4.78515625,2.490234375t1.69921875,5.029296875q0,0.91796875-0.15625,1.46484375l-11.40625,0z M139.04296875,37.40234375q0-4.31640625,2.34375-7.275390625t5.9375-3.388671875l0,0.15625q-2.20703125,0.56640625-3.642578125,2.978515625t-1.435546875,5.849609375q0,4.609375,2.40234375,7.28515625t6.11328125,2.67578125q3.515625,0,5.68359375-2.44140625l0.1171875,0.078125q-0.87890625,2.24609375-2.900390625,3.564453125t-4.775390625,1.318359375q-4.31640625,0-7.080078125-3.056640625t-2.763671875-7.744140625z M144.84375,35.72265625l-0.0390625-0.1953125l8.59375-0.234375q0.15625-0.64453125,0.15625-1.875q0-5.68359375-3.6328125-6.5234375l0-0.15625q3.0859375,0.3515625,4.78515625,2.490234375t1.69921875,5.029296875q0,0.91796875-0.15625,1.46484375l-11.40625,0z M166.9921875,43.45703125q0,2.32421875,0.517578125,3.193359375t1.923828125,1.201171875l0,0.1171875l-7.59765625,0l0-0.1171875q1.19140625-0.3515625,1.611328125-1.201171875t0.419921875-3.193359375l0-10.33203125q0-2.51953125-0.439453125-3.53515625t-1.513671875-1.42578125l0.0390625-0.078125q3.046875-0.234375,5.3125-1.484375l0.078125,0.078125q-0.3515625,1.71875-0.3515625,6.4453125l0,10.33203125z M173.671875,26.6015625q1.19140625,0,2.03125,0.60546875l-0.625,2.59765625l-0.13671875,0q-0.76171875-0.68359375-2.34375-0.68359375q-2.12890625,0-3.28125,1.97265625l-0.078125-0.0390625q0.3515625-1.9921875,1.552734375-3.22265625t2.880859375-1.23046875z M181.9921875,23.359375q-1.03515625,0-1.71875-0.556640625t-0.68359375-1.435546875q0-0.91796875,0.654296875-1.474609375t1.748046875-0.556640625q1.03515625,0,1.69921875,0.556640625t0.6640625,1.474609375q0,0.87890625-0.6640625,1.435546875t-1.69921875,0.556640625z M183.7109375,43.45703125q0,2.36328125,0.419921875,3.212890625t1.572265625,1.181640625l0,0.1171875l-7.1484375,0l0-0.1171875q1.19140625-0.3515625,1.611328125-1.201171875t0.419921875-3.193359375l0-10.33203125q0-2.51953125-0.439453125-3.53515625t-1.513671875-1.42578125l0.0390625-0.078125q3.046875-0.234375,5.3125-1.484375l0.078125,0.078125q-0.3515625,1.71875-0.3515625,6.4453125l0,10.33203125z M196.50390625,43.45703125q0,2.32421875,0.458984375,3.193359375t1.611328125,1.201171875l0,0.1171875l-7.2265625,0l0-0.1171875q1.19140625-0.3515625,1.611328125-1.201171875t0.419921875-3.193359375l0-10.33203125q0-2.51953125-0.439453125-3.53515625t-1.513671875-1.42578125l0.0390625-0.078125q3.0859375-0.234375,5.3125-1.484375l0.078125,0.078125q-0.3515625,1.71875-0.3515625,6.4453125l0,10.33203125z M210.5078125,43.45703125q0,2.36328125,0.419921875,3.193359375t1.611328125,1.201171875l0,0.1171875l-7.24609375,0l0-0.1171875q1.19140625-0.3125,1.66015625-1.220703125t0.46875-3.173828125l0-8.88671875q0-3.0078125-1.298828125-4.560546875t-3.701171875-1.552734375q-2.24609375,0-3.515625,1.42578125l-0.078125-0.0390625q0.52734375-1.2890625,1.982421875-2.265625t3.369140625-0.9765625q2.9296875,0,4.62890625,1.884765625t1.69921875,4.970703125l0,10z M233.49609375,22.7734375l0.0390625-0.078125l2.63671875-0.87890625q0.76171875,0.95703125,0.76171875,2.1875q0,1.19140625-0.91796875,2.001953125t-2.40234375,1.044921875l-0.1171875-0.078125q0.68359375-0.80078125,0.68359375-2.041015625t-0.68359375-2.158203125z M218.37890625,34.609375q0-3.203125,2.021484375-5.341796875t5.341796875-2.529296875l0,0.15625q-1.9140625,0.48828125-2.958984375,2.44140625t-1.005859375,5.2734375q0.0390625,6.19140625,3.96484375,7.24609375l0,0.15625q-3.3203125-0.3125-5.341796875-2.353515625t-2.021484375-5.048828125z M228.33984375,42.01171875l0-0.15625q3.80859375-1.03515625,3.92578125-7.36328125q0.0390625-3.28125-1.005859375-5.205078125t-2.919921875-2.392578125l0-0.15625q3.28125,0.3515625,5.302734375,2.490234375t2.021484375,5.263671875q0,3.046875-2.021484375,5.107421875t-5.302734375,2.412109375z M218.33984375,44.765625q1.6015625-0.76171875,2.94921875-1.953125l0.13671875,0.1171875q-0.76171875,0.99609375-0.76171875,1.71875q0,1.328125,1.9921875,1.328125l8.203125,0q3.2421875,0,4.90234375,1.455078125t1.66015625,3.740234375q0,2.55859375-2.3046875,4.4140625t-6.69921875,2.0703125l0-0.21484375q3.3203125-0.1953125,5.1953125-1.591796875t1.875-3.369140625q0-3.80859375-5.5859375-3.7890625l-7.32421875,0q-4.23828125,0-4.23828125-3.92578125z M217.16796875,52.8125q0-1.11328125,0.888671875-1.8359375t2.197265625-0.80078125l0.0390625,0.078125q-0.64453125,0.95703125-0.64453125,2.32421875q0,2.0703125,1.5625,3.349609375t4.609375,1.513671875l0,0.21484375q-4.47265625-0.1953125-6.5625-1.640625t-2.08984375-3.203125z  M248.203125,33.45703125q0-6.23046875,3.720703125-10.283203125t9.599609375-4.482421875l0,0.234375q-4.39453125,0.56640625-7.041015625,4.365234375t-2.646484375,10.166015625q0,6.2890625,2.63671875,10.09765625t7.05078125,4.375l0,0.234375q-5.83984375-0.44921875-9.580078125-4.501953125t-3.740234375-10.205078125z M264.31640625,18.92578125l0-0.234375q4.51171875,0.234375,7.0703125,1.8359375l0.25390625,6.953125l-0.15625,0.0390625q-0.99609375-4.23828125-2.646484375-6.259765625t-4.521484375-2.333984375z M264.31640625,48.1640625l0-0.234375q3.2421875-0.390625,5.15625-2.51953125t2.890625-6.2109375l0.15625,0.05859375l-0.83984375,7.1875q-2.75390625,1.5234375-7.36328125,1.71875z M277.03125,37.40234375q0-4.19921875,2.421875-7.236328125t6.3671875-3.486328125l0,0.21484375q-2.44140625,0.56640625-3.896484375,3.41796875t-1.455078125,7.08984375q0.0390625,4.47265625,1.46484375,7.236328125t3.88671875,3.330078125l0,0.1953125q-4.04296875-0.44921875-6.416015625-3.388671875t-2.373046875-7.373046875z M288.4375,26.89453125l0-0.21484375q3.92578125,0.48828125,6.318359375,3.525390625t2.392578125,7.197265625q0,4.39453125-2.3828125,7.34375t-6.328125,3.41796875l0-0.1953125q2.44140625-0.56640625,3.857421875-3.33984375t1.416015625-7.2265625q0-4.19921875-1.435546875-7.03125t-3.837890625-3.4765625z M307.79296875,43.45703125q0,2.32421875,0.458984375,3.193359375t1.611328125,1.201171875l0,0.1171875l-7.2265625,0l0-0.1171875q1.19140625-0.3515625,1.611328125-1.201171875t0.419921875-3.193359375l0-10.33203125q0-2.51953125-0.439453125-3.53515625t-1.513671875-1.42578125l0.0390625-0.078125q3.0859375-0.234375,5.3125-1.484375l0.078125,0.078125q-0.3515625,1.71875-0.3515625,6.4453125l0,10.33203125z M321.796875,43.45703125q0,2.36328125,0.419921875,3.193359375t1.611328125,1.201171875l0,0.1171875l-7.24609375,0l0-0.1171875q1.19140625-0.3125,1.66015625-1.220703125t0.46875-3.173828125l0-8.88671875q0-3.0078125-1.298828125-4.560546875t-3.701171875-1.552734375q-2.24609375,0-3.515625,1.42578125l-0.078125-0.0390625q0.52734375-1.2890625,1.982421875-2.265625t3.369140625-0.9765625q2.9296875,0,4.62890625,1.884765625t1.69921875,4.970703125l0,10z M340.8203125,44.375l0.1171875,0.0390625q-0.1953125,1.40625-1.513671875,2.59765625t-3.310546875,1.19140625q-2.71484375,0-4.19921875-1.66015625t-1.484375-4.94140625l0-14.27734375l-1.40625,0l0-0.234375q1.03515625-0.44921875,2.34375-1.6015625t1.89453125-2.12890625l0.15625,0.09765625l0,3.3984375l6.5234375,0l0,0.46875l-6.5234375,0l0,13.92578125q0,5.44921875,3.76953125,5.4296875q2.67578125,0.01953125,3.6328125-2.3046875z M343.22265625,37.40234375q0-4.31640625,2.34375-7.275390625t5.9375-3.388671875l0,0.15625q-2.20703125,0.56640625-3.642578125,2.978515625t-1.435546875,5.849609375q0,4.609375,2.40234375,7.28515625t6.11328125,2.67578125q3.515625,0,5.68359375-2.44140625l0.1171875,0.078125q-0.87890625,2.24609375-2.900390625,3.564453125t-4.775390625,1.318359375q-4.31640625,0-7.080078125-3.056640625t-2.763671875-7.744140625z M349.0234375,35.72265625l-0.0390625-0.1953125l8.59375-0.234375q0.15625-0.64453125,0.15625-1.875q0-5.68359375-3.6328125-6.5234375l0-0.15625q3.0859375,0.3515625,4.78515625,2.490234375t1.69921875,5.029296875q0,0.91796875-0.15625,1.46484375l-11.40625,0z M371.171875,43.45703125q0,2.32421875,0.458984375,3.193359375t1.611328125,1.201171875l0,0.1171875l-7.2265625,0l0-0.1171875q1.19140625-0.3515625,1.611328125-1.201171875t0.419921875-3.193359375l0-10.33203125q0-2.51953125-0.439453125-3.53515625t-1.513671875-1.42578125l0.0390625-0.078125q3.0859375-0.234375,5.3125-1.484375l0.078125,0.078125q-0.3515625,1.71875-0.3515625,6.4453125l0,10.33203125z M385.17578125,43.45703125q0,2.36328125,0.419921875,3.193359375t1.611328125,1.201171875l0,0.1171875l-7.24609375,0l0-0.1171875q1.19140625-0.3125,1.66015625-1.220703125t0.46875-3.173828125l0-8.88671875q0-3.0078125-1.298828125-4.560546875t-3.701171875-1.552734375q-2.24609375,0-3.515625,1.42578125l-0.078125-0.0390625q0.52734375-1.2890625,1.982421875-2.265625t3.369140625-0.9765625q2.9296875,0,4.62890625,1.884765625t1.69921875,4.970703125l0,10z M404.19921875,44.375l0.1171875,0.0390625q-0.1953125,1.40625-1.513671875,2.59765625t-3.310546875,1.19140625q-2.71484375,0-4.19921875-1.66015625t-1.484375-4.94140625l0-14.27734375l-1.40625,0l0-0.234375q1.03515625-0.44921875,2.34375-1.6015625t1.89453125-2.12890625l0.15625,0.09765625l0,3.3984375l6.5234375,0l0,0.46875l-6.5234375,0l0,13.92578125q0,5.44921875,3.76953125,5.4296875q2.67578125,0.01953125,3.6328125-2.3046875z  M420.17578125,23.28125l0,3.57421875l5.76171875,0l0,0.46875l-5.76171875,0l0,16.1328125q0,2.32421875,0.5859375,3.193359375t2.1484375,1.201171875l0,0.1171875l-7.8515625,0l0-0.1171875q1.19140625-0.3515625,1.6015625-1.201171875t0.41015625-3.193359375l0-16.1328125l-1.3671875,0l0-0.46875l1.3671875,0l0-3.57421875q0-6.40625,5.546875-7.1875l0,0.1953125q-2.44140625,1.19140625-2.44140625,6.9921875z M424.86328125,16.09375q2.67578125,0.390625,4.16015625,1.6796875l-0.99609375,4.9609375l-0.1171875-0.0390625q-0.68359375-5.52734375-3.046875-6.40625l0-0.1953125z M428.84765625,37.40234375q0-4.19921875,2.421875-7.236328125t6.3671875-3.486328125l0,0.21484375q-2.44140625,0.56640625-3.896484375,3.41796875t-1.455078125,7.08984375q0.0390625,4.47265625,1.46484375,7.236328125t3.88671875,3.330078125l0,0.1953125q-4.04296875-0.44921875-6.416015625-3.388671875t-2.373046875-7.373046875z M440.25390625,26.89453125l0-0.21484375q3.92578125,0.48828125,6.318359375,3.525390625t2.392578125,7.197265625q0,4.39453125-2.3828125,7.34375t-6.328125,3.41796875l0-0.1953125q2.44140625-0.56640625,3.857421875-3.33984375t1.416015625-7.2265625q0-4.19921875-1.435546875-7.03125t-3.837890625-3.4765625z M459.609375,43.45703125q0,2.32421875,0.517578125,3.193359375t1.923828125,1.201171875l0,0.1171875l-7.59765625,0l0-0.1171875q1.19140625-0.3515625,1.611328125-1.201171875t0.419921875-3.193359375l0-10.33203125q0-2.51953125-0.439453125-3.53515625t-1.513671875-1.42578125l0.0390625-0.078125q3.046875-0.234375,5.3125-1.484375l0.078125,0.078125q-0.3515625,1.71875-0.3515625,6.4453125l0,10.33203125z M466.2890625,26.6015625q1.19140625,0,2.03125,0.60546875l-0.625,2.59765625l-0.13671875,0q-0.76171875-0.68359375-2.34375-0.68359375q-2.12890625,0-3.28125,1.97265625l-0.078125-0.0390625q0.3515625-1.9921875,1.552734375-3.22265625t2.880859375-1.23046875z  M499.98046875,41.4453125q1.40625,3.7109375,2.20703125,4.892578125t1.9140625,1.474609375l0,0.15625l-8.5546875,0l0-0.15625q1.484375-0.390625,1.806640625-1.494140625t-0.556640625-3.798828125l-1.71875-4.58984375l-9.2578125-0.15625l0.09765625-0.1953125l8.984375-0.21484375l-5.87890625-15.87890625l0.95703125-2.44140625l1.5625,0z M481.42578125,42.24609375q-0.95703125,2.79296875-0.439453125,3.994140625t2.607421875,1.572265625l0,0.15625l-7.16796875,0l0-0.15625q1.2890625-0.3515625,2.20703125-1.455078125t1.953125-3.740234375l7.24609375-18.1640625l0.078125,0.2734375z M514.296875,19.19921875q-1.03515625,0.2734375-1.474609375,1.4453125t-0.439453125,4.19921875l0,17.32421875q0,3.046875,0.439453125,4.19921875t1.474609375,1.4453125l0,0.15625l-7.24609375,0l0-0.15625q0.99609375-0.2734375,1.46484375-1.455078125t0.46875-4.189453125l0-17.32421875q0-3.0078125-0.46875-4.1796875t-1.46484375-1.46484375l0-0.15625l7.24609375,0l0,0.15625z  M526.015625,26.93359375l0.37109375-7.890625l7.48046875,0l0,0.25390625l-0.44921875,0.0390625q-3.2421875,0.1171875-4.755859375,1.77734375t-2.470703125,5.8984375z M539.94140625,42.16796875q0,3.046875,0.498046875,4.19921875t1.630859375,1.4453125l0,0.15625l-7.63671875,0l0-0.15625q1.07421875-0.2734375,1.591796875-1.455078125t0.517578125-4.189453125l0-23.125l3.3984375,0l0,23.125z M550.09765625,19.04296875l0.37109375,7.890625l-0.1171875,0.078125q-0.95703125-4.19921875-2.51953125-5.87890625t-4.765625-1.796875l-0.41015625-0.0390625l0-0.25390625l7.44140625,0z M559.0625,43.45703125q0,2.32421875,0.517578125,3.193359375t1.923828125,1.201171875l0,0.1171875l-7.59765625,0l0-0.1171875q1.19140625-0.3515625,1.611328125-1.201171875t0.419921875-3.193359375l0-10.33203125q0-2.51953125-0.439453125-3.53515625t-1.513671875-1.42578125l0.0390625-0.078125q3.046875-0.234375,5.3125-1.484375l0.078125,0.078125q-0.3515625,1.71875-0.3515625,6.4453125l0,10.33203125z M565.7421875,26.6015625q1.19140625,0,2.03125,0.60546875l-0.625,2.59765625l-0.13671875,0q-0.76171875-0.68359375-2.34375-0.68359375q-2.12890625,0-3.28125,1.97265625l-0.078125-0.0390625q0.3515625-1.9921875,1.552734375-3.22265625t2.880859375-1.23046875z M579.98046875,46.3671875q2.24609375,0,3.515625-1.4453125l0.0390625,0.078125q-0.56640625,1.23046875-1.982421875,2.216796875t-3.330078125,0.986328125q-2.9296875,0-4.62890625-1.85546875t-1.69921875-4.94140625l0-8.28125q0-2.51953125-0.439453125-3.53515625t-1.552734375-1.42578125l0.078125-0.078125q3.046875-0.234375,5.3125-1.484375l0.0390625,0.078125q-0.3515625,2.28515625-0.3515625,6.4453125l0,7.12890625q0,3.0078125,1.298828125,4.560546875t3.701171875,1.552734375z M589.0234375,42.08984375q0,2.55859375,0.419921875,3.49609375t1.494140625,1.30859375l0,0.1171875q-2.32421875,0.0390625-4.9609375,1.23046875l-0.078125-0.078125l0-15.0390625q0-2.51953125-0.439453125-3.53515625t-1.513671875-1.42578125l0.0390625-0.078125q3.046875-0.234375,5.3125-1.484375l0.078125,0.078125q-0.3515625,1.71875-0.3515625,6.4453125l0,8.96484375z M596.2109375,32.40234375q0-2.16796875,1.455078125-3.740234375t3.935546875-1.923828125l0,0.15625q-1.328125,0.390625-2.099609375,1.455078125t-0.771484375,2.412109375q0,1.5625,1.1328125,2.744140625t2.75390625,1.982421875t3.2421875,1.640625t2.763671875,2.177734375t1.142578125,3.134765625q0,2.24609375-1.54296875,3.76953125t-4.21875,1.9140625l0-0.1953125q3.046875-0.68359375,3.046875-4.00390625q0-1.5234375-1.123046875-2.67578125t-2.724609375-1.953125t-3.18359375-1.640625t-2.6953125-2.16796875t-1.11328125-3.0859375z M604.19921875,26.89453125l0-0.15625q3.125,0.390625,4.8828125,1.953125l-0.99609375,4.84375l-0.078125,0q-0.83984375-5.72265625-3.80859375-6.640625z M595.56640625,46.25l0.83984375-4.921875l0.078125,0q0.48828125,2.9296875,1.865234375,4.58984375t3.056640625,2.01171875l0,0.1953125q-3.5546875-0.3515625-5.83984375-1.875z M626.38671875,44.375l0.1171875,0.0390625q-0.1953125,1.40625-1.513671875,2.59765625t-3.310546875,1.19140625q-2.71484375,0-4.19921875-1.66015625t-1.484375-4.94140625l0-14.27734375l-1.40625,0l0-0.234375q1.03515625-0.44921875,2.34375-1.6015625t1.89453125-2.12890625l0.15625,0.09765625l0,3.3984375l6.5234375,0l0,0.46875l-6.5234375,0l0,13.92578125q0,5.44921875,3.76953125,5.4296875q2.67578125,0.01953125,3.6328125-2.3046875z"/></g></svg>