<svg xmlns="http://www.w3.org/2000/svg" xmlns:xlink="http://www.w3.org/1999/xlink" width="400" height="400" viewBox="0 0 400 400"><g data-name="icon" fill="#f5db56" data="id:8156679" transform="translate(0.009930524474100366, -0.025342545876220868) scale(3.9998372462058023)">
    
 <path d="m94.859 38.129c0.10156 0.11719 0.15234 0.26953 0.14062 0.42188-0.15234 1.5742-0.44922 3.1367-0.87891 4.6602-0.039063 0.14844-0.14453 0.27344-0.28125 0.33984-0.14453 0.066407-0.30859 0.066407-0.44922 0l-3.3906-1.3125c-0.46484-0.1875-0.98438-0.1875-1.4492 0-0.44531 0.20312-0.80078 0.55859-1 1-0.19531 0.46484-0.19531 0.98828 0 1.4531 0.1875 0.45312 0.54688 0.8125 1 1l3.4492 1.418c0.14062 0.0625 0.25391 0.17578 0.30859 0.32031 0.066406 0.14062 0.066406 0.30078 0 0.44141-0.88281 1.7461-1.957 3.3867-3.1992 4.8984-0.097656 0.12109-0.24219 0.19141-0.39844 0.19922-0.15625 0-0.30078-0.058594-0.41016-0.16797l-2.6016-2.5898c-0.76172-0.6875-1.918-0.6875-2.6797 0-0.73828 0.74219-0.73828 1.9375 0 2.6797l2.5898 2.6016v-0.003907c0.10938 0.10938 0.16797 0.25781 0.16016 0.41016-0.007812 0.15625-0.082031 0.30078-0.19922 0.40234-1.2188 1.0195-2.5273 1.9219-3.9102 2.6992-0.082031 0.046875-0.17578 0.070312-0.26953 0.070312-0.058594 0.011719-0.11328 0.011719-0.17188 0-0.14453-0.050781-0.26562-0.15625-0.32812-0.30078l-1.4805-3.3594c-0.21484-0.46875-0.61328-0.83203-1.1016-1-0.16406-0.023437-0.3125-0.11719-0.39844-0.26172-0.089844-0.14453-0.10547-0.32031-0.042968-0.48047 0.058593-0.15625 0.1875-0.27734 0.34766-0.32812 0.16016-0.050782 0.33594-0.023438 0.47656 0.070312 0.77344 0.28125 1.3984 0.86719 1.7305 1.6211l1.2305 2.8008-0.003906-0.003906c0.96094-0.56641 1.8789-1.1953 2.75-1.8867l-2.1602-2.1602c-1.168-1.1719-1.168-3.0703 0-4.2422 1.1914-1.125 3.0547-1.125 4.2422 0l2.1602 2.1602c0.91016-1.1484 1.7148-2.3789 2.4102-3.668l-2.8594-1.2305c-0.73828-0.28906-1.332-0.85547-1.6523-1.582-0.32031-0.72656-0.33984-1.5547-0.050781-2.2969 0.60547-1.5391 2.3398-2.3008 3.8828-1.7031l2.8516 1.1094h-0.003906c0.27734-1.0781 0.48438-2.1719 0.62109-3.2773h-3.0586c-1.6562 0-3-1.3438-3-3s1.3438-3 3-3h3.0586c-0.17969-1.457-0.48047-2.8945-0.89844-4.3008l-2.8125 1.25c-1.5156 0.66406-3.2812-0.023438-3.9492-1.5391-0.33594-0.73438-0.35938-1.5703-0.070313-2.3242 0.28906-0.75391 0.87109-1.3555 1.6094-1.6758l2.8008-1.2305c-0.55859-0.96094-1.1875-1.8789-1.8789-2.75l-2.1602 2.1602c-1.1836 1.1016-3.0234 1.0664-4.168-0.074219-1.1406-1.1406-1.1758-2.9844-0.074219-4.168l2.1602-2.1719v0.003907c-1.1523-0.90625-2.3828-1.7109-3.6797-2.4023l-1.1094 2.8516c-0.58984 1.5508-2.3242 2.3281-3.875 1.7344-1.5469-0.58984-2.3242-2.3242-1.7344-3.875l1.1094-2.8516v0.003906c-1.0742-0.28125-2.168-0.48828-3.2695-0.62109v3.0586c0 1.6562-1.3438 3-3 3s-3-1.3438-3-3v-3.0586c-1.457 0.17188-2.8945 0.47266-4.3008 0.89844l1.2305 2.8008c0.59375 1.5-0.10938 3.1992-1.5859 3.8477-1.4766 0.64844-3.1992 0.015624-3.9023-1.4375l-1.2305-2.8008c-0.96094 0.57031-1.8828 1.2031-2.7617 1.8906l2.1719 2.1602c1.1016 1.1836 1.0664 3.0234-0.074219 4.168-1.1445 1.1406-2.9844 1.1719-4.168 0.074219l-1.0469-1.0703c-0.10938-0.10156-0.16797-0.24609-0.16797-0.39062 0-0.14844 0.058594-0.28906 0.16797-0.39063 0.21484-0.21094 0.5625-0.21094 0.77734 0l1.0508 1.0703c0.74609 0.73828 1.9453 0.73828 2.6914 0 0.73047-0.74219 0.73047-1.9375 0-2.6797l-2.6016-2.6016c-0.10547-0.10938-0.16406-0.25781-0.16016-0.41016 0.007812-0.15625 0.082031-0.30078 0.19922-0.39844 1.2227-1.0078 2.5312-1.9062 3.9102-2.6797 0.14453-0.058594 0.30859-0.058594 0.44922 0 0.14844 0.050781 0.26562 0.16016 0.33203 0.30078l1.4688 3.3594c0.19141 0.48047 0.56641 0.85938 1.043 1.0586 0.47656 0.19531 1.0117 0.19141 1.4844-0.015625 0.47656-0.20703 0.84375-0.59766 1.0234-1.0781 0.17969-0.48438 0.15234-1.0195-0.070313-1.4844l-1.4688-3.4102c-0.0625-0.14062-0.0625-0.30078 0-0.44141s0.18359-0.25 0.32812-0.30078c1.8594-0.60938 3.7812-1.0117 5.7305-1.1992 0.15234-0.007812 0.30469 0.042969 0.42188 0.14062 0.11328 0.10547 0.17969 0.25391 0.17969 0.41016v3.6719-0.003906c0 1.0508 0.85156 1.9023 1.8984 1.9023 1.0508 0 1.9023-0.85156 1.9023-1.9023v-3.668c-0.003907-0.15625 0.0625-0.30859 0.17969-0.41016 0.11328-0.10156 0.26562-0.15234 0.41797-0.14062 1.5781 0.14844 3.1367 0.44531 4.6602 0.87891 0.14844 0.039063 0.27344 0.14453 0.33984 0.28125 0.066406 0.14063 0.066406 0.30078 0 0.44141l-1.3281 3.4219v-0.003906c-0.36328 0.97266 0.125 2.0547 1.0898 2.4297 0.96484 0.37891 2.0547-0.089844 2.4492-1.0508l1.3281-3.4219v0.003906c0.058593-0.14453 0.17578-0.25781 0.32031-0.3125 0.14062-0.0625 0.30078-0.0625 0.44141 0 1.7461 0.88281 3.3867 1.957 4.8906 3.2031 0.12109 0.09375 0.19141 0.23438 0.19922 0.39062 0.011719 0.15625-0.046875 0.30859-0.16016 0.41797l-2.5898 2.6211c-0.65234 0.75391-0.60938 1.8828 0.09375 2.5859s1.832 0.74609 2.5859 0.09375l2.6016-2.5898c0.10156-0.11328 0.25-0.17969 0.40234-0.17969 0.15625 0 0.30078 0.066406 0.40625 0.17969 1.0078 1.2188 1.9062 2.5273 2.6797 3.9102 0.058594 0.14062 0.058594 0.29687 0 0.4375-0.046875 0.14844-0.15625 0.26953-0.30078 0.33203l-3.2969 1.5195c-0.46484 0.19922-0.82422 0.57812-1 1.0508-0.19141 0.46484-0.19141 0.98438 0 1.4492 0.19531 0.46484 0.57031 0.83594 1.0391 1.0234s0.99609 0.17969 1.4609-0.023438l3.3711-1.4688h-0.003907c0.14063-0.070312 0.30078-0.070312 0.44141 0 0.14062 0.0625 0.25 0.17969 0.30078 0.32812 0.61328 1.8477 1.0234 3.7539 1.2188 5.6914 0.011719 0.15234-0.039062 0.30469-0.14062 0.41797-0.10547 0.11719-0.25391 0.18359-0.41016 0.17969h-3.668c-1.0508 0-1.9023 0.85156-1.9023 1.9023 0 1.0469 0.85156 1.8984 1.9023 1.8984h3.6719-0.003906c0.15625 0 0.30469 0.066406 0.41016 0.17969zm-30.418-15.668c0.13672-0.042969 0.25391-0.14063 0.32031-0.27344 0.066406-0.12891 0.074219-0.28125 0.027343-0.41797-0.042968-0.14062-0.14062-0.25391-0.26953-0.32422-0.12891-0.066406-0.28125-0.078124-0.41797-0.035156-2.7031 0.88281-5.1094 2.4961-6.9531 4.6602-0.11328 0.10547-0.17969 0.25781-0.17578 0.41406s0.074219 0.30469 0.19141 0.40625c0.12109 0.10547 0.27734 0.14844 0.43359 0.12891 0.15625-0.023437 0.29688-0.10938 0.38281-0.23828 1.7148-2.0078 3.9492-3.5039 6.4609-4.3203zm19.801 13.59h-0.003907c0.003907-1.168-0.12891-2.332-0.38672-3.4727-0.023437-0.14844-0.10547-0.28516-0.23437-0.37109-0.125-0.089843-0.28125-0.12109-0.43359-0.085937-0.14844 0.035156-0.27734 0.12891-0.35547 0.26172-0.074219 0.13281-0.09375 0.28906-0.046875 0.4375 0.23828 1.0586 0.35938 2.1445 0.35938 3.2305 0 2.707-0.76172 5.3555-2.2031 7.6484-1.4414 2.2891-3.5 4.1289-5.9375 5.3008-0.1875 0.12891-0.27734 0.35938-0.22656 0.58203 0.054687 0.22266 0.23828 0.39062 0.46484 0.41797 0.078125 0.019531 0.15625 0.019531 0.23047 0 2.6289-1.2617 4.8477-3.2422 6.3984-5.7109 1.5508-2.4688 2.375-5.3242 2.3711-8.2383zm-3.8086-9.3203h-0.003906c0-2.4531-1.4766-4.6602-3.7422-5.5977-2.2617-0.94141-4.8711-0.42187-6.6016 1.3125-1.7344 1.7344-2.2539 4.3398-1.3164 6.6055 0.94141 2.2617 3.1484 3.7383 5.6016 3.7383 3.3438-0.003906 6.0547-2.7148 6.0586-6.0586zm-12.535 35.32h3.6719c0.15625 0 0.30469-0.066406 0.41016-0.17969 0.10156-0.11719 0.14844-0.26953 0.14062-0.42188-0.18359-1.9492-0.58594-3.8711-1.1992-5.7305-0.054687-0.14453-0.16016-0.26562-0.30078-0.32812s-0.30078-0.0625-0.44141 0l-3.3711 1.4805c-0.46094 0.20312-0.98828 0.21094-1.457 0.023437-0.47266-0.1875-0.84375-0.55859-1.043-1.0234-0.19922-0.46484-0.20703-0.99219-0.019532-1.4648 0.1875-0.46875 0.55469-0.84766 1.0195-1.0469l3.3594-1.4688h0.003906c0.14062-0.0625 0.25-0.18359 0.29688-0.33203 0.0625-0.14062 0.0625-0.29688 0-0.4375-0.76953-1.3867-1.668-2.6992-2.6797-3.9219-0.097656-0.11719-0.24219-0.19141-0.39844-0.19922-0.15234-0.003906-0.30078 0.054688-0.41016 0.16016l-2.6016 2.6016c-0.76172 0.68359-1.918 0.68359-2.6797 0-0.73828-0.74609-0.73828-1.9453 0-2.6914l2.5898-2.5898c0.10938-0.11328 0.17188-0.26172 0.17188-0.42188-0.011719-0.15234-0.082032-0.29688-0.19922-0.39844-0.5-0.41016-1-0.80859-1.5703-1.1914-0.11719-0.082031-0.26562-0.11719-0.41016-0.09375-0.14062 0.023438-0.26953 0.10547-0.35156 0.22656-0.085938 0.11719-0.12109 0.26563-0.09375 0.41016 0.023437 0.14453 0.10547 0.27344 0.22266 0.35938 0.35156 0.23828 0.69141 0.5 1 0.76172l-2.1602 2.1719v-0.003907c-1.168 1.1719-1.168 3.0664 0 4.2383 1.1914 1.1289 3.0547 1.1289 4.2422 0l2.1602-2.1602c0.69141 0.875 1.3203 1.793 1.8906 2.75l-2.8008 1.2305c-0.75781 0.30078-1.3633 0.89453-1.6719 1.6484-0.3125 0.75391-0.30078 1.6016 0.023438 2.3477 0.32812 0.74609 0.94531 1.3281 1.7109 1.6094s1.6133 0.24219 2.3477-0.11328l2.8008-1.2305c0.43359 1.4297 0.73438 2.8945 0.89844 4.3789h-3.1016c-1.6562 0-3 1.3438-3 3s1.3438 3 3 3h3.1016c-0.13281 1.1016-0.33984 2.1953-0.62109 3.2695l-2.8516-1.1094h0.003906c-0.74219-0.28906-1.5664-0.26953-2.293 0.058594-1.1016 0.49219-1.8008 1.5977-1.7773 2.8047 0.027343 1.207 0.77734 2.2812 1.8984 2.7266l2.8516 1.1094c-0.69531 1.293-1.4961 2.5234-2.4023 3.6797l-2.207-2.2109c-0.55469-0.59375-1.3281-0.9375-2.1445-0.95312-0.8125-0.015625-1.5977 0.30469-2.1719 0.87891-0.57812 0.57422-0.89453 1.3594-0.87891 2.1758 0.015625 0.8125 0.35938 1.5859 0.95312 2.1406l2.1602 2.1602c-0.87109 0.69141-1.793 1.3203-2.75 1.8906l-1.2305-2.8086v-0.003906c-0.70312-1.4492-2.4258-2.0859-3.9023-1.4375-1.4766 0.64844-2.1797 2.3477-1.5859 3.8477l1.2305 2.7812c-1.4062 0.42578-2.8438 0.72656-4.3008 0.89844v-3.0273c0-1.6562-1.3438-3-3-3s-3 1.3438-3 3v3.0586c-1.1055-0.13281-2.2031-0.33984-3.2812-0.62109l1.1094-2.8516v0.003907c0.34375-0.75 0.36328-1.6094 0.050781-2.375-0.30859-0.76172-0.91797-1.3672-1.6875-1.6641-0.76562-0.30078-1.625-0.27344-2.3711 0.078125-0.74609 0.35156-1.3125 0.99609-1.5703 1.7812l-1.1211 2.8594c-1.293-0.69531-2.5195-1.5-3.668-2.4102l2.1602-2.1602c0.59375-0.55469 0.9375-1.3281 0.95313-2.1406 0.015624-0.81641-0.30469-1.6016-0.87891-2.1758-0.57422-0.57422-1.3594-0.89453-2.1758-0.87891-0.8125 0.015625-1.5859 0.35938-2.1406 0.95312l-2.1602 2.1602c-0.69141-0.87109-1.3203-1.7891-1.8906-2.75l2.8008-1.2305v0.003907c0.61719-0.26953 1.125-0.73828 1.4414-1.332 0.14062-0.26953 0.035157-0.59766-0.23047-0.73828-0.125-0.074218-0.27734-0.09375-0.41797-0.050781s-0.25781 0.14062-0.32422 0.26953c-0.19531 0.375-0.51953 0.67188-0.90625 0.83984l-3.3633 1.5c-0.14062 0.0625-0.25 0.18359-0.29688 0.32812-0.066407 0.14062-0.066407 0.30078 0 0.44141 0.76953 1.3828 1.6641 2.6914 2.6797 3.9102 0.097656 0.12109 0.24219 0.19141 0.39844 0.19922 0.15234 0.003906 0.30078-0.054687 0.41016-0.16016l2.6016-2.5898c0.75-0.65234 1.8789-0.60938 2.5859 0.09375 0.70312 0.70703 0.74609 1.832 0.09375 2.5859l-2.6016 2.6016c-0.10547 0.10938-0.16406 0.25781-0.16016 0.41016 0.007813 0.15625 0.082031 0.30078 0.19922 0.39844 1.5078 1.2461 3.1523 2.3203 4.9023 3.2031 0.13672 0.0625 0.30078 0.0625 0.4375 0 0.14453-0.058594 0.26172-0.16797 0.32031-0.3125l1.3281-3.4297h0.003907c0.17578-0.47656 0.53906-0.86328 1.0039-1.0742 0.46484-0.20703 0.99219-0.21875 1.4648-0.035157 0.47656 0.18359 0.85547 0.55469 1.0586 1.0195 0.19922 0.46875 0.20312 1 0.011719 1.4688l-1.3281 3.4219c-0.066406 0.14062-0.066406 0.30859 0 0.44922 0.066406 0.13672 0.19141 0.24219 0.33984 0.28125 1.5234 0.42969 3.082 0.72656 4.6602 0.87891 0.16406 0.042968 0.33984 0.007812 0.47656-0.089844 0.11719-0.10547 0.18359-0.25391 0.17969-0.41016v-3.7188c0-1.0508 0.85156-1.9023 1.9023-1.9023s1.8984 0.85156 1.8984 1.9023v3.6719-0.003907c0 0.15625 0.066406 0.30859 0.17969 0.41016 0.10156 0.089843 0.23438 0.14062 0.37109 0.14062 1.9453-0.18359 3.8633-0.58594 5.7188-1.1992 0.14844-0.050781 0.26953-0.16016 0.33203-0.30078 0.070312-0.13672 0.070312-0.30078 0-0.44141l-1.4688-3.3711v0.003906c-0.20312-0.46094-0.21484-0.98438-0.03125-1.4492 0.18359-0.46875 0.54297-0.84375 1.0039-1.0469 0.95703-0.41797 2.0742 0.015625 2.4961 0.97656l1.5195 3.3594c0.0625 0.14062 0.18359 0.25 0.32812 0.30078 0.14062 0.058594 0.30078 0.058594 0.44141 0 1.3828-0.77344 2.6914-1.668 3.9102-2.6836 0.125-0.09375 0.19922-0.24219 0.19922-0.39844 0.007813-0.15234-0.046875-0.30469-0.16016-0.41016l-2.5898-2.6016c-0.65234-0.75-0.60938-1.8789 0.09375-2.5859 0.70703-0.70313 1.832-0.74219 2.5859-0.09375l2.6016 2.5898c0.10938 0.10938 0.25781 0.16406 0.41016 0.16016 0.15234-0.003907 0.30078-0.070313 0.39844-0.1875 1.2461-1.5078 2.3203-3.1523 3.2031-4.9023 0.0625-0.13672 0.0625-0.30078 0-0.4375-0.054687-0.14844-0.16797-0.26562-0.3125-0.32031l-3.4219-1.3281 0.003906-0.003906c-0.45312-0.19141-0.80859-0.54688-1-1-0.19922-0.46094-0.19922-0.98438 0-1.4492 0.19141-0.44922 0.55078-0.80469 1-1 0.46094-0.19531 0.98438-0.19531 1.4492 0l3.4297 1.3281v0.003906c0.14063 0.0625 0.30078 0.0625 0.44141 0 0.13672-0.070312 0.23828-0.19141 0.27734-0.33984 0.43359-1.5273 0.72656-3.0859 0.88281-4.6602 0.0625-0.21875-0.003906-0.45312-0.17188-0.60156-0.10547-0.11719-0.25391-0.18359-0.41016-0.17969h-3.6914c-1.0469 0-1.8984-0.85156-1.8984-1.8984 0-1.0508 0.85156-1.9023 1.8984-1.9023zm-21.898 16.188c-4.1055-0.003906-8.0117-1.7695-10.73-4.8477-0.089843-0.13281-0.22656-0.21875-0.38672-0.23828-0.15625-0.019532-0.3125 0.027344-0.42969 0.13281-0.12109 0.10547-0.1875 0.25391-0.1875 0.41016 0 0.16016 0.066406 0.30859 0.18359 0.41406 3.4883 4.0195 8.8047 5.9531 14.059 5.1133 5.2539-0.84375 9.6992-4.3398 11.758-9.2461s1.4375-10.527-1.6445-14.867c-0.17578-0.25-0.51953-0.3125-0.76953-0.14062-0.25391 0.17578-0.31641 0.51953-0.14062 0.76953 1.6953 2.418 2.5898 5.3086 2.5586 8.2617-0.039062 7.8594-6.4102 14.219-14.27 14.238zm-24.59-14.129-1.3281 3.4219h-0.003906c-0.054687 0.14453-0.17188 0.25781-0.31641 0.30859-0.14062 0.066406-0.30078 0.066406-0.44141 0-1.7461-0.87891-3.3867-1.9492-4.8906-3.1992-0.125-0.097656-0.19531-0.24219-0.19922-0.40234-0.007813-0.15234 0.050781-0.30078 0.16016-0.41016l2.6094-2.6172c0.65234-0.75391 0.60938-1.8828-0.09375-2.5859-0.70312-0.70703-1.832-0.74609-2.5859-0.09375l-2.6016 2.5898c-0.10938 0.10547-0.25781 0.16406-0.41016 0.16016-0.15625-0.003906-0.30078-0.078125-0.39844-0.20312-1.0117-1.2188-1.9062-2.5273-2.6797-3.9062-0.058594-0.14062-0.058594-0.30078 0-0.44141 0.046875-0.14844 0.15625-0.26953 0.30078-0.33203l3.3594-1.4805v0.003906c0.46094-0.20312 0.82031-0.58203 1-1.0508 0.1875-0.46484 0.1875-0.98828 0-1.4492-0.20312-0.46094-0.58203-0.82422-1.0508-1-0.46094-0.20312-0.98828-0.20312-1.4492 0l-3.4492 1.5c-0.14062 0.0625-0.30078 0.0625-0.44141 0-0.14062-0.066406-0.25-0.18359-0.30078-0.33203-0.60938-1.8555-1.0117-3.7734-1.1992-5.7188-0.011719-0.15234 0.039062-0.30469 0.14062-0.42188 0.10547-0.11328 0.25391-0.17969 0.41016-0.17969h3.668c1.0508 0 1.9023-0.85156 1.9023-1.8984 0-1.0508-0.85156-1.9023-1.9023-1.9023h-3.668c-0.15625 0-0.30469-0.0625-0.41016-0.17578-0.10156-0.11719-0.15625-0.26953-0.14062-0.42188 0.15234-1.5781 0.44922-3.1367 0.87891-4.6602 0.039063-0.15234 0.14062-0.27734 0.28125-0.33984 0.14453-0.058594 0.30469-0.058594 0.44922 0l3.3906 1.3086c0.97656 0.375 2.0742-0.10547 2.4609-1.0781 0.19531-0.46484 0.19531-0.98828 0-1.4531-0.1875-0.45313-0.54688-0.8125-1-1l-3.4609-1.3398c-0.14844-0.050782-0.26562-0.16406-0.32812-0.30859-0.066406-0.14062-0.066406-0.30078 0-0.44141 0.87891-1.7461 1.9531-3.3906 3.1992-4.8984 0.097656-0.12109 0.24219-0.19141 0.39844-0.19922 0.15234-0.003907 0.30078 0.054687 0.41016 0.16016l2.6016 2.6016v-0.003906c0.74609 0.75391 1.957 0.75781 2.707 0.011719 0.75391-0.74609 0.75781-1.9609 0.011719-2.7109l-2.5898-2.5898c-0.11328-0.10938-0.17188-0.26172-0.16016-0.41797 0.007812-0.15234 0.082031-0.29688 0.19922-0.39062 1.2188-1.0156 2.5273-1.9102 3.9102-2.6797 0.14062-0.066406 0.30078-0.066406 0.44141 0 0.14844 0.042969 0.26953 0.15234 0.32812 0.29688l1.4805 3.3594v0.003906c0.30859 0.70313 1.0078 1.1523 1.7773 1.1367 0.76953-0.019531 1.4492-0.5 1.7227-1.2188 0.19531-0.46484 0.19531-0.98438 0-1.4492l-1.4805-3.3594c-0.058594-0.14453-0.058594-0.30859 0-0.44922 0.0625-0.14453 0.18359-0.25391 0.33203-0.30078 1.8555-0.60938 3.7734-1.0078 5.7188-1.1914 0.15234-0.011719 0.30469 0.039063 0.42187 0.14062 0.11719 0.10156 0.18359 0.25391 0.17969 0.41016v3.6719-0.003907c0 1.0508 0.84766 1.9023 1.8984 1.9023 1.0508 0 1.8984-0.85156 1.8984-1.9023v-3.707c0.003906-0.15625 0.066406-0.30469 0.18359-0.41016 0.11328-0.10547 0.26562-0.15625 0.41797-0.14062 1.5781 0.14844 3.1367 0.44141 4.6602 0.87109 0.15234 0.042969 0.27734 0.14844 0.35156 0.28906 0.054688 0.14062 0.054688 0.29688 0 0.4375l-1.3398 3.4219c-0.36328 0.97266 0.125 2.0547 1.0898 2.4297 0.96484 0.37891 2.0547-0.089844 2.4492-1.0508l1.3281-3.4219v0.003907c0.0625-0.14453 0.17578-0.25391 0.32031-0.3125 0.14063-0.0625 0.30078-0.0625 0.44141 0 1.75 0.87891 3.3945 1.9531 4.8984 3.2031 0.12109 0.09375 0.19531 0.23438 0.19922 0.38672 0.011719 0.16016-0.046875 0.3125-0.15625 0.42188l-2.6016 2.5898c-0.35547 0.35938-0.55469 0.84375-0.55078 1.3516-0.003906 0.5 0.19531 0.98438 0.55078 1.3398 0.74609 0.73828 1.9453 0.73828 2.6914 0l2.5898-2.6016c0.10938-0.10938 0.26172-0.16406 0.41797-0.16016 0.15625 0.007812 0.30078 0.082031 0.40234 0.19922 1.0039 1.2266 1.8945 2.5391 2.668 3.9219 0.074218 0.13281 0.089844 0.29688 0.039062 0.44141-0.046875 0.14844-0.15625 0.26562-0.30078 0.32812l-3.3594 1.4688c-0.46484 0.19922-0.83594 0.57422-1.0234 1.0469-0.1875 0.47266-0.17969 1 0.023438 1.4648 0.19922 0.46094 0.57812 0.82422 1.0508 1 0.46484 0.1875 0.98438 0.1875 1.4492 0l3.3594-1.4805c0.14453-0.066406 0.30859-0.066406 0.45312 0 0.13672 0.0625 0.24609 0.17578 0.29688 0.32031 0.61328 1.8594 1.0117 3.7812 1.1914 5.7305 0.019531 0.15234-0.03125 0.30859-0.14062 0.41797-0.10156 0.11328-0.24609 0.17969-0.39844 0.17969h-3.6719c-1.0469 0-1.8984 0.85156-1.8984 1.9023 0 1.0469 0.85156 1.8984 1.8984 1.8984h3.6719c0.15625-0.003906 0.30859 0.0625 0.41016 0.17969 0.10938 0.11328 0.16016 0.26562 0.14062 0.42188-0.15234 1.5742-0.44141 3.1328-0.87109 4.6602-0.042968 0.14844-0.14844 0.27344-0.28906 0.33984-0.14062 0.0625-0.30078 0.0625-0.44141 0l-3.4219-1.3281 0.003907-0.003907c-0.46484-0.19531-0.98828-0.19531-1.4531 0-0.70312 0.30859-1.1523 1.0117-1.1367 1.7812 0.015625 0.76563 0.49219 1.4492 1.207 1.7305l3.4219 1.3281c0.14453 0.054688 0.26172 0.16797 0.31641 0.31641 0.054687 0.14453 0.046874 0.30859-0.027344 0.44531-0.87891 1.7461-1.9492 3.3867-3.1914 4.8984-0.10156 0.11719-0.24609 0.18359-0.39844 0.19141-0.15625 0.003906-0.30859-0.054688-0.42188-0.16016l-2.5781-2.5391c-0.74609-0.73828-1.9453-0.73828-2.6914 0-0.73047 0.74219-0.73047 1.9336 0 2.6797l2.6016 2.6016v-0.003906c0.10547 0.10938 0.16406 0.25781 0.16016 0.41016-0.007812 0.15625-0.082031 0.30078-0.19922 0.40234-1.2109 1.0039-2.5039 1.9023-3.8711 2.6797-0.14453 0.058594-0.30469 0.058594-0.44922 0-0.14844-0.050781-0.26562-0.16016-0.33203-0.30078l-1.5195-3.3203c-0.1875-0.48047-0.56641-0.86328-1.043-1.0586-0.47656-0.19922-1.0117-0.19141-1.4844 0.015625s-0.83984 0.59375-1.0195 1.0781c-0.17969 0.48438-0.15625 1.0195 0.066406 1.4844l1.4805 3.3711c0.0625 0.14063 0.0625 0.30078 0 0.44141s-0.18359 0.24609-0.32812 0.29688c-1.8594 0.61328-3.7812 1.0156-5.7305 1.2031-0.13672-0.003907-0.26953-0.050781-0.37109-0.14062-0.13672-0.082032-0.23438-0.21484-0.26953-0.37109v-3.7109c0-1.0469-0.85156-1.8984-1.8984-1.8984-1.0508 0-1.9023 0.85156-1.9023 1.8984v3.7109c0.003906 0.15625-0.0625 0.30469-0.17969 0.41016-0.11328 0.10156-0.26562 0.15234-0.41797 0.14062-1.5586-0.17188-3.0977-0.48047-4.6016-0.92188-0.14844-0.039062-0.27344-0.14062-0.33984-0.27734-0.066406-0.14453-0.066406-0.30859 0-0.45312l1.3398-3.418c0.19531-0.46484 0.19531-0.98828 0-1.4492-0.30859-0.70312-1.0117-1.1523-1.7812-1.1328-0.76953 0.015624-1.4492 0.49609-1.7305 1.2109zm-5.6484-25.25c0.003906 2.4492 1.4805 4.6562 3.7461 5.5938 2.2656 0.93359 4.8711 0.41406 6.6016-1.3203 1.7305-1.7344 2.2461-4.3398 1.3086-6.6055-0.9375-2.2617-3.1484-3.7383-5.5977-3.7383-3.3477 0.007813-6.0586 2.7227-6.0586 6.0703zm15.379 20.898v0.003907c5.4961 0 10.578-2.9336 13.328-7.6953 2.75-4.7617 2.75-10.629 0-15.391s-7.832-7.6953-13.328-7.6953c-1.168-0.003907-2.332 0.13281-3.4688 0.39844-0.14453 0.03125-0.26953 0.11328-0.34766 0.23828-0.078125 0.12109-0.10156 0.27344-0.0625 0.41406 0.03125 0.14062 0.11719 0.26953 0.24219 0.34766 0.12109 0.078125 0.27344 0.10547 0.41797 0.070313 1.0547-0.24609 2.1328-0.37109 3.2188-0.37109 5.375 0 10.293 3.0156 12.734 7.8047 2.4414 4.7891 1.9883 10.539-1.1719 14.887-3.1602 4.3477-8.4922 6.5547-13.801 5.7148-5.3086-0.84375-9.6953-4.5938-11.352-9.7031-0.097656-0.28906-0.40234-0.44531-0.69141-0.35156-0.13672 0.042968-0.25391 0.14062-0.32422 0.26953-0.066406 0.12891-0.078125 0.28125-0.035156 0.42188 1 3.0938 2.957 5.793 5.5859 7.7031 2.6328 1.9141 5.8008 2.9414 9.0547 2.9375z"/>

    </g></svg>