<svg xmlns="http://www.w3.org/2000/svg" xmlns:xlink="http://www.w3.org/1999/xlink" width="400" height="400" viewBox="0 0 400 400">
<g data-name="business_name_slogan_group" transform=" translate(0, -49.164772033691406)"><g data-name="business_name" fill="#000000" data="id:373" transform="translate(59.687709099528995,207.0740921453235) scale(0.7994646442114656)"><path d="M0.390625,26.93359375l0.37109375-7.890625l7.48046875,0l0,0.25390625l-0.44921875,0.0390625q-3.2421875,0.1171875-4.755859375,1.77734375t-2.470703125,5.8984375z M14.31640625,42.16796875q0,3.046875,0.498046875,4.19921875t1.630859375,1.4453125l0,0.15625l-7.63671875,0l0-0.15625q1.07421875-0.2734375,1.591796875-1.455078125t0.517578125-4.189453125l0-23.125l3.3984375,0l0,23.125z M24.47265625,19.04296875l0.37109375,7.890625l-0.1171875,0.078125q-0.95703125-4.19921875-2.51953125-5.87890625t-4.765625-1.796875l-0.41015625-0.0390625l0-0.25390625l7.44140625,0z M27.67578125,37.40234375q0-4.31640625,2.34375-7.275390625t5.9375-3.388671875l0,0.15625q-2.20703125,0.56640625-3.642578125,2.978515625t-1.435546875,5.849609375q0,4.609375,2.40234375,7.28515625t6.11328125,2.67578125q3.515625,0,5.68359375-2.44140625l0.1171875,0.078125q-0.87890625,2.24609375-2.900390625,3.564453125t-4.775390625,1.318359375q-4.31640625,0-7.080078125-3.056640625t-2.763671875-7.744140625z M33.4765625,35.72265625l-0.0390625-0.1953125l8.59375-0.234375q0.15625-0.64453125,0.15625-1.875q0-5.68359375-3.6328125-6.5234375l0-0.15625q3.0859375,0.3515625,4.78515625,2.490234375t1.69921875,5.029296875q0,0.91796875-0.15625,1.46484375l-11.40625,0z M55.625,43.45703125q0,2.32421875,0.458984375,3.193359375t1.611328125,1.201171875l0,0.1171875l-7.2265625,0l0-0.1171875q1.19140625-0.3515625,1.611328125-1.201171875t0.419921875-3.193359375l0-10.33203125q0-2.51953125-0.439453125-3.53515625t-1.513671875-1.42578125l0.0390625-0.078125q3.0859375-0.234375,5.3125-1.484375l0.078125,0.078125q-0.3515625,1.71875-0.3515625,6.4453125l0,10.33203125z M69.140625,43.45703125q0,2.36328125,0.419921875,3.193359375t1.630859375,1.201171875l0,0.1171875l-7.24609375,0l0-0.1171875q1.19140625-0.3125,1.650390625-1.220703125t0.458984375-3.173828125l0-8.88671875q0-3.0078125-1.171875-4.560546875t-3.33984375-1.552734375q-2.24609375,0-3.515625,1.42578125l-0.078125-0.0390625q0.52734375-1.2890625,1.982421875-2.265625t3.369140625-0.9765625q2.71484375,0,4.27734375,1.884765625t1.5625,4.970703125l0,10z M82.6953125,43.45703125q0,2.36328125,0.419921875,3.193359375t1.630859375,1.201171875l0,0.1171875l-7.24609375,0l0-0.1171875q1.15234375-0.3125,1.62109375-1.201171875t0.46875-3.193359375l0-8.88671875q0-3.0078125-1.181640625-4.560546875t-3.349609375-1.552734375q-2.32421875,0-3.671875,1.42578125l-0.0390625-0.0390625q0.52734375-1.2890625,2.001953125-2.265625t3.466796875-0.9765625q2.71484375,0,4.296875,1.884765625t1.58203125,4.970703125l0,10z M95.078125,40.44921875q0,6.640625,4.19921875,7.48046875l0,0.1953125q-2.44140625-0.3515625-4.19921875-1.8359375l0,6.484375q0,2.28515625,0.48828125,3.18359375t1.6796875,1.2109375l0,0.1171875l-7.32421875,0l0-0.1171875q1.19140625-0.3515625,1.62109375-1.19140625t0.4296875-3.203125l0-19.6484375q0-2.51953125-0.439453125-3.53515625t-1.533203125-1.42578125l0.0390625-0.078125q3.046875-0.234375,5.33203125-1.484375l0.078125,0.078125q-0.3515625,1.71875-0.37109375,6.4453125l0,7.32421875z M102.59765625,26.6015625q3.4765625,0,5.625,2.783203125t2.1484375,7.138671875q0,5.3515625-2.36328125,8.26171875t-6.11328125,3.33984375l0-0.1953125q2.36328125-0.44921875,3.740234375-3.046875t1.376953125-7.265625q0-4.51171875-1.66015625-6.8359375t-4.55078125-2.32421875q-2.0703125,0-3.3203125,1.42578125l-0.078125-0.0390625q0.60546875-1.328125,1.962890625-2.28515625t3.232421875-0.95703125z M120.625,43.45703125q0,2.36328125,0.439453125,3.212890625t1.611328125,1.181640625l0,0.1171875l-7.16796875,0l0-0.1171875q1.19140625-0.3515625,1.6015625-1.201171875t0.41015625-3.193359375l0-20.9765625q0-2.51953125-0.439453125-3.5546875t-1.533203125-1.40625l0.0390625-0.1171875q3.0859375-0.1953125,5.33203125-1.42578125l0.078125,0.0390625q-0.3515625,2.40234375-0.37109375,6.46484375l0,20.9765625z M127.265625,37.40234375q0-4.31640625,2.34375-7.275390625t5.9375-3.388671875l0,0.15625q-2.20703125,0.56640625-3.642578125,2.978515625t-1.435546875,5.849609375q0,4.609375,2.40234375,7.28515625t6.11328125,2.67578125q3.515625,0,5.68359375-2.44140625l0.1171875,0.078125q-0.87890625,2.24609375-2.900390625,3.564453125t-4.775390625,1.318359375q-4.31640625,0-7.080078125-3.056640625t-2.763671875-7.744140625z M133.06640625,35.72265625l-0.0390625-0.1953125l8.59375-0.234375q0.15625-0.64453125,0.15625-1.875q0-5.68359375-3.6328125-6.5234375l0-0.15625q3.0859375,0.3515625,4.78515625,2.490234375t1.69921875,5.029296875q0,0.91796875-0.15625,1.46484375l-11.40625,0z M161.4453125,44.375l0.1171875,0.0390625q-0.1953125,1.40625-1.513671875,2.59765625t-3.310546875,1.19140625q-2.71484375,0-4.19921875-1.66015625t-1.484375-4.94140625l0-14.27734375l-1.40625,0l0-0.234375q1.03515625-0.44921875,2.34375-1.6015625t1.89453125-2.12890625l0.15625,0.09765625l0,3.3984375l6.5234375,0l0,0.46875l-6.5234375,0l0,13.92578125q0,5.44921875,3.76953125,5.4296875q2.67578125,0.01953125,3.6328125-2.3046875z  M172.63671875,25.83984375q0-2.63671875,2.080078125-4.677734375t5.400390625-2.431640625l0,0.234375q-2.12890625,0.44921875-3.408203125,1.845703125t-1.279296875,3.447265625q0,1.6015625,0.83984375,2.8515625t2.177734375,2.119140625t2.958984375,1.640625t3.22265625,1.630859375t2.939453125,1.884765625t2.177734375,2.587890625t0.83984375,3.515625q0,2.83203125-2.197265625,5.09765625t-6.630859375,2.578125l0-0.234375q2.96875-0.3125,4.365234375-2.021484375t1.396484375-3.935546875q0-2.36328125-1.54296875-4.08203125t-3.720703125-2.802734375t-4.365234375-2.177734375t-3.720703125-2.861328125t-1.533203125-4.208984375z M182.75390625,18.96484375l0-0.234375q4.00390625,0.3515625,6.6796875,2.51953125l-0.83984375,6.640625l-0.15625,0.0390625q-0.76171875-8.0078125-5.68359375-8.96484375z M171.7578125,45.64453125l0.87890625-6.5625l0.1171875-0.0390625q0.99609375,7.9296875,6.34765625,8.88671875l0,0.234375q-2.32421875-0.1953125-4.296875-0.95703125t-3.046875-1.5625z M194.86328125,37.40234375q0-4.19921875,2.421875-7.236328125t6.3671875-3.486328125l0,0.21484375q-2.44140625,0.56640625-3.896484375,3.41796875t-1.455078125,7.08984375q0.0390625,4.47265625,1.46484375,7.236328125t3.88671875,3.330078125l0,0.1953125q-4.04296875-0.44921875-6.416015625-3.388671875t-2.373046875-7.373046875z M206.26953125,26.89453125l0-0.21484375q3.92578125,0.48828125,6.318359375,3.525390625t2.392578125,7.197265625q0,4.39453125-2.3828125,7.34375t-6.328125,3.41796875l0-0.1953125q2.44140625-0.56640625,3.857421875-3.33984375t1.416015625-7.2265625q0-4.19921875-1.435546875-7.03125t-3.837890625-3.4765625z M225.25390625,43.45703125q0,2.36328125,0.439453125,3.212890625t1.611328125,1.181640625l0,0.1171875l-7.16796875,0l0-0.1171875q1.19140625-0.3515625,1.6015625-1.201171875t0.41015625-3.193359375l0-20.9765625q0-2.51953125-0.439453125-3.5546875t-1.533203125-1.40625l0.0390625-0.1171875q3.0859375-0.1953125,5.33203125-1.42578125l0.078125,0.0390625q-0.3515625,2.40234375-0.37109375,6.46484375l0,20.9765625z M241.85546875,46.3671875q2.24609375,0,3.515625-1.4453125l0.0390625,0.078125q-0.56640625,1.23046875-1.982421875,2.216796875t-3.330078125,0.986328125q-2.9296875,0-4.62890625-1.85546875t-1.69921875-4.94140625l0-8.28125q0-2.51953125-0.439453125-3.53515625t-1.552734375-1.42578125l0.078125-0.078125q3.046875-0.234375,5.3125-1.484375l0.0390625,0.078125q-0.3515625,2.28515625-0.3515625,6.4453125l0,7.12890625q0,3.0078125,1.298828125,4.560546875t3.701171875,1.552734375z M250.8984375,42.08984375q0,2.55859375,0.419921875,3.49609375t1.494140625,1.30859375l0,0.1171875q-2.32421875,0.0390625-4.9609375,1.23046875l-0.078125-0.078125l0-15.0390625q0-2.51953125-0.439453125-3.53515625t-1.513671875-1.42578125l0.0390625-0.078125q3.046875-0.234375,5.3125-1.484375l0.078125,0.078125q-0.3515625,1.71875-0.3515625,6.4453125l0,8.96484375z M269.43359375,44.375l0.1171875,0.0390625q-0.1953125,1.40625-1.513671875,2.59765625t-3.310546875,1.19140625q-2.71484375,0-4.19921875-1.66015625t-1.484375-4.94140625l0-14.27734375l-1.40625,0l0-0.234375q1.03515625-0.44921875,2.34375-1.6015625t1.89453125-2.12890625l0.15625,0.09765625l0,3.3984375l6.5234375,0l0,0.46875l-6.5234375,0l0,13.92578125q0,5.44921875,3.76953125,5.4296875q2.67578125,0.01953125,3.6328125-2.3046875z M275.87890625,23.359375q-1.03515625,0-1.71875-0.556640625t-0.68359375-1.435546875q0-0.91796875,0.654296875-1.474609375t1.748046875-0.556640625q1.03515625,0,1.69921875,0.556640625t0.6640625,1.474609375q0,0.87890625-0.6640625,1.435546875t-1.69921875,0.556640625z M277.59765625,43.45703125q0,2.36328125,0.419921875,3.212890625t1.572265625,1.181640625l0,0.1171875l-7.1484375,0l0-0.1171875q1.19140625-0.3515625,1.611328125-1.201171875t0.419921875-3.193359375l0-10.33203125q0-2.51953125-0.439453125-3.53515625t-1.513671875-1.42578125l0.0390625-0.078125q3.046875-0.234375,5.3125-1.484375l0.078125,0.078125q-0.3515625,1.71875-0.3515625,6.4453125l0,10.33203125z M284.62890625,37.40234375q0-4.19921875,2.421875-7.236328125t6.3671875-3.486328125l0,0.21484375q-2.44140625,0.56640625-3.896484375,3.41796875t-1.455078125,7.08984375q0.0390625,4.47265625,1.46484375,7.236328125t3.88671875,3.330078125l0,0.1953125q-4.04296875-0.44921875-6.416015625-3.388671875t-2.373046875-7.373046875z M296.03515625,26.89453125l0-0.21484375q3.92578125,0.48828125,6.318359375,3.525390625t2.392578125,7.197265625q0,4.39453125-2.3828125,7.34375t-6.328125,3.41796875l0-0.1953125q2.44140625-0.56640625,3.857421875-3.33984375t1.416015625-7.2265625q0-4.19921875-1.435546875-7.03125t-3.837890625-3.4765625z M315.390625,43.45703125q0,2.32421875,0.458984375,3.193359375t1.611328125,1.201171875l0,0.1171875l-7.2265625,0l0-0.1171875q1.19140625-0.3515625,1.611328125-1.201171875t0.419921875-3.193359375l0-10.33203125q0-2.51953125-0.439453125-3.53515625t-1.513671875-1.42578125l0.0390625-0.078125q3.0859375-0.234375,5.3125-1.484375l0.078125,0.078125q-0.3515625,1.71875-0.3515625,6.4453125l0,10.33203125z M329.39453125,43.45703125q0,2.36328125,0.419921875,3.193359375t1.611328125,1.201171875l0,0.1171875l-7.24609375,0l0-0.1171875q1.19140625-0.3125,1.66015625-1.220703125t0.46875-3.173828125l0-8.88671875q0-3.0078125-1.298828125-4.560546875t-3.701171875-1.552734375q-2.24609375,0-3.515625,1.42578125l-0.078125-0.0390625q0.52734375-1.2890625,1.982421875-2.265625t3.369140625-0.9765625q2.9296875,0,4.62890625,1.884765625t1.69921875,4.970703125l0,10z M337.0703125,32.40234375q0-2.16796875,1.455078125-3.740234375t3.935546875-1.923828125l0,0.15625q-1.328125,0.390625-2.099609375,1.455078125t-0.771484375,2.412109375q0,1.5625,1.1328125,2.744140625t2.75390625,1.982421875t3.2421875,1.640625t2.763671875,2.177734375t1.142578125,3.134765625q0,2.24609375-1.54296875,3.76953125t-4.21875,1.9140625l0-0.1953125q3.046875-0.68359375,3.046875-4.00390625q0-1.5234375-1.123046875-2.67578125t-2.724609375-1.953125t-3.18359375-1.640625t-2.6953125-2.16796875t-1.11328125-3.0859375z M345.05859375,26.89453125l0-0.15625q3.125,0.390625,4.8828125,1.953125l-0.99609375,4.84375l-0.078125,0q-0.83984375-5.72265625-3.80859375-6.640625z M336.42578125,46.25l0.83984375-4.921875l0.078125,0q0.48828125,2.9296875,1.865234375,4.58984375t3.056640625,2.01171875l0,0.1953125q-3.5546875-0.3515625-5.83984375-1.875z"/></g><g data-name="slogan" fill="#000000" data="id:373" transform="translate(104.68016573531376,256.8266091101164) scale(0.3756079282461557)"><path d="M2.71484375,19.19921875l0-0.15625l5.33203125,0l0,28.92578125l-5.33203125,0l0-0.15625q0.99609375-0.2734375,1.46484375-1.455078125t0.46875-4.189453125l0-17.32421875q0-3.0078125-0.46875-4.189453125t-1.46484375-1.455078125z M21.328125,27.01171875q-0.99609375-4.16015625-2.685546875-5.76171875t-5.283203125-1.796875l-2.67578125-0.15625l0-0.25390625l10.390625,0l0.37109375,7.890625z M12.67578125,32.65625q3.0078125-0.1171875,4.169921875-0.9375t1.630859375-2.71484375l0.1171875,0l0,8.203125l-0.1171875,0q-0.48828125-2.20703125-1.66015625-3.203125t-4.140625-1.03515625l-1.953125-0.0390625l0-0.234375z M22.75390625,39.8046875l0.1171875,0.078125l-0.87890625,8.0859375l-11.30859375,0l0-0.234375l2.75390625-0.15625q3.76953125-0.1953125,5.927734375-1.884765625t3.388671875-5.888671875z M33.4765625,43.45703125q0,2.32421875,0.458984375,3.193359375t1.611328125,1.201171875l0,0.1171875l-7.2265625,0l0-0.1171875q1.19140625-0.3515625,1.611328125-1.201171875t0.419921875-3.193359375l0-10.33203125q0-2.51953125-0.439453125-3.53515625t-1.513671875-1.42578125l0.0390625-0.078125q3.0859375-0.234375,5.3125-1.484375l0.078125,0.078125q-0.3515625,1.71875-0.3515625,6.4453125l0,10.33203125z M47.48046875,43.45703125q0,2.36328125,0.419921875,3.193359375t1.611328125,1.201171875l0,0.1171875l-7.24609375,0l0-0.1171875q1.19140625-0.3125,1.66015625-1.220703125t0.46875-3.173828125l0-8.88671875q0-3.0078125-1.298828125-4.560546875t-3.701171875-1.552734375q-2.24609375,0-3.515625,1.42578125l-0.078125-0.0390625q0.52734375-1.2890625,1.982421875-2.265625t3.369140625-0.9765625q2.9296875,0,4.62890625,1.884765625t1.69921875,4.970703125l0,10z M70.46875,22.7734375l0.0390625-0.078125l2.63671875-0.87890625q0.76171875,0.95703125,0.76171875,2.1875q0,1.19140625-0.91796875,2.001953125t-2.40234375,1.044921875l-0.1171875-0.078125q0.68359375-0.80078125,0.68359375-2.041015625t-0.68359375-2.158203125z M55.3515625,34.609375q0-3.203125,2.021484375-5.341796875t5.341796875-2.529296875l0,0.15625q-1.9140625,0.48828125-2.958984375,2.44140625t-1.005859375,5.2734375q0.0390625,6.19140625,3.96484375,7.24609375l0,0.15625q-3.3203125-0.3125-5.341796875-2.353515625t-2.021484375-5.048828125z M65.3125,42.01171875l0-0.15625q3.80859375-1.03515625,3.92578125-7.36328125q0.0390625-3.28125-1.005859375-5.205078125t-2.919921875-2.392578125l0-0.15625q3.28125,0.3515625,5.302734375,2.490234375t2.021484375,5.263671875q0,3.046875-2.021484375,5.107421875t-5.302734375,2.412109375z M55.3125,44.765625q1.6015625-0.76171875,2.94921875-1.953125l0.13671875,0.1171875q-0.76171875,0.99609375-0.76171875,1.71875q0,1.328125,1.9921875,1.328125l8.203125,0q3.2421875,0,4.90234375,1.455078125t1.66015625,3.740234375q0,2.55859375-2.3046875,4.4140625t-6.69921875,2.0703125l0-0.21484375q3.3203125-0.1953125,5.1953125-1.591796875t1.875-3.369140625q0-3.80859375-5.5859375-3.7890625l-7.32421875,0q-4.23828125,0-4.23828125-3.92578125z M54.140625,52.8125q0-1.11328125,0.888671875-1.8359375t2.197265625-0.80078125l0.0390625,0.078125q-0.64453125,0.95703125-0.64453125,2.32421875q0,2.0703125,1.5625,3.349609375t4.609375,1.513671875l0,0.21484375q-4.47265625-0.1953125-6.5625-1.640625t-2.08984375-3.203125z M81.30859375,23.359375q-1.03515625,0-1.71875-0.556640625t-0.68359375-1.435546875q0-0.91796875,0.654296875-1.474609375t1.748046875-0.556640625q1.03515625,0,1.69921875,0.556640625t0.6640625,1.474609375q0,0.87890625-0.6640625,1.435546875t-1.69921875,0.556640625z M83.02734375,43.45703125q0,2.36328125,0.419921875,3.212890625t1.572265625,1.181640625l0,0.1171875l-7.1484375,0l0-0.1171875q1.19140625-0.3515625,1.611328125-1.201171875t0.419921875-3.193359375l0-10.33203125q0-2.51953125-0.439453125-3.53515625t-1.513671875-1.42578125l0.0390625-0.078125q3.046875-0.234375,5.3125-1.484375l0.078125,0.078125q-0.3515625,1.71875-0.3515625,6.4453125l0,10.33203125z M95.8203125,43.45703125q0,2.32421875,0.458984375,3.193359375t1.611328125,1.201171875l0,0.1171875l-7.2265625,0l0-0.1171875q1.19140625-0.3515625,1.611328125-1.201171875t0.419921875-3.193359375l0-10.33203125q0-2.51953125-0.439453125-3.53515625t-1.513671875-1.42578125l0.0390625-0.078125q3.0859375-0.234375,5.3125-1.484375l0.078125,0.078125q-0.3515625,1.71875-0.3515625,6.4453125l0,10.33203125z M109.82421875,43.45703125q0,2.36328125,0.419921875,3.193359375t1.611328125,1.201171875l0,0.1171875l-7.24609375,0l0-0.1171875q1.19140625-0.3125,1.66015625-1.220703125t0.46875-3.173828125l0-8.88671875q0-3.0078125-1.298828125-4.560546875t-3.701171875-1.552734375q-2.24609375,0-3.515625,1.42578125l-0.078125-0.0390625q0.52734375-1.2890625,1.982421875-2.265625t3.369140625-0.9765625q2.9296875,0,4.62890625,1.884765625t1.69921875,4.970703125l0,10z M116.85546875,37.40234375q0-4.31640625,2.34375-7.275390625t5.9375-3.388671875l0,0.15625q-2.20703125,0.56640625-3.642578125,2.978515625t-1.435546875,5.849609375q0,4.609375,2.40234375,7.28515625t6.11328125,2.67578125q3.515625,0,5.68359375-2.44140625l0.1171875,0.078125q-0.87890625,2.24609375-2.900390625,3.564453125t-4.775390625,1.318359375q-4.31640625,0-7.080078125-3.056640625t-2.763671875-7.744140625z M122.65625,35.72265625l-0.0390625-0.1953125l8.59375-0.234375q0.15625-0.64453125,0.15625-1.875q0-5.68359375-3.6328125-6.5234375l0-0.15625q3.0859375,0.3515625,4.78515625,2.490234375t1.69921875,5.029296875q0,0.91796875-0.15625,1.46484375l-11.40625,0z M139.04296875,37.40234375q0-4.31640625,2.34375-7.275390625t5.9375-3.388671875l0,0.15625q-2.20703125,0.56640625-3.642578125,2.978515625t-1.435546875,5.849609375q0,4.609375,2.40234375,7.28515625t6.11328125,2.67578125q3.515625,0,5.68359375-2.44140625l0.1171875,0.078125q-0.87890625,2.24609375-2.900390625,3.564453125t-4.775390625,1.318359375q-4.31640625,0-7.080078125-3.056640625t-2.763671875-7.744140625z M144.84375,35.72265625l-0.0390625-0.1953125l8.59375-0.234375q0.15625-0.64453125,0.15625-1.875q0-5.68359375-3.6328125-6.5234375l0-0.15625q3.0859375,0.3515625,4.78515625,2.490234375t1.69921875,5.029296875q0,0.91796875-0.15625,1.46484375l-11.40625,0z M166.9921875,43.45703125q0,2.32421875,0.517578125,3.193359375t1.923828125,1.201171875l0,0.1171875l-7.59765625,0l0-0.1171875q1.19140625-0.3515625,1.611328125-1.201171875t0.419921875-3.193359375l0-10.33203125q0-2.51953125-0.439453125-3.53515625t-1.513671875-1.42578125l0.0390625-0.078125q3.046875-0.234375,5.3125-1.484375l0.078125,0.078125q-0.3515625,1.71875-0.3515625,6.4453125l0,10.33203125z M173.671875,26.6015625q1.19140625,0,2.03125,0.60546875l-0.625,2.59765625l-0.13671875,0q-0.76171875-0.68359375-2.34375-0.68359375q-2.12890625,0-3.28125,1.97265625l-0.078125-0.0390625q0.3515625-1.9921875,1.552734375-3.22265625t2.880859375-1.23046875z M181.9921875,23.359375q-1.03515625,0-1.71875-0.556640625t-0.68359375-1.435546875q0-0.91796875,0.654296875-1.474609375t1.748046875-0.556640625q1.03515625,0,1.69921875,0.556640625t0.6640625,1.474609375q0,0.87890625-0.6640625,1.435546875t-1.69921875,0.556640625z M183.7109375,43.45703125q0,2.36328125,0.419921875,3.212890625t1.572265625,1.181640625l0,0.1171875l-7.1484375,0l0-0.1171875q1.19140625-0.3515625,1.611328125-1.201171875t0.419921875-3.193359375l0-10.33203125q0-2.51953125-0.439453125-3.53515625t-1.513671875-1.42578125l0.0390625-0.078125q3.046875-0.234375,5.3125-1.484375l0.078125,0.078125q-0.3515625,1.71875-0.3515625,6.4453125l0,10.33203125z M196.50390625,43.45703125q0,2.32421875,0.458984375,3.193359375t1.611328125,1.201171875l0,0.1171875l-7.2265625,0l0-0.1171875q1.19140625-0.3515625,1.611328125-1.201171875t0.419921875-3.193359375l0-10.33203125q0-2.51953125-0.439453125-3.53515625t-1.513671875-1.42578125l0.0390625-0.078125q3.0859375-0.234375,5.3125-1.484375l0.078125,0.078125q-0.3515625,1.71875-0.3515625,6.4453125l0,10.33203125z M210.5078125,43.45703125q0,2.36328125,0.419921875,3.193359375t1.611328125,1.201171875l0,0.1171875l-7.24609375,0l0-0.1171875q1.19140625-0.3125,1.66015625-1.220703125t0.46875-3.173828125l0-8.88671875q0-3.0078125-1.298828125-4.560546875t-3.701171875-1.552734375q-2.24609375,0-3.515625,1.42578125l-0.078125-0.0390625q0.52734375-1.2890625,1.982421875-2.265625t3.369140625-0.9765625q2.9296875,0,4.62890625,1.884765625t1.69921875,4.970703125l0,10z M233.49609375,22.7734375l0.0390625-0.078125l2.63671875-0.87890625q0.76171875,0.95703125,0.76171875,2.1875q0,1.19140625-0.91796875,2.001953125t-2.40234375,1.044921875l-0.1171875-0.078125q0.68359375-0.80078125,0.68359375-2.041015625t-0.68359375-2.158203125z M218.37890625,34.609375q0-3.203125,2.021484375-5.341796875t5.341796875-2.529296875l0,0.15625q-1.9140625,0.48828125-2.958984375,2.44140625t-1.005859375,5.2734375q0.0390625,6.19140625,3.96484375,7.24609375l0,0.15625q-3.3203125-0.3125-5.341796875-2.353515625t-2.021484375-5.048828125z M228.33984375,42.01171875l0-0.15625q3.80859375-1.03515625,3.92578125-7.36328125q0.0390625-3.28125-1.005859375-5.205078125t-2.919921875-2.392578125l0-0.15625q3.28125,0.3515625,5.302734375,2.490234375t2.021484375,5.263671875q0,3.046875-2.021484375,5.107421875t-5.302734375,2.412109375z M218.33984375,44.765625q1.6015625-0.76171875,2.94921875-1.953125l0.13671875,0.1171875q-0.76171875,0.99609375-0.76171875,1.71875q0,1.328125,1.9921875,1.328125l8.203125,0q3.2421875,0,4.90234375,1.455078125t1.66015625,3.740234375q0,2.55859375-2.3046875,4.4140625t-6.69921875,2.0703125l0-0.21484375q3.3203125-0.1953125,5.1953125-1.591796875t1.875-3.369140625q0-3.80859375-5.5859375-3.7890625l-7.32421875,0q-4.23828125,0-4.23828125-3.92578125z M217.16796875,52.8125q0-1.11328125,0.888671875-1.8359375t2.197265625-0.80078125l0.0390625,0.078125q-0.64453125,0.95703125-0.64453125,2.32421875q0,2.0703125,1.5625,3.349609375t4.609375,1.513671875l0,0.21484375q-4.47265625-0.1953125-6.5625-1.640625t-2.08984375-3.203125z  M248.203125,33.45703125q0-6.23046875,3.720703125-10.283203125t9.599609375-4.482421875l0,0.234375q-4.39453125,0.56640625-7.041015625,4.365234375t-2.646484375,10.166015625q0,6.2890625,2.63671875,10.09765625t7.05078125,4.375l0,0.234375q-5.83984375-0.44921875-9.580078125-4.501953125t-3.740234375-10.205078125z M264.31640625,18.92578125l0-0.234375q4.51171875,0.234375,7.0703125,1.8359375l0.25390625,6.953125l-0.15625,0.0390625q-0.99609375-4.23828125-2.646484375-6.259765625t-4.521484375-2.333984375z M264.31640625,48.1640625l0-0.234375q3.2421875-0.390625,5.15625-2.51953125t2.890625-6.2109375l0.15625,0.05859375l-0.83984375,7.1875q-2.75390625,1.5234375-7.36328125,1.71875z M277.03125,37.40234375q0-4.19921875,2.421875-7.236328125t6.3671875-3.486328125l0,0.21484375q-2.44140625,0.56640625-3.896484375,3.41796875t-1.455078125,7.08984375q0.0390625,4.47265625,1.46484375,7.236328125t3.88671875,3.330078125l0,0.1953125q-4.04296875-0.44921875-6.416015625-3.388671875t-2.373046875-7.373046875z M288.4375,26.89453125l0-0.21484375q3.92578125,0.48828125,6.318359375,3.525390625t2.392578125,7.197265625q0,4.39453125-2.3828125,7.34375t-6.328125,3.41796875l0-0.1953125q2.44140625-0.56640625,3.857421875-3.33984375t1.416015625-7.2265625q0-4.19921875-1.435546875-7.03125t-3.837890625-3.4765625z M307.79296875,43.45703125q0,2.32421875,0.458984375,3.193359375t1.611328125,1.201171875l0,0.1171875l-7.2265625,0l0-0.1171875q1.19140625-0.3515625,1.611328125-1.201171875t0.419921875-3.193359375l0-10.33203125q0-2.51953125-0.439453125-3.53515625t-1.513671875-1.42578125l0.0390625-0.078125q3.0859375-0.234375,5.3125-1.484375l0.078125,0.078125q-0.3515625,1.71875-0.3515625,6.4453125l0,10.33203125z M321.796875,43.45703125q0,2.36328125,0.419921875,3.193359375t1.611328125,1.201171875l0,0.1171875l-7.24609375,0l0-0.1171875q1.19140625-0.3125,1.66015625-1.220703125t0.46875-3.173828125l0-8.88671875q0-3.0078125-1.298828125-4.560546875t-3.701171875-1.552734375q-2.24609375,0-3.515625,1.42578125l-0.078125-0.0390625q0.52734375-1.2890625,1.982421875-2.265625t3.369140625-0.9765625q2.9296875,0,4.62890625,1.884765625t1.69921875,4.970703125l0,10z M340.8203125,44.375l0.1171875,0.0390625q-0.1953125,1.40625-1.513671875,2.59765625t-3.310546875,1.19140625q-2.71484375,0-4.19921875-1.66015625t-1.484375-4.94140625l0-14.27734375l-1.40625,0l0-0.234375q1.03515625-0.44921875,2.34375-1.6015625t1.89453125-2.12890625l0.15625,0.09765625l0,3.3984375l6.5234375,0l0,0.46875l-6.5234375,0l0,13.92578125q0,5.44921875,3.76953125,5.4296875q2.67578125,0.01953125,3.6328125-2.3046875z M343.22265625,37.40234375q0-4.31640625,2.34375-7.275390625t5.9375-3.388671875l0,0.15625q-2.20703125,0.56640625-3.642578125,2.978515625t-1.435546875,5.849609375q0,4.609375,2.40234375,7.28515625t6.11328125,2.67578125q3.515625,0,5.68359375-2.44140625l0.1171875,0.078125q-0.87890625,2.24609375-2.900390625,3.564453125t-4.775390625,1.318359375q-4.31640625,0-7.080078125-3.056640625t-2.763671875-7.744140625z M349.0234375,35.72265625l-0.0390625-0.1953125l8.59375-0.234375q0.15625-0.64453125,0.15625-1.875q0-5.68359375-3.6328125-6.5234375l0-0.15625q3.0859375,0.3515625,4.78515625,2.490234375t1.69921875,5.029296875q0,0.91796875-0.15625,1.46484375l-11.40625,0z M371.171875,43.45703125q0,2.32421875,0.458984375,3.193359375t1.611328125,1.201171875l0,0.1171875l-7.2265625,0l0-0.1171875q1.19140625-0.3515625,1.611328125-1.201171875t0.419921875-3.193359375l0-10.33203125q0-2.51953125-0.439453125-3.53515625t-1.513671875-1.42578125l0.0390625-0.078125q3.0859375-0.234375,5.3125-1.484375l0.078125,0.078125q-0.3515625,1.71875-0.3515625,6.4453125l0,10.33203125z M385.17578125,43.45703125q0,2.36328125,0.419921875,3.193359375t1.611328125,1.201171875l0,0.1171875l-7.24609375,0l0-0.1171875q1.19140625-0.3125,1.66015625-1.220703125t0.46875-3.173828125l0-8.88671875q0-3.0078125-1.298828125-4.560546875t-3.701171875-1.552734375q-2.24609375,0-3.515625,1.42578125l-0.078125-0.0390625q0.52734375-1.2890625,1.982421875-2.265625t3.369140625-0.9765625q2.9296875,0,4.62890625,1.884765625t1.69921875,4.970703125l0,10z M404.19921875,44.375l0.1171875,0.0390625q-0.1953125,1.40625-1.513671875,2.59765625t-3.310546875,1.19140625q-2.71484375,0-4.19921875-1.66015625t-1.484375-4.94140625l0-14.27734375l-1.40625,0l0-0.234375q1.03515625-0.44921875,2.34375-1.6015625t1.89453125-2.12890625l0.15625,0.09765625l0,3.3984375l6.5234375,0l0,0.46875l-6.5234375,0l0,13.92578125q0,5.44921875,3.76953125,5.4296875q2.67578125,0.01953125,3.6328125-2.3046875z  M420.17578125,23.28125l0,3.57421875l5.76171875,0l0,0.46875l-5.76171875,0l0,16.1328125q0,2.32421875,0.5859375,3.193359375t2.1484375,1.201171875l0,0.1171875l-7.8515625,0l0-0.1171875q1.19140625-0.3515625,1.6015625-1.201171875t0.41015625-3.193359375l0-16.1328125l-1.3671875,0l0-0.46875l1.3671875,0l0-3.57421875q0-6.40625,5.546875-7.1875l0,0.1953125q-2.44140625,1.19140625-2.44140625,6.9921875z M424.86328125,16.09375q2.67578125,0.390625,4.16015625,1.6796875l-0.99609375,4.9609375l-0.1171875-0.0390625q-0.68359375-5.52734375-3.046875-6.40625l0-0.1953125z M428.84765625,37.40234375q0-4.19921875,2.421875-7.236328125t6.3671875-3.486328125l0,0.21484375q-2.44140625,0.56640625-3.896484375,3.41796875t-1.455078125,7.08984375q0.0390625,4.47265625,1.46484375,7.236328125t3.88671875,3.330078125l0,0.1953125q-4.04296875-0.44921875-6.416015625-3.388671875t-2.373046875-7.373046875z M440.25390625,26.89453125l0-0.21484375q3.92578125,0.48828125,6.318359375,3.525390625t2.392578125,7.197265625q0,4.39453125-2.3828125,7.34375t-6.328125,3.41796875l0-0.1953125q2.44140625-0.56640625,3.857421875-3.33984375t1.416015625-7.2265625q0-4.19921875-1.435546875-7.03125t-3.837890625-3.4765625z M459.609375,43.45703125q0,2.32421875,0.517578125,3.193359375t1.923828125,1.201171875l0,0.1171875l-7.59765625,0l0-0.1171875q1.19140625-0.3515625,1.611328125-1.201171875t0.419921875-3.193359375l0-10.33203125q0-2.51953125-0.439453125-3.53515625t-1.513671875-1.42578125l0.0390625-0.078125q3.046875-0.234375,5.3125-1.484375l0.078125,0.078125q-0.3515625,1.71875-0.3515625,6.4453125l0,10.33203125z M466.2890625,26.6015625q1.19140625,0,2.03125,0.60546875l-0.625,2.59765625l-0.13671875,0q-0.76171875-0.68359375-2.34375-0.68359375q-2.12890625,0-3.28125,1.97265625l-0.078125-0.0390625q0.3515625-1.9921875,1.552734375-3.22265625t2.880859375-1.23046875z  M499.98046875,41.4453125q1.40625,3.7109375,2.20703125,4.892578125t1.9140625,1.474609375l0,0.15625l-8.5546875,0l0-0.15625q1.484375-0.390625,1.806640625-1.494140625t-0.556640625-3.798828125l-1.71875-4.58984375l-9.2578125-0.15625l0.09765625-0.1953125l8.984375-0.21484375l-5.87890625-15.87890625l0.95703125-2.44140625l1.5625,0z M481.42578125,42.24609375q-0.95703125,2.79296875-0.439453125,3.994140625t2.607421875,1.572265625l0,0.15625l-7.16796875,0l0-0.15625q1.2890625-0.3515625,2.20703125-1.455078125t1.953125-3.740234375l7.24609375-18.1640625l0.078125,0.2734375z M514.296875,19.19921875q-1.03515625,0.2734375-1.474609375,1.4453125t-0.439453125,4.19921875l0,17.32421875q0,3.046875,0.439453125,4.19921875t1.474609375,1.4453125l0,0.15625l-7.24609375,0l0-0.15625q0.99609375-0.2734375,1.46484375-1.455078125t0.46875-4.189453125l0-17.32421875q0-3.0078125-0.46875-4.1796875t-1.46484375-1.46484375l0-0.15625l7.24609375,0l0,0.15625z  M526.015625,26.93359375l0.37109375-7.890625l7.48046875,0l0,0.25390625l-0.44921875,0.0390625q-3.2421875,0.1171875-4.755859375,1.77734375t-2.470703125,5.8984375z M539.94140625,42.16796875q0,3.046875,0.498046875,4.19921875t1.630859375,1.4453125l0,0.15625l-7.63671875,0l0-0.15625q1.07421875-0.2734375,1.591796875-1.455078125t0.517578125-4.189453125l0-23.125l3.3984375,0l0,23.125z M550.09765625,19.04296875l0.37109375,7.890625l-0.1171875,0.078125q-0.95703125-4.19921875-2.51953125-5.87890625t-4.765625-1.796875l-0.41015625-0.0390625l0-0.25390625l7.44140625,0z M559.0625,43.45703125q0,2.32421875,0.517578125,3.193359375t1.923828125,1.201171875l0,0.1171875l-7.59765625,0l0-0.1171875q1.19140625-0.3515625,1.611328125-1.201171875t0.419921875-3.193359375l0-10.33203125q0-2.51953125-0.439453125-3.53515625t-1.513671875-1.42578125l0.0390625-0.078125q3.046875-0.234375,5.3125-1.484375l0.078125,0.078125q-0.3515625,1.71875-0.3515625,6.4453125l0,10.33203125z M565.7421875,26.6015625q1.19140625,0,2.03125,0.60546875l-0.625,2.59765625l-0.13671875,0q-0.76171875-0.68359375-2.34375-0.68359375q-2.12890625,0-3.28125,1.97265625l-0.078125-0.0390625q0.3515625-1.9921875,1.552734375-3.22265625t2.880859375-1.23046875z M579.98046875,46.3671875q2.24609375,0,3.515625-1.4453125l0.0390625,0.078125q-0.56640625,1.23046875-1.982421875,2.216796875t-3.330078125,0.986328125q-2.9296875,0-4.62890625-1.85546875t-1.69921875-4.94140625l0-8.28125q0-2.51953125-0.439453125-3.53515625t-1.552734375-1.42578125l0.078125-0.078125q3.046875-0.234375,5.3125-1.484375l0.0390625,0.078125q-0.3515625,2.28515625-0.3515625,6.4453125l0,7.12890625q0,3.0078125,1.298828125,4.560546875t3.701171875,1.552734375z M589.0234375,42.08984375q0,2.55859375,0.419921875,3.49609375t1.494140625,1.30859375l0,0.1171875q-2.32421875,0.0390625-4.9609375,1.23046875l-0.078125-0.078125l0-15.0390625q0-2.51953125-0.439453125-3.53515625t-1.513671875-1.42578125l0.0390625-0.078125q3.046875-0.234375,5.3125-1.484375l0.078125,0.078125q-0.3515625,1.71875-0.3515625,6.4453125l0,8.96484375z M596.2109375,32.40234375q0-2.16796875,1.455078125-3.740234375t3.935546875-1.923828125l0,0.15625q-1.328125,0.390625-2.099609375,1.455078125t-0.771484375,2.412109375q0,1.5625,1.1328125,2.744140625t2.75390625,1.982421875t3.2421875,1.640625t2.763671875,2.177734375t1.142578125,3.134765625q0,2.24609375-1.54296875,3.76953125t-4.21875,1.9140625l0-0.1953125q3.046875-0.68359375,3.046875-4.00390625q0-1.5234375-1.123046875-2.67578125t-2.724609375-1.953125t-3.18359375-1.640625t-2.6953125-2.16796875t-1.11328125-3.0859375z M604.19921875,26.89453125l0-0.15625q3.125,0.390625,4.8828125,1.953125l-0.99609375,4.84375l-0.078125,0q-0.83984375-5.72265625-3.80859375-6.640625z M595.56640625,46.25l0.83984375-4.921875l0.078125,0q0.48828125,2.9296875,1.865234375,4.58984375t3.056640625,2.01171875l0,0.1953125q-3.5546875-0.3515625-5.83984375-1.875z M626.38671875,44.375l0.1171875,0.0390625q-0.1953125,1.40625-1.513671875,2.59765625t-3.310546875,1.19140625q-2.71484375,0-4.19921875-1.66015625t-1.484375-4.94140625l0-14.27734375l-1.40625,0l0-0.234375q1.03515625-0.44921875,2.34375-1.6015625t1.89453125-2.12890625l0.15625,0.09765625l0,3.3984375l6.5234375,0l0,0.46875l-6.5234375,0l0,13.92578125q0,5.44921875,3.76953125,5.4296875q2.67578125,0.01953125,3.6328125-2.3046875z"/></g></g></svg>