<svg xmlns="http://www.w3.org/2000/svg" xmlns:xlink="http://www.w3.org/1999/xlink" width="400" height="400" viewBox="0 0 400 400">
<rect data-name="background" width="100%" height="100%" fill="none"/><g data-name="container" data="container_num:5" fill="#FFFFFF" transform="translate(26.8398347156392,24.00000000000003) scale(1.8616539588893766)"><path xmlns="http://www.w3.org/2000/svg" d="M17.914 148.907zM22.657 154.94a90.586 90.586 0 0 0 5.861 6.251c6.914 6.805 15.159 12.525 24.004 16.851 3.259 1.526 6.265 3.107 9.787 4.468.88.338 1.779.7 2.724 1.026.953.302 1.941.604 2.974.903 1.027.321 2.122.549 3.267.786 1.146.23 2.336.493 3.614.624a91.24 91.24 0 0 1-18.434-5.99 93.833 93.833 0 0 1-16.873-9.842c-10.548-7.727-19.57-17.648-26.16-28.989-.272-.339-.685-.985-1.18-1.808l-.796-1.348-.803-1.551c-.534-1.076-1.149-2.168-1.62-3.226a71.281 71.281 0 0 0-1.326-2.748c2.048 5.101 4.412 9.563 7.059 13.806a93.473 93.473 0 0 0 3.869 5.697c-.192-.259-.392-.511-.583-.771a95.012 95.012 0 0 0 4.6 5.841l.016.02zM18.039 149.078l-.125-.17.125.17zM1.335 106.042l-.483-3.875c.256 2.365.553 5.008 1.096 7.654l-.327-1.879a23.961 23.961 0 0 1-.286-1.9zM85.812 185.575c6.652.673 13.628.472 20.461-.609 6.837-1.077 13.524-2.987 19.741-5.449-11.45 4.503-23.602 6.506-35.49 6.171-1.591-.025-3.159 0-4.712-.113z"/><path xmlns="http://www.w3.org/2000/svg" d="M46.426 171.967l-.259-.165c.087.055.172.111.259.165zM46.167 171.802zM43.653 170.135zM56.077 177.284A83.837 83.837 0 0 0 73.2 183.1c-9.688-2.21-18.805-6.109-26.774-11.133 3.06 1.947 6.277 3.749 9.651 5.317zM177.002 107.094c.098-1.58.296-3.238.346-4.027.594-5.071.77-9.401.745-13.745-.11-.783-.425-2.25-.55-3.918-.153-1.672-.378-3.309-.568-4.924-.289-1.601-.538-3.186-.854-4.74 2.275 11.617 2.237 23.279.144 34.282a94.97 94.97 0 0 1 .737-2.928z"/><path xmlns="http://www.w3.org/2000/svg" d="M.887 83.482c.848-6.9 2.653-13.626 4.37-18.107l-.695 3.28c.429-.961 1.122-3.194 2.067-5.557l.682-1.802.753-1.747c.5-1.131.92-2.203 1.363-3.025-.303.771-.595 1.602-.947 2.436-.345.837-.732 1.687-1.101 2.542l1.514-3.409A111.863 111.863 0 0 0 4.954 69.8c-1.133 4.352-2.029 8.926-2.511 13.032-.14 1.024-.189 2.024-.28 2.978-.067.954-.183 1.864-.192 2.724-.042 1.719-.1 3.224-.071 4.428.105 2.409.25 3.61.459 2.939.411-1.333.403-8.188 1.837-16.767.767-4.276 1.868-8.966 3.362-13.561 1.483-4.599 3.427-9.058 5.44-12.992l-.592 1.292-.545 1.331-1.116 2.691-1.024 2.78-.521 1.402c-.153.476-.308.954-.461 1.434-1.32 3.807-2.307 7.816-3.167 11.857l-.559 3.052c-.205 1.014-.292 2.046-.444 3.067-.318 2.041-.434 4.097-.611 6.129-.199 4.074-.239 8.098.13 11.946-.015-.914-.03-1.726-.017-2.512l.115-2.355c.048-.809.039-1.667.115-2.65.07-.983.134-2.091.19-3.402.391-6.608 1.572-13.15 3.408-19.481 1.75-6.358 3.814-11.957 6.889-17.03l.801-1.526c.542-1.024.993-2.034 1.566-3.064.653-1.13 1.278-1.976 1.784-2.751.521-.767.963-1.441 1.469-2.095l3.682-5.082c.075-.009-.022.185-.2.473a28.962 28.962 0 0 1 1.959-2.49c.755-.875 1.488-1.803 2.109-2.569.146-.007.288-.011.623-.251 8.65-9.197 19.295-16.692 31.291-21.417l2.667-1.039 2.7-.899 1.343-.448 1.36-.38 2.71-.753c1.55-.373 3.12-.751 4.721-1.091l2.437-.426c.819-.141 1.642-.3 2.484-.378 1.674-.201 3.134-.625 3.921-.729 4.369-.249 8.73-.199 13.849.216.397.007 1.015.043 1.732.082.717.041 1.537.061 2.332.134.932.21 1.927.418 2.971.621 6.369.988 12.527 2.754 18.386 5.103l-.007-.028 2.244.894 2.29 1.058c1.571.684 3.11 1.559 4.7 2.383.798.407 1.554.904 2.338 1.354.77.474 1.576.894 2.32 1.412 1.508 1.002 3.037 1.961 4.446 3.032a99.912 99.912 0 0 1 6.6 5.198c.046.042.094.081.14.122l.042.038 1.457 1.322 1.394 1.391 1.395 1.392c.462.467.89.967 1.337 1.449-.216-.35-.208-.491-.2-.63-.689-.66-1.504-1.441-2.309-2.21 1.343 1.222 2.515 2.327 3.477 3.229.371.474.776.94 1.16 1.449l1.186 1.566 1.261 1.629 1.255 1.752c2.226 2.838 4.191 5.874 6.057 8.97.864 1.588 1.817 3.131 2.586 4.774l1.213 2.436 1.092 2.497c.314.533.192.022.231-.068 1.225 2.962 2.21 6.042 3.102 9.146a88.212 88.212 0 0 1 3.408 17.211c.225 1.378.321 2.772.52 4.153l-.123 2.924c-.001 1.103.057 2.206.01 3.311l-.128 3.326c-.016.75-.124 1.569-.187 2.459-.084.888-.128 1.846-.256 2.856l-.412 3.192c-.132 1.119-.387 2.269-.583 3.471a90.635 90.635 0 0 1-4.312 15.482c-.242.826-.427 1.486-.592 1.855-.627 1.501-1.296 2.954-1.942 4.385-.723 1.394-1.386 2.788-2.127 4.108a86.09 86.09 0 0 1-7.949 12.379c-.336.439-.649.885-.987 1.297l-.998 1.206c-.66.779-1.25 1.558-1.876 2.234-1.251 1.352-2.301 2.606-3.286 3.549-1.128 1.178-1.027 1.233-.246.665a35.07 35.07 0 0 0 1.608-1.262l2.122-1.914c.776-.677 1.519-1.441 2.235-2.161.708-.725 1.416-1.386 1.962-1.984 1.101-1.191 1.824-1.926 1.67-1.599-1.777 3.345-5.013 7.471-9.743 12.035-2.413 2.227-5.128 4.647-8.339 6.98-1.566 1.221-3.307 2.338-5.082 3.558-1.834 1.123-3.708 2.353-5.757 3.445-4.484 2.442 3.365-1.475 3.577-1.512a22.87 22.87 0 0 1-2.377 1.64c-1.478.786-2.943 1.597-4.474 2.273-.895.411-1.774.855-2.679 1.239l-2.729 1.122 1.444-.568c2.952-1.173 5.711-2.555 8.202-3.922-.936.566-1.96 1.221-3.082 1.812-1.203.622-2.448 1.302-3.697 1.909l-3.625 1.686c12.968-4.711 24.885-12.507 34.319-22.67 4.723-5.066 8.935-10.631 12.369-16.651a93.904 93.904 0 0 0 8.288-18.999c-3.154 9.93-8.071 19.052-13.981 26.765 10.744-14.507 17.15-32.293 17.999-50.636-.001 1.011-.101 2.018-.168 3.025-.083 1.007-.123 2.018-.241 3.022-.257 2.005-.441 4.021-.827 6.009-.624 4-1.636 7.931-2.782 11.815 2.262-7.021 3.613-14.424 4.145-21.869.554-7.451.092-14.947-1.057-22.211 1.974 9.622 2.301 20.524.619 31.298 1.182-6.949 1.482-14.112 1.028-21.214-.102-2.713-.422-5.407-.685-7.901-.377-2.476-.662-4.762-1.027-6.611 1.445 6.826 2.015 12.648 2.293 18.136-.267-11.977-2.748-24.112-7.62-35.511 2.659 6.191 4.842 12.851 6.175 19.698 1.34 6.84 1.897 13.838 1.58 20.57-.015-.788.018-1.575-.028-2.366l-.107-2.391c.287 10.85-1.384 21.604-4.696 31.717-1.662 5.056-3.715 9.969-6.2 14.644a95.521 95.521 0 0 1-8.56 13.316c3.673-4.29 7.551-10.354 10.646-17.015 3.081-6.675 5.368-13.894 6.941-20.199-2.314 11.322-6.907 22.494-13.571 32.471-6.646 9.985-15.351 18.764-25.423 25.502-10.06 6.759-21.474 11.437-33.187 13.748a94.608 94.608 0 0 1-17.657 1.809 94.462 94.462 0 0 1-17.361-1.515l3.005.571c1.002.19 2.018.295 3.026.445 2.016.324 4.055.446 6.087.633 4.073.229 8.168.306 12.25-.005 4.089-.217 8.152-.827 12.196-1.572 2.006-.456 4.036-.829 6.017-1.414.994-.278 2-.521 2.987-.83l2.955-.958c-1.492.462-3.062 1.074-4.739 1.523l-2.101.618a91.772 91.772 0 0 0 12.91-4.496 89.46 89.46 0 0 0 5.651-2.705 96.653 96.653 0 0 1-10.714 4.872 98.407 98.407 0 0 1-21.66 5.382c-1.11.176-2.122.231-3.029.326l-2.428.24c-1.429.113-2.484.164-3.222.245-1.477.147-1.687.284-1.099.397.587.113 1.971.203 3.673.251 1.697-.01 3.71-.101 5.541-.268 18.397-1.887 35.288-9.107 48.824-19.916 13.545-10.811 23.919-25.172 29.701-41.467.363-.946.642-1.922.944-2.89.293-.971.617-1.932.882-2.912.491-1.97 1.072-3.917 1.448-5.917l.619-2.985.487-3.012.241-1.507.172-1.517.342-3.034c.698-8.114.422-16.315-.812-24.363-.66-4.554-1.82-9.961-3.315-14.777l-1.15-3.484c-.4-1.107-.825-2.151-1.203-3.133l-.557-1.415-.571-1.271-.981-2.124c-3.134-6.359-7.072-12.424-11.682-18.065-4.605-5.643-9.896-10.868-15.861-15.418l-2.244-1.703-2.327-1.608-1.166-.806-1.203-.756-2.417-1.508c-3.295-1.904-6.67-3.739-10.228-5.261-3.521-1.598-7.206-2.895-10.957-4.055-1.895-.52-3.781-1.1-5.724-1.499-.968-.209-1.928-.463-2.907-.638l-2.944-.521C100.363.01 93.04-.285 85.724.265 78.412.83 71.069 2.218 64.028 4.614l-2.635.913c-.881.297-1.73.682-2.597 1.019-.858.359-1.735.673-2.577 1.069l-2.532 1.173c-.852.376-1.675.808-2.496 1.245l-2.469 1.297-2.402 1.412c-.8.472-1.606.933-2.372 1.458l-2.324 1.528c-.782.497-1.506 1.078-2.261 1.612-.741.554-1.51 1.07-2.226 1.654l-2.157 1.737c-.729.565-1.417 1.178-2.103 1.792l-2.063 1.83-1.971 1.919c-.656.639-1.319 1.271-1.93 1.951-5.031 5.298-9.451 11.078-13.066 17.194A99.518 99.518 0 0 0 5.18 64.379C.805 77.299-.45 90.402.134 102.237c-.126-4.872-.147-11.859.753-18.755zm141.132 90.446a96.807 96.807 0 0 0 8.765-6.389c-2.84 2.339-5.758 4.499-8.765 6.389zm40.217-54.282c-.299.901-.552 1.791-.882 2.641l-.957 2.523-.466 1.248-.513 1.231a108.54 108.54 0 0 0-.997 2.501 97.307 97.307 0 0 1-6.587 13.35c-2.521 4.275-5.443 8.281-8.565 12.04-1.542 1.899-3.222 3.66-4.874 5.421l-2.581 2.523c-.847.848-1.774 1.604-2.652 2.404-.736.64-1.478 1.266-2.225 1.882a90.696 90.696 0 0 0 7.896-7.312 89.808 89.808 0 0 1-11.689 10.188c-1.036.722-2.037 1.496-3.113 2.176l-3.247 2.069-3.43 1.949c-1.167.648-2.399 1.224-3.634 1.855a74.206 74.206 0 0 1 2.685-1.508c1.021-.567 2.092-1.237 3.138-1.85 1.054-.601 2.012-1.261 2.808-1.813.796-.552 1.42-1.01 1.745-1.306-.464.315-.936.617-1.406.924a92.477 92.477 0 0 0 1.507-1.015c-.021.023-.065.059-.101.091 10.932-7.466 20.245-17.277 27.223-28.462 7.009-11.175 11.57-23.781 13.46-36.601-.41 5.142-1.352 9.248-2.543 12.851zm-6.654-65.352zm-8.448-12.698a92.37 92.37 0 0 1 7.773 14.352c.25.549.486 1.106.719 1.664 4.963 12.154 7.221 25.192 6.89 38.036.084-4.25-.198-8.498-.669-12.71-.533-4.854-1.518-9.65-2.824-14.341-2.562-9.407-6.723-18.323-12.005-26.451.485.67.996 1.396 1.525 2.166a32.826 32.826 0 0 1 1.59 2.463l-.638-1.109-.689-1.079-1.378-2.156c-.938-1.424-1.955-2.796-2.934-4.192-1.062-1.334-2.069-2.712-3.174-4.011-.836-.953-1.637-1.938-2.485-2.879 2.992 3.155 5.801 6.54 8.299 10.247zM96.886 1.152c1.467.078 2.937.221 4.407.331 1.204.101 2.402.279 3.588.413.356.015.732.039 1.204.092.471.065 1.034.186 1.769.354 5.469.912 10.459 2.283 14.001 3.699 6.798 2.573 13.123 5.774 18.86 9.471 5.739 3.69 10.889 7.887 15.246 12.471 2.008 2.179 1.422 1.704.315.646l1.662 1.764c-.736-.734-1.459-1.478-2.206-2.196l-2.301-2.09c.56.49 1.918 1.663 2.845 2.522-7.389-7.539-16.026-13.799-25.375-18.404-9.356-4.603-19.431-7.446-29.502-8.581 1.618.18 2.412.22 3.168.24-1.085-.127-2.173-.301-3.274-.401-1.479-.097-2.955-.229-4.423-.301l-4.36-.103c1.444-.001 2.907.039 4.376.073z"/><path xmlns="http://www.w3.org/2000/svg" d="M115.942 184.69l.426-.125c-.446.12-.885.252-1.334.366.304-.076.609-.15.908-.241zM160.424 146.151c4.235-5.587 7.977-12.263 10.366-18.014l-.029.006c-6.061 14.322-15.892 26.66-28.16 35.744a159.12 159.12 0 0 0 6.418-4.703c2.698-2.82 7.213-7.406 11.405-13.033zM35.35 162.846c7.172 6.412 15.821 11.992 25.448 15.751 3.754 1.413 7.585 2.651 11.503 3.523 1.944.502 3.929.812 5.899 1.181.987.175 1.987.272 2.979.412.994.129 1.986.275 2.987.333-4.519-.501-9.005-1.251-13.372-2.44-4.364-1.185-8.642-2.65-12.769-4.449a97.4 97.4 0 0 1-11.894-6.314c-3.786-2.408-7.376-5.097-10.781-7.997zM123.877 174.277l-2.219.871-2.266.756c-1.5.54-3.047.944-4.59 1.373 1.551-.39 3.111-.754 4.624-1.254l2.283-.698 2.23-.815c-.086-.044-.594.055-.062-.233zM97.683 179.965c-1.16.099-2.326.09-3.494.102-1.168.014-2.338.039-3.509-.038l1.576.148c.482.031.916.068 1.295.113 1.381-.118 2.752-.151 4.132-.325zM51.441 169.209c1.341.787 2.765 1.48 4.178 2.244.354.194.996.415 1.801.709-1.721-.739-3.37-1.655-5.046-2.505-.83-.441-1.629-.935-2.443-1.395-.812-.464-1.621-.927-2.389-1.445l.937.626.977.584 1.985 1.182z"/></g><g data-name="icon" fill="#FFFFFF" data="id:8156679" transform="translate(151.16612902143376,111.8395336294664) scale(0.9766861751122164)">
    
 <path d="m94.859 38.129c0.10156 0.11719 0.15234 0.26953 0.14062 0.42188-0.15234 1.5742-0.44922 3.1367-0.87891 4.6602-0.039063 0.14844-0.14453 0.27344-0.28125 0.33984-0.14453 0.066407-0.30859 0.066407-0.44922 0l-3.3906-1.3125c-0.46484-0.1875-0.98438-0.1875-1.4492 0-0.44531 0.20312-0.80078 0.55859-1 1-0.19531 0.46484-0.19531 0.98828 0 1.4531 0.1875 0.45312 0.54688 0.8125 1 1l3.4492 1.418c0.14062 0.0625 0.25391 0.17578 0.30859 0.32031 0.066406 0.14062 0.066406 0.30078 0 0.44141-0.88281 1.7461-1.957 3.3867-3.1992 4.8984-0.097656 0.12109-0.24219 0.19141-0.39844 0.19922-0.15625 0-0.30078-0.058594-0.41016-0.16797l-2.6016-2.5898c-0.76172-0.6875-1.918-0.6875-2.6797 0-0.73828 0.74219-0.73828 1.9375 0 2.6797l2.5898 2.6016v-0.003907c0.10938 0.10938 0.16797 0.25781 0.16016 0.41016-0.007812 0.15625-0.082031 0.30078-0.19922 0.40234-1.2188 1.0195-2.5273 1.9219-3.9102 2.6992-0.082031 0.046875-0.17578 0.070312-0.26953 0.070312-0.058594 0.011719-0.11328 0.011719-0.17188 0-0.14453-0.050781-0.26562-0.15625-0.32812-0.30078l-1.4805-3.3594c-0.21484-0.46875-0.61328-0.83203-1.1016-1-0.16406-0.023437-0.3125-0.11719-0.39844-0.26172-0.089844-0.14453-0.10547-0.32031-0.042968-0.48047 0.058593-0.15625 0.1875-0.27734 0.34766-0.32812 0.16016-0.050782 0.33594-0.023438 0.47656 0.070312 0.77344 0.28125 1.3984 0.86719 1.7305 1.6211l1.2305 2.8008-0.003906-0.003906c0.96094-0.56641 1.8789-1.1953 2.75-1.8867l-2.1602-2.1602c-1.168-1.1719-1.168-3.0703 0-4.2422 1.1914-1.125 3.0547-1.125 4.2422 0l2.1602 2.1602c0.91016-1.1484 1.7148-2.3789 2.4102-3.668l-2.8594-1.2305c-0.73828-0.28906-1.332-0.85547-1.6523-1.582-0.32031-0.72656-0.33984-1.5547-0.050781-2.2969 0.60547-1.5391 2.3398-2.3008 3.8828-1.7031l2.8516 1.1094h-0.003906c0.27734-1.0781 0.48438-2.1719 0.62109-3.2773h-3.0586c-1.6562 0-3-1.3438-3-3s1.3438-3 3-3h3.0586c-0.17969-1.457-0.48047-2.8945-0.89844-4.3008l-2.8125 1.25c-1.5156 0.66406-3.2812-0.023438-3.9492-1.5391-0.33594-0.73438-0.35938-1.5703-0.070313-2.3242 0.28906-0.75391 0.87109-1.3555 1.6094-1.6758l2.8008-1.2305c-0.55859-0.96094-1.1875-1.8789-1.8789-2.75l-2.1602 2.1602c-1.1836 1.1016-3.0234 1.0664-4.168-0.074219-1.1406-1.1406-1.1758-2.9844-0.074219-4.168l2.1602-2.1719v0.003907c-1.1523-0.90625-2.3828-1.7109-3.6797-2.4023l-1.1094 2.8516c-0.58984 1.5508-2.3242 2.3281-3.875 1.7344-1.5469-0.58984-2.3242-2.3242-1.7344-3.875l1.1094-2.8516v0.003906c-1.0742-0.28125-2.168-0.48828-3.2695-0.62109v3.0586c0 1.6562-1.3438 3-3 3s-3-1.3438-3-3v-3.0586c-1.457 0.17188-2.8945 0.47266-4.3008 0.89844l1.2305 2.8008c0.59375 1.5-0.10938 3.1992-1.5859 3.8477-1.4766 0.64844-3.1992 0.015624-3.9023-1.4375l-1.2305-2.8008c-0.96094 0.57031-1.8828 1.2031-2.7617 1.8906l2.1719 2.1602c1.1016 1.1836 1.0664 3.0234-0.074219 4.168-1.1445 1.1406-2.9844 1.1719-4.168 0.074219l-1.0469-1.0703c-0.10938-0.10156-0.16797-0.24609-0.16797-0.39062 0-0.14844 0.058594-0.28906 0.16797-0.39063 0.21484-0.21094 0.5625-0.21094 0.77734 0l1.0508 1.0703c0.74609 0.73828 1.9453 0.73828 2.6914 0 0.73047-0.74219 0.73047-1.9375 0-2.6797l-2.6016-2.6016c-0.10547-0.10938-0.16406-0.25781-0.16016-0.41016 0.007812-0.15625 0.082031-0.30078 0.19922-0.39844 1.2227-1.0078 2.5312-1.9062 3.9102-2.6797 0.14453-0.058594 0.30859-0.058594 0.44922 0 0.14844 0.050781 0.26562 0.16016 0.33203 0.30078l1.4688 3.3594c0.19141 0.48047 0.56641 0.85938 1.043 1.0586 0.47656 0.19531 1.0117 0.19141 1.4844-0.015625 0.47656-0.20703 0.84375-0.59766 1.0234-1.0781 0.17969-0.48438 0.15234-1.0195-0.070313-1.4844l-1.4688-3.4102c-0.0625-0.14062-0.0625-0.30078 0-0.44141s0.18359-0.25 0.32812-0.30078c1.8594-0.60938 3.7812-1.0117 5.7305-1.1992 0.15234-0.007812 0.30469 0.042969 0.42188 0.14062 0.11328 0.10547 0.17969 0.25391 0.17969 0.41016v3.6719-0.003906c0 1.0508 0.85156 1.9023 1.8984 1.9023 1.0508 0 1.9023-0.85156 1.9023-1.9023v-3.668c-0.003907-0.15625 0.0625-0.30859 0.17969-0.41016 0.11328-0.10156 0.26562-0.15234 0.41797-0.14062 1.5781 0.14844 3.1367 0.44531 4.6602 0.87891 0.14844 0.039063 0.27344 0.14453 0.33984 0.28125 0.066406 0.14063 0.066406 0.30078 0 0.44141l-1.3281 3.4219v-0.003906c-0.36328 0.97266 0.125 2.0547 1.0898 2.4297 0.96484 0.37891 2.0547-0.089844 2.4492-1.0508l1.3281-3.4219v0.003906c0.058593-0.14453 0.17578-0.25781 0.32031-0.3125 0.14062-0.0625 0.30078-0.0625 0.44141 0 1.7461 0.88281 3.3867 1.957 4.8906 3.2031 0.12109 0.09375 0.19141 0.23438 0.19922 0.39062 0.011719 0.15625-0.046875 0.30859-0.16016 0.41797l-2.5898 2.6211c-0.65234 0.75391-0.60938 1.8828 0.09375 2.5859s1.832 0.74609 2.5859 0.09375l2.6016-2.5898c0.10156-0.11328 0.25-0.17969 0.40234-0.17969 0.15625 0 0.30078 0.066406 0.40625 0.17969 1.0078 1.2188 1.9062 2.5273 2.6797 3.9102 0.058594 0.14062 0.058594 0.29687 0 0.4375-0.046875 0.14844-0.15625 0.26953-0.30078 0.33203l-3.2969 1.5195c-0.46484 0.19922-0.82422 0.57812-1 1.0508-0.19141 0.46484-0.19141 0.98438 0 1.4492 0.19531 0.46484 0.57031 0.83594 1.0391 1.0234s0.99609 0.17969 1.4609-0.023438l3.3711-1.4688h-0.003907c0.14063-0.070312 0.30078-0.070312 0.44141 0 0.14062 0.0625 0.25 0.17969 0.30078 0.32812 0.61328 1.8477 1.0234 3.7539 1.2188 5.6914 0.011719 0.15234-0.039062 0.30469-0.14062 0.41797-0.10547 0.11719-0.25391 0.18359-0.41016 0.17969h-3.668c-1.0508 0-1.9023 0.85156-1.9023 1.9023 0 1.0469 0.85156 1.8984 1.9023 1.8984h3.6719-0.003906c0.15625 0 0.30469 0.066406 0.41016 0.17969zm-30.418-15.668c0.13672-0.042969 0.25391-0.14063 0.32031-0.27344 0.066406-0.12891 0.074219-0.28125 0.027343-0.41797-0.042968-0.14062-0.14062-0.25391-0.26953-0.32422-0.12891-0.066406-0.28125-0.078124-0.41797-0.035156-2.7031 0.88281-5.1094 2.4961-6.9531 4.6602-0.11328 0.10547-0.17969 0.25781-0.17578 0.41406s0.074219 0.30469 0.19141 0.40625c0.12109 0.10547 0.27734 0.14844 0.43359 0.12891 0.15625-0.023437 0.29688-0.10938 0.38281-0.23828 1.7148-2.0078 3.9492-3.5039 6.4609-4.3203zm19.801 13.59h-0.003907c0.003907-1.168-0.12891-2.332-0.38672-3.4727-0.023437-0.14844-0.10547-0.28516-0.23437-0.37109-0.125-0.089843-0.28125-0.12109-0.43359-0.085937-0.14844 0.035156-0.27734 0.12891-0.35547 0.26172-0.074219 0.13281-0.09375 0.28906-0.046875 0.4375 0.23828 1.0586 0.35938 2.1445 0.35938 3.2305 0 2.707-0.76172 5.3555-2.2031 7.6484-1.4414 2.2891-3.5 4.1289-5.9375 5.3008-0.1875 0.12891-0.27734 0.35938-0.22656 0.58203 0.054687 0.22266 0.23828 0.39062 0.46484 0.41797 0.078125 0.019531 0.15625 0.019531 0.23047 0 2.6289-1.2617 4.8477-3.2422 6.3984-5.7109 1.5508-2.4688 2.375-5.3242 2.3711-8.2383zm-3.8086-9.3203h-0.003906c0-2.4531-1.4766-4.6602-3.7422-5.5977-2.2617-0.94141-4.8711-0.42187-6.6016 1.3125-1.7344 1.7344-2.2539 4.3398-1.3164 6.6055 0.94141 2.2617 3.1484 3.7383 5.6016 3.7383 3.3438-0.003906 6.0547-2.7148 6.0586-6.0586zm-12.535 35.32h3.6719c0.15625 0 0.30469-0.066406 0.41016-0.17969 0.10156-0.11719 0.14844-0.26953 0.14062-0.42188-0.18359-1.9492-0.58594-3.8711-1.1992-5.7305-0.054687-0.14453-0.16016-0.26562-0.30078-0.32812s-0.30078-0.0625-0.44141 0l-3.3711 1.4805c-0.46094 0.20312-0.98828 0.21094-1.457 0.023437-0.47266-0.1875-0.84375-0.55859-1.043-1.0234-0.19922-0.46484-0.20703-0.99219-0.019532-1.4648 0.1875-0.46875 0.55469-0.84766 1.0195-1.0469l3.3594-1.4688h0.003906c0.14062-0.0625 0.25-0.18359 0.29688-0.33203 0.0625-0.14062 0.0625-0.29688 0-0.4375-0.76953-1.3867-1.668-2.6992-2.6797-3.9219-0.097656-0.11719-0.24219-0.19141-0.39844-0.19922-0.15234-0.003906-0.30078 0.054688-0.41016 0.16016l-2.6016 2.6016c-0.76172 0.68359-1.918 0.68359-2.6797 0-0.73828-0.74609-0.73828-1.9453 0-2.6914l2.5898-2.5898c0.10938-0.11328 0.17188-0.26172 0.17188-0.42188-0.011719-0.15234-0.082032-0.29688-0.19922-0.39844-0.5-0.41016-1-0.80859-1.5703-1.1914-0.11719-0.082031-0.26562-0.11719-0.41016-0.09375-0.14062 0.023438-0.26953 0.10547-0.35156 0.22656-0.085938 0.11719-0.12109 0.26563-0.09375 0.41016 0.023437 0.14453 0.10547 0.27344 0.22266 0.35938 0.35156 0.23828 0.69141 0.5 1 0.76172l-2.1602 2.1719v-0.003907c-1.168 1.1719-1.168 3.0664 0 4.2383 1.1914 1.1289 3.0547 1.1289 4.2422 0l2.1602-2.1602c0.69141 0.875 1.3203 1.793 1.8906 2.75l-2.8008 1.2305c-0.75781 0.30078-1.3633 0.89453-1.6719 1.6484-0.3125 0.75391-0.30078 1.6016 0.023438 2.3477 0.32812 0.74609 0.94531 1.3281 1.7109 1.6094s1.6133 0.24219 2.3477-0.11328l2.8008-1.2305c0.43359 1.4297 0.73438 2.8945 0.89844 4.3789h-3.1016c-1.6562 0-3 1.3438-3 3s1.3438 3 3 3h3.1016c-0.13281 1.1016-0.33984 2.1953-0.62109 3.2695l-2.8516-1.1094h0.003906c-0.74219-0.28906-1.5664-0.26953-2.293 0.058594-1.1016 0.49219-1.8008 1.5977-1.7773 2.8047 0.027343 1.207 0.77734 2.2812 1.8984 2.7266l2.8516 1.1094c-0.69531 1.293-1.4961 2.5234-2.4023 3.6797l-2.207-2.2109c-0.55469-0.59375-1.3281-0.9375-2.1445-0.95312-0.8125-0.015625-1.5977 0.30469-2.1719 0.87891-0.57812 0.57422-0.89453 1.3594-0.87891 2.1758 0.015625 0.8125 0.35938 1.5859 0.95312 2.1406l2.1602 2.1602c-0.87109 0.69141-1.793 1.3203-2.75 1.8906l-1.2305-2.8086v-0.003906c-0.70312-1.4492-2.4258-2.0859-3.9023-1.4375-1.4766 0.64844-2.1797 2.3477-1.5859 3.8477l1.2305 2.7812c-1.4062 0.42578-2.8438 0.72656-4.3008 0.89844v-3.0273c0-1.6562-1.3438-3-3-3s-3 1.3438-3 3v3.0586c-1.1055-0.13281-2.2031-0.33984-3.2812-0.62109l1.1094-2.8516v0.003907c0.34375-0.75 0.36328-1.6094 0.050781-2.375-0.30859-0.76172-0.91797-1.3672-1.6875-1.6641-0.76562-0.30078-1.625-0.27344-2.3711 0.078125-0.74609 0.35156-1.3125 0.99609-1.5703 1.7812l-1.1211 2.8594c-1.293-0.69531-2.5195-1.5-3.668-2.4102l2.1602-2.1602c0.59375-0.55469 0.9375-1.3281 0.95313-2.1406 0.015624-0.81641-0.30469-1.6016-0.87891-2.1758-0.57422-0.57422-1.3594-0.89453-2.1758-0.87891-0.8125 0.015625-1.5859 0.35938-2.1406 0.95312l-2.1602 2.1602c-0.69141-0.87109-1.3203-1.7891-1.8906-2.75l2.8008-1.2305v0.003907c0.61719-0.26953 1.125-0.73828 1.4414-1.332 0.14062-0.26953 0.035157-0.59766-0.23047-0.73828-0.125-0.074218-0.27734-0.09375-0.41797-0.050781s-0.25781 0.14062-0.32422 0.26953c-0.19531 0.375-0.51953 0.67188-0.90625 0.83984l-3.3633 1.5c-0.14062 0.0625-0.25 0.18359-0.29688 0.32812-0.066407 0.14062-0.066407 0.30078 0 0.44141 0.76953 1.3828 1.6641 2.6914 2.6797 3.9102 0.097656 0.12109 0.24219 0.19141 0.39844 0.19922 0.15234 0.003906 0.30078-0.054687 0.41016-0.16016l2.6016-2.5898c0.75-0.65234 1.8789-0.60938 2.5859 0.09375 0.70312 0.70703 0.74609 1.832 0.09375 2.5859l-2.6016 2.6016c-0.10547 0.10938-0.16406 0.25781-0.16016 0.41016 0.007813 0.15625 0.082031 0.30078 0.19922 0.39844 1.5078 1.2461 3.1523 2.3203 4.9023 3.2031 0.13672 0.0625 0.30078 0.0625 0.4375 0 0.14453-0.058594 0.26172-0.16797 0.32031-0.3125l1.3281-3.4297h0.003907c0.17578-0.47656 0.53906-0.86328 1.0039-1.0742 0.46484-0.20703 0.99219-0.21875 1.4648-0.035157 0.47656 0.18359 0.85547 0.55469 1.0586 1.0195 0.19922 0.46875 0.20312 1 0.011719 1.4688l-1.3281 3.4219c-0.066406 0.14062-0.066406 0.30859 0 0.44922 0.066406 0.13672 0.19141 0.24219 0.33984 0.28125 1.5234 0.42969 3.082 0.72656 4.6602 0.87891 0.16406 0.042968 0.33984 0.007812 0.47656-0.089844 0.11719-0.10547 0.18359-0.25391 0.17969-0.41016v-3.7188c0-1.0508 0.85156-1.9023 1.9023-1.9023s1.8984 0.85156 1.8984 1.9023v3.6719-0.003907c0 0.15625 0.066406 0.30859 0.17969 0.41016 0.10156 0.089843 0.23438 0.14062 0.37109 0.14062 1.9453-0.18359 3.8633-0.58594 5.7188-1.1992 0.14844-0.050781 0.26953-0.16016 0.33203-0.30078 0.070312-0.13672 0.070312-0.30078 0-0.44141l-1.4688-3.3711v0.003906c-0.20312-0.46094-0.21484-0.98438-0.03125-1.4492 0.18359-0.46875 0.54297-0.84375 1.0039-1.0469 0.95703-0.41797 2.0742 0.015625 2.4961 0.97656l1.5195 3.3594c0.0625 0.14062 0.18359 0.25 0.32812 0.30078 0.14062 0.058594 0.30078 0.058594 0.44141 0 1.3828-0.77344 2.6914-1.668 3.9102-2.6836 0.125-0.09375 0.19922-0.24219 0.19922-0.39844 0.007813-0.15234-0.046875-0.30469-0.16016-0.41016l-2.5898-2.6016c-0.65234-0.75-0.60938-1.8789 0.09375-2.5859 0.70703-0.70313 1.832-0.74219 2.5859-0.09375l2.6016 2.5898c0.10938 0.10938 0.25781 0.16406 0.41016 0.16016 0.15234-0.003907 0.30078-0.070313 0.39844-0.1875 1.2461-1.5078 2.3203-3.1523 3.2031-4.9023 0.0625-0.13672 0.0625-0.30078 0-0.4375-0.054687-0.14844-0.16797-0.26562-0.3125-0.32031l-3.4219-1.3281 0.003906-0.003906c-0.45312-0.19141-0.80859-0.54688-1-1-0.19922-0.46094-0.19922-0.98438 0-1.4492 0.19141-0.44922 0.55078-0.80469 1-1 0.46094-0.19531 0.98438-0.19531 1.4492 0l3.4297 1.3281v0.003906c0.14063 0.0625 0.30078 0.0625 0.44141 0 0.13672-0.070312 0.23828-0.19141 0.27734-0.33984 0.43359-1.5273 0.72656-3.0859 0.88281-4.6602 0.0625-0.21875-0.003906-0.45312-0.17188-0.60156-0.10547-0.11719-0.25391-0.18359-0.41016-0.17969h-3.6914c-1.0469 0-1.8984-0.85156-1.8984-1.8984 0-1.0508 0.85156-1.9023 1.8984-1.9023zm-21.898 16.188c-4.1055-0.003906-8.0117-1.7695-10.73-4.8477-0.089843-0.13281-0.22656-0.21875-0.38672-0.23828-0.15625-0.019532-0.3125 0.027344-0.42969 0.13281-0.12109 0.10547-0.1875 0.25391-0.1875 0.41016 0 0.16016 0.066406 0.30859 0.18359 0.41406 3.4883 4.0195 8.8047 5.9531 14.059 5.1133 5.2539-0.84375 9.6992-4.3398 11.758-9.2461s1.4375-10.527-1.6445-14.867c-0.17578-0.25-0.51953-0.3125-0.76953-0.14062-0.25391 0.17578-0.31641 0.51953-0.14062 0.76953 1.6953 2.418 2.5898 5.3086 2.5586 8.2617-0.039062 7.8594-6.4102 14.219-14.27 14.238zm-24.59-14.129-1.3281 3.4219h-0.003906c-0.054687 0.14453-0.17188 0.25781-0.31641 0.30859-0.14062 0.066406-0.30078 0.066406-0.44141 0-1.7461-0.87891-3.3867-1.9492-4.8906-3.1992-0.125-0.097656-0.19531-0.24219-0.19922-0.40234-0.007813-0.15234 0.050781-0.30078 0.16016-0.41016l2.6094-2.6172c0.65234-0.75391 0.60938-1.8828-0.09375-2.5859-0.70312-0.70703-1.832-0.74609-2.5859-0.09375l-2.6016 2.5898c-0.10938 0.10547-0.25781 0.16406-0.41016 0.16016-0.15625-0.003906-0.30078-0.078125-0.39844-0.20312-1.0117-1.2188-1.9062-2.5273-2.6797-3.9062-0.058594-0.14062-0.058594-0.30078 0-0.44141 0.046875-0.14844 0.15625-0.26953 0.30078-0.33203l3.3594-1.4805v0.003906c0.46094-0.20312 0.82031-0.58203 1-1.0508 0.1875-0.46484 0.1875-0.98828 0-1.4492-0.20312-0.46094-0.58203-0.82422-1.0508-1-0.46094-0.20312-0.98828-0.20312-1.4492 0l-3.4492 1.5c-0.14062 0.0625-0.30078 0.0625-0.44141 0-0.14062-0.066406-0.25-0.18359-0.30078-0.33203-0.60938-1.8555-1.0117-3.7734-1.1992-5.7188-0.011719-0.15234 0.039062-0.30469 0.14062-0.42188 0.10547-0.11328 0.25391-0.17969 0.41016-0.17969h3.668c1.0508 0 1.9023-0.85156 1.9023-1.8984 0-1.0508-0.85156-1.9023-1.9023-1.9023h-3.668c-0.15625 0-0.30469-0.0625-0.41016-0.17578-0.10156-0.11719-0.15625-0.26953-0.14062-0.42188 0.15234-1.5781 0.44922-3.1367 0.87891-4.6602 0.039063-0.15234 0.14062-0.27734 0.28125-0.33984 0.14453-0.058594 0.30469-0.058594 0.44922 0l3.3906 1.3086c0.97656 0.375 2.0742-0.10547 2.4609-1.0781 0.19531-0.46484 0.19531-0.98828 0-1.4531-0.1875-0.45313-0.54688-0.8125-1-1l-3.4609-1.3398c-0.14844-0.050782-0.26562-0.16406-0.32812-0.30859-0.066406-0.14062-0.066406-0.30078 0-0.44141 0.87891-1.7461 1.9531-3.3906 3.1992-4.8984 0.097656-0.12109 0.24219-0.19141 0.39844-0.19922 0.15234-0.003907 0.30078 0.054687 0.41016 0.16016l2.6016 2.6016v-0.003906c0.74609 0.75391 1.957 0.75781 2.707 0.011719 0.75391-0.74609 0.75781-1.9609 0.011719-2.7109l-2.5898-2.5898c-0.11328-0.10938-0.17188-0.26172-0.16016-0.41797 0.007812-0.15234 0.082031-0.29688 0.19922-0.39062 1.2188-1.0156 2.5273-1.9102 3.9102-2.6797 0.14062-0.066406 0.30078-0.066406 0.44141 0 0.14844 0.042969 0.26953 0.15234 0.32812 0.29688l1.4805 3.3594v0.003906c0.30859 0.70313 1.0078 1.1523 1.7773 1.1367 0.76953-0.019531 1.4492-0.5 1.7227-1.2188 0.19531-0.46484 0.19531-0.98438 0-1.4492l-1.4805-3.3594c-0.058594-0.14453-0.058594-0.30859 0-0.44922 0.0625-0.14453 0.18359-0.25391 0.33203-0.30078 1.8555-0.60938 3.7734-1.0078 5.7188-1.1914 0.15234-0.011719 0.30469 0.039063 0.42187 0.14062 0.11719 0.10156 0.18359 0.25391 0.17969 0.41016v3.6719-0.003907c0 1.0508 0.84766 1.9023 1.8984 1.9023 1.0508 0 1.8984-0.85156 1.8984-1.9023v-3.707c0.003906-0.15625 0.066406-0.30469 0.18359-0.41016 0.11328-0.10547 0.26562-0.15625 0.41797-0.14062 1.5781 0.14844 3.1367 0.44141 4.6602 0.87109 0.15234 0.042969 0.27734 0.14844 0.35156 0.28906 0.054688 0.14062 0.054688 0.29688 0 0.4375l-1.3398 3.4219c-0.36328 0.97266 0.125 2.0547 1.0898 2.4297 0.96484 0.37891 2.0547-0.089844 2.4492-1.0508l1.3281-3.4219v0.003907c0.0625-0.14453 0.17578-0.25391 0.32031-0.3125 0.14063-0.0625 0.30078-0.0625 0.44141 0 1.75 0.87891 3.3945 1.9531 4.8984 3.2031 0.12109 0.09375 0.19531 0.23438 0.19922 0.38672 0.011719 0.16016-0.046875 0.3125-0.15625 0.42188l-2.6016 2.5898c-0.35547 0.35938-0.55469 0.84375-0.55078 1.3516-0.003906 0.5 0.19531 0.98438 0.55078 1.3398 0.74609 0.73828 1.9453 0.73828 2.6914 0l2.5898-2.6016c0.10938-0.10938 0.26172-0.16406 0.41797-0.16016 0.15625 0.007812 0.30078 0.082031 0.40234 0.19922 1.0039 1.2266 1.8945 2.5391 2.668 3.9219 0.074218 0.13281 0.089844 0.29688 0.039062 0.44141-0.046875 0.14844-0.15625 0.26562-0.30078 0.32812l-3.3594 1.4688c-0.46484 0.19922-0.83594 0.57422-1.0234 1.0469-0.1875 0.47266-0.17969 1 0.023438 1.4648 0.19922 0.46094 0.57812 0.82422 1.0508 1 0.46484 0.1875 0.98438 0.1875 1.4492 0l3.3594-1.4805c0.14453-0.066406 0.30859-0.066406 0.45312 0 0.13672 0.0625 0.24609 0.17578 0.29688 0.32031 0.61328 1.8594 1.0117 3.7812 1.1914 5.7305 0.019531 0.15234-0.03125 0.30859-0.14062 0.41797-0.10156 0.11328-0.24609 0.17969-0.39844 0.17969h-3.6719c-1.0469 0-1.8984 0.85156-1.8984 1.9023 0 1.0469 0.85156 1.8984 1.8984 1.8984h3.6719c0.15625-0.003906 0.30859 0.0625 0.41016 0.17969 0.10938 0.11328 0.16016 0.26562 0.14062 0.42188-0.15234 1.5742-0.44141 3.1328-0.87109 4.6602-0.042968 0.14844-0.14844 0.27344-0.28906 0.33984-0.14062 0.0625-0.30078 0.0625-0.44141 0l-3.4219-1.3281 0.003907-0.003907c-0.46484-0.19531-0.98828-0.19531-1.4531 0-0.70312 0.30859-1.1523 1.0117-1.1367 1.7812 0.015625 0.76563 0.49219 1.4492 1.207 1.7305l3.4219 1.3281c0.14453 0.054688 0.26172 0.16797 0.31641 0.31641 0.054687 0.14453 0.046874 0.30859-0.027344 0.44531-0.87891 1.7461-1.9492 3.3867-3.1914 4.8984-0.10156 0.11719-0.24609 0.18359-0.39844 0.19141-0.15625 0.003906-0.30859-0.054688-0.42188-0.16016l-2.5781-2.5391c-0.74609-0.73828-1.9453-0.73828-2.6914 0-0.73047 0.74219-0.73047 1.9336 0 2.6797l2.6016 2.6016v-0.003906c0.10547 0.10938 0.16406 0.25781 0.16016 0.41016-0.007812 0.15625-0.082031 0.30078-0.19922 0.40234-1.2109 1.0039-2.5039 1.9023-3.8711 2.6797-0.14453 0.058594-0.30469 0.058594-0.44922 0-0.14844-0.050781-0.26562-0.16016-0.33203-0.30078l-1.5195-3.3203c-0.1875-0.48047-0.56641-0.86328-1.043-1.0586-0.47656-0.19922-1.0117-0.19141-1.4844 0.015625s-0.83984 0.59375-1.0195 1.0781c-0.17969 0.48438-0.15625 1.0195 0.066406 1.4844l1.4805 3.3711c0.0625 0.14063 0.0625 0.30078 0 0.44141s-0.18359 0.24609-0.32812 0.29688c-1.8594 0.61328-3.7812 1.0156-5.7305 1.2031-0.13672-0.003907-0.26953-0.050781-0.37109-0.14062-0.13672-0.082032-0.23438-0.21484-0.26953-0.37109v-3.7109c0-1.0469-0.85156-1.8984-1.8984-1.8984-1.0508 0-1.9023 0.85156-1.9023 1.8984v3.7109c0.003906 0.15625-0.0625 0.30469-0.17969 0.41016-0.11328 0.10156-0.26562 0.15234-0.41797 0.14062-1.5586-0.17188-3.0977-0.48047-4.6016-0.92188-0.14844-0.039062-0.27344-0.14062-0.33984-0.27734-0.066406-0.14453-0.066406-0.30859 0-0.45312l1.3398-3.418c0.19531-0.46484 0.19531-0.98828 0-1.4492-0.30859-0.70312-1.0117-1.1523-1.7812-1.1328-0.76953 0.015624-1.4492 0.49609-1.7305 1.2109zm-5.6484-25.25c0.003906 2.4492 1.4805 4.6562 3.7461 5.5938 2.2656 0.93359 4.8711 0.41406 6.6016-1.3203 1.7305-1.7344 2.2461-4.3398 1.3086-6.6055-0.9375-2.2617-3.1484-3.7383-5.5977-3.7383-3.3477 0.007813-6.0586 2.7227-6.0586 6.0703zm15.379 20.898v0.003907c5.4961 0 10.578-2.9336 13.328-7.6953 2.75-4.7617 2.75-10.629 0-15.391s-7.832-7.6953-13.328-7.6953c-1.168-0.003907-2.332 0.13281-3.4688 0.39844-0.14453 0.03125-0.26953 0.11328-0.34766 0.23828-0.078125 0.12109-0.10156 0.27344-0.0625 0.41406 0.03125 0.14062 0.11719 0.26953 0.24219 0.34766 0.12109 0.078125 0.27344 0.10547 0.41797 0.070313 1.0547-0.24609 2.1328-0.37109 3.2188-0.37109 5.375 0 10.293 3.0156 12.734 7.8047 2.4414 4.7891 1.9883 10.539-1.1719 14.887-3.1602 4.3477-8.4922 6.5547-13.801 5.7148-5.3086-0.84375-9.6953-4.5938-11.352-9.7031-0.097656-0.28906-0.40234-0.44531-0.69141-0.35156-0.13672 0.042968-0.25391 0.14062-0.32422 0.26953-0.066406 0.12891-0.078125 0.28125-0.035156 0.42188 1 3.0938 2.957 5.793 5.5859 7.7031 2.6328 1.9141 5.8008 2.9414 9.0547 2.9375z"/>

    </g><g data-name="business_name" fill="#FFFFFF" data="id:373" transform="translate(59.687709099528995,207.0740921453235) scale(0.7994646442114656)"><path d="M0.390625,26.93359375l0.37109375-7.890625l7.48046875,0l0,0.25390625l-0.44921875,0.0390625q-3.2421875,0.1171875-4.755859375,1.77734375t-2.470703125,5.8984375z M14.31640625,42.16796875q0,3.046875,0.498046875,4.19921875t1.630859375,1.4453125l0,0.15625l-7.63671875,0l0-0.15625q1.07421875-0.2734375,1.591796875-1.455078125t0.517578125-4.189453125l0-23.125l3.3984375,0l0,23.125z M24.47265625,19.04296875l0.37109375,7.890625l-0.1171875,0.078125q-0.95703125-4.19921875-2.51953125-5.87890625t-4.765625-1.796875l-0.41015625-0.0390625l0-0.25390625l7.44140625,0z M27.67578125,37.40234375q0-4.31640625,2.34375-7.275390625t5.9375-3.388671875l0,0.15625q-2.20703125,0.56640625-3.642578125,2.978515625t-1.435546875,5.849609375q0,4.609375,2.40234375,7.28515625t6.11328125,2.67578125q3.515625,0,5.68359375-2.44140625l0.1171875,0.078125q-0.87890625,2.24609375-2.900390625,3.564453125t-4.775390625,1.318359375q-4.31640625,0-7.080078125-3.056640625t-2.763671875-7.744140625z M33.4765625,35.72265625l-0.0390625-0.1953125l8.59375-0.234375q0.15625-0.64453125,0.15625-1.875q0-5.68359375-3.6328125-6.5234375l0-0.15625q3.0859375,0.3515625,4.78515625,2.490234375t1.69921875,5.029296875q0,0.91796875-0.15625,1.46484375l-11.40625,0z M55.625,43.45703125q0,2.32421875,0.458984375,3.193359375t1.611328125,1.201171875l0,0.1171875l-7.2265625,0l0-0.1171875q1.19140625-0.3515625,1.611328125-1.201171875t0.419921875-3.193359375l0-10.33203125q0-2.51953125-0.439453125-3.53515625t-1.513671875-1.42578125l0.0390625-0.078125q3.0859375-0.234375,5.3125-1.484375l0.078125,0.078125q-0.3515625,1.71875-0.3515625,6.4453125l0,10.33203125z M69.140625,43.45703125q0,2.36328125,0.419921875,3.193359375t1.630859375,1.201171875l0,0.1171875l-7.24609375,0l0-0.1171875q1.19140625-0.3125,1.650390625-1.220703125t0.458984375-3.173828125l0-8.88671875q0-3.0078125-1.171875-4.560546875t-3.33984375-1.552734375q-2.24609375,0-3.515625,1.42578125l-0.078125-0.0390625q0.52734375-1.2890625,1.982421875-2.265625t3.369140625-0.9765625q2.71484375,0,4.27734375,1.884765625t1.5625,4.970703125l0,10z M82.6953125,43.45703125q0,2.36328125,0.419921875,3.193359375t1.630859375,1.201171875l0,0.1171875l-7.24609375,0l0-0.1171875q1.15234375-0.3125,1.62109375-1.201171875t0.46875-3.193359375l0-8.88671875q0-3.0078125-1.181640625-4.560546875t-3.349609375-1.552734375q-2.32421875,0-3.671875,1.42578125l-0.0390625-0.0390625q0.52734375-1.2890625,2.001953125-2.265625t3.466796875-0.9765625q2.71484375,0,4.296875,1.884765625t1.58203125,4.970703125l0,10z M95.078125,40.44921875q0,6.640625,4.19921875,7.48046875l0,0.1953125q-2.44140625-0.3515625-4.19921875-1.8359375l0,6.484375q0,2.28515625,0.48828125,3.18359375t1.6796875,1.2109375l0,0.1171875l-7.32421875,0l0-0.1171875q1.19140625-0.3515625,1.62109375-1.19140625t0.4296875-3.203125l0-19.6484375q0-2.51953125-0.439453125-3.53515625t-1.533203125-1.42578125l0.0390625-0.078125q3.046875-0.234375,5.33203125-1.484375l0.078125,0.078125q-0.3515625,1.71875-0.37109375,6.4453125l0,7.32421875z M102.59765625,26.6015625q3.4765625,0,5.625,2.783203125t2.1484375,7.138671875q0,5.3515625-2.36328125,8.26171875t-6.11328125,3.33984375l0-0.1953125q2.36328125-0.44921875,3.740234375-3.046875t1.376953125-7.265625q0-4.51171875-1.66015625-6.8359375t-4.55078125-2.32421875q-2.0703125,0-3.3203125,1.42578125l-0.078125-0.0390625q0.60546875-1.328125,1.962890625-2.28515625t3.232421875-0.95703125z M120.625,43.45703125q0,2.36328125,0.439453125,3.212890625t1.611328125,1.181640625l0,0.1171875l-7.16796875,0l0-0.1171875q1.19140625-0.3515625,1.6015625-1.201171875t0.41015625-3.193359375l0-20.9765625q0-2.51953125-0.439453125-3.5546875t-1.533203125-1.40625l0.0390625-0.1171875q3.0859375-0.1953125,5.33203125-1.42578125l0.078125,0.0390625q-0.3515625,2.40234375-0.37109375,6.46484375l0,20.9765625z M127.265625,37.40234375q0-4.31640625,2.34375-7.275390625t5.9375-3.388671875l0,0.15625q-2.20703125,0.56640625-3.642578125,2.978515625t-1.435546875,5.849609375q0,4.609375,2.40234375,7.28515625t6.11328125,2.67578125q3.515625,0,5.68359375-2.44140625l0.1171875,0.078125q-0.87890625,2.24609375-2.900390625,3.564453125t-4.775390625,1.318359375q-4.31640625,0-7.080078125-3.056640625t-2.763671875-7.744140625z M133.06640625,35.72265625l-0.0390625-0.1953125l8.59375-0.234375q0.15625-0.64453125,0.15625-1.875q0-5.68359375-3.6328125-6.5234375l0-0.15625q3.0859375,0.3515625,4.78515625,2.490234375t1.69921875,5.029296875q0,0.91796875-0.15625,1.46484375l-11.40625,0z M161.4453125,44.375l0.1171875,0.0390625q-0.1953125,1.40625-1.513671875,2.59765625t-3.310546875,1.19140625q-2.71484375,0-4.19921875-1.66015625t-1.484375-4.94140625l0-14.27734375l-1.40625,0l0-0.234375q1.03515625-0.44921875,2.34375-1.6015625t1.89453125-2.12890625l0.15625,0.09765625l0,3.3984375l6.5234375,0l0,0.46875l-6.5234375,0l0,13.92578125q0,5.44921875,3.76953125,5.4296875q2.67578125,0.01953125,3.6328125-2.3046875z  M172.63671875,25.83984375q0-2.63671875,2.080078125-4.677734375t5.400390625-2.431640625l0,0.234375q-2.12890625,0.44921875-3.408203125,1.845703125t-1.279296875,3.447265625q0,1.6015625,0.83984375,2.8515625t2.177734375,2.119140625t2.958984375,1.640625t3.22265625,1.630859375t2.939453125,1.884765625t2.177734375,2.587890625t0.83984375,3.515625q0,2.83203125-2.197265625,5.09765625t-6.630859375,2.578125l0-0.234375q2.96875-0.3125,4.365234375-2.021484375t1.396484375-3.935546875q0-2.36328125-1.54296875-4.08203125t-3.720703125-2.802734375t-4.365234375-2.177734375t-3.720703125-2.861328125t-1.533203125-4.208984375z M182.75390625,18.96484375l0-0.234375q4.00390625,0.3515625,6.6796875,2.51953125l-0.83984375,6.640625l-0.15625,0.0390625q-0.76171875-8.0078125-5.68359375-8.96484375z M171.7578125,45.64453125l0.87890625-6.5625l0.1171875-0.0390625q0.99609375,7.9296875,6.34765625,8.88671875l0,0.234375q-2.32421875-0.1953125-4.296875-0.95703125t-3.046875-1.5625z M194.86328125,37.40234375q0-4.19921875,2.421875-7.236328125t6.3671875-3.486328125l0,0.21484375q-2.44140625,0.56640625-3.896484375,3.41796875t-1.455078125,7.08984375q0.0390625,4.47265625,1.46484375,7.236328125t3.88671875,3.330078125l0,0.1953125q-4.04296875-0.44921875-6.416015625-3.388671875t-2.373046875-7.373046875z M206.26953125,26.89453125l0-0.21484375q3.92578125,0.48828125,6.318359375,3.525390625t2.392578125,7.197265625q0,4.39453125-2.3828125,7.34375t-6.328125,3.41796875l0-0.1953125q2.44140625-0.56640625,3.857421875-3.33984375t1.416015625-7.2265625q0-4.19921875-1.435546875-7.03125t-3.837890625-3.4765625z M225.25390625,43.45703125q0,2.36328125,0.439453125,3.212890625t1.611328125,1.181640625l0,0.1171875l-7.16796875,0l0-0.1171875q1.19140625-0.3515625,1.6015625-1.201171875t0.41015625-3.193359375l0-20.9765625q0-2.51953125-0.439453125-3.5546875t-1.533203125-1.40625l0.0390625-0.1171875q3.0859375-0.1953125,5.33203125-1.42578125l0.078125,0.0390625q-0.3515625,2.40234375-0.37109375,6.46484375l0,20.9765625z M241.85546875,46.3671875q2.24609375,0,3.515625-1.4453125l0.0390625,0.078125q-0.56640625,1.23046875-1.982421875,2.216796875t-3.330078125,0.986328125q-2.9296875,0-4.62890625-1.85546875t-1.69921875-4.94140625l0-8.28125q0-2.51953125-0.439453125-3.53515625t-1.552734375-1.42578125l0.078125-0.078125q3.046875-0.234375,5.3125-1.484375l0.0390625,0.078125q-0.3515625,2.28515625-0.3515625,6.4453125l0,7.12890625q0,3.0078125,1.298828125,4.560546875t3.701171875,1.552734375z M250.8984375,42.08984375q0,2.55859375,0.419921875,3.49609375t1.494140625,1.30859375l0,0.1171875q-2.32421875,0.0390625-4.9609375,1.23046875l-0.078125-0.078125l0-15.0390625q0-2.51953125-0.439453125-3.53515625t-1.513671875-1.42578125l0.0390625-0.078125q3.046875-0.234375,5.3125-1.484375l0.078125,0.078125q-0.3515625,1.71875-0.3515625,6.4453125l0,8.96484375z M269.43359375,44.375l0.1171875,0.0390625q-0.1953125,1.40625-1.513671875,2.59765625t-3.310546875,1.19140625q-2.71484375,0-4.19921875-1.66015625t-1.484375-4.94140625l0-14.27734375l-1.40625,0l0-0.234375q1.03515625-0.44921875,2.34375-1.6015625t1.89453125-2.12890625l0.15625,0.09765625l0,3.3984375l6.5234375,0l0,0.46875l-6.5234375,0l0,13.92578125q0,5.44921875,3.76953125,5.4296875q2.67578125,0.01953125,3.6328125-2.3046875z M275.87890625,23.359375q-1.03515625,0-1.71875-0.556640625t-0.68359375-1.435546875q0-0.91796875,0.654296875-1.474609375t1.748046875-0.556640625q1.03515625,0,1.69921875,0.556640625t0.6640625,1.474609375q0,0.87890625-0.6640625,1.435546875t-1.69921875,0.556640625z M277.59765625,43.45703125q0,2.36328125,0.419921875,3.212890625t1.572265625,1.181640625l0,0.1171875l-7.1484375,0l0-0.1171875q1.19140625-0.3515625,1.611328125-1.201171875t0.419921875-3.193359375l0-10.33203125q0-2.51953125-0.439453125-3.53515625t-1.513671875-1.42578125l0.0390625-0.078125q3.046875-0.234375,5.3125-1.484375l0.078125,0.078125q-0.3515625,1.71875-0.3515625,6.4453125l0,10.33203125z M284.62890625,37.40234375q0-4.19921875,2.421875-7.236328125t6.3671875-3.486328125l0,0.21484375q-2.44140625,0.56640625-3.896484375,3.41796875t-1.455078125,7.08984375q0.0390625,4.47265625,1.46484375,7.236328125t3.88671875,3.330078125l0,0.1953125q-4.04296875-0.44921875-6.416015625-3.388671875t-2.373046875-7.373046875z M296.03515625,26.89453125l0-0.21484375q3.92578125,0.48828125,6.318359375,3.525390625t2.392578125,7.197265625q0,4.39453125-2.3828125,7.34375t-6.328125,3.41796875l0-0.1953125q2.44140625-0.56640625,3.857421875-3.33984375t1.416015625-7.2265625q0-4.19921875-1.435546875-7.03125t-3.837890625-3.4765625z M315.390625,43.45703125q0,2.32421875,0.458984375,3.193359375t1.611328125,1.201171875l0,0.1171875l-7.2265625,0l0-0.1171875q1.19140625-0.3515625,1.611328125-1.201171875t0.419921875-3.193359375l0-10.33203125q0-2.51953125-0.439453125-3.53515625t-1.513671875-1.42578125l0.0390625-0.078125q3.0859375-0.234375,5.3125-1.484375l0.078125,0.078125q-0.3515625,1.71875-0.3515625,6.4453125l0,10.33203125z M329.39453125,43.45703125q0,2.36328125,0.419921875,3.193359375t1.611328125,1.201171875l0,0.1171875l-7.24609375,0l0-0.1171875q1.19140625-0.3125,1.66015625-1.220703125t0.46875-3.173828125l0-8.88671875q0-3.0078125-1.298828125-4.560546875t-3.701171875-1.552734375q-2.24609375,0-3.515625,1.42578125l-0.078125-0.0390625q0.52734375-1.2890625,1.982421875-2.265625t3.369140625-0.9765625q2.9296875,0,4.62890625,1.884765625t1.69921875,4.970703125l0,10z M337.0703125,32.40234375q0-2.16796875,1.455078125-3.740234375t3.935546875-1.923828125l0,0.15625q-1.328125,0.390625-2.099609375,1.455078125t-0.771484375,2.412109375q0,1.5625,1.1328125,2.744140625t2.75390625,1.982421875t3.2421875,1.640625t2.763671875,2.177734375t1.142578125,3.134765625q0,2.24609375-1.54296875,3.76953125t-4.21875,1.9140625l0-0.1953125q3.046875-0.68359375,3.046875-4.00390625q0-1.5234375-1.123046875-2.67578125t-2.724609375-1.953125t-3.18359375-1.640625t-2.6953125-2.16796875t-1.11328125-3.0859375z M345.05859375,26.89453125l0-0.15625q3.125,0.390625,4.8828125,1.953125l-0.99609375,4.84375l-0.078125,0q-0.83984375-5.72265625-3.80859375-6.640625z M336.42578125,46.25l0.83984375-4.921875l0.078125,0q0.48828125,2.9296875,1.865234375,4.58984375t3.056640625,2.01171875l0,0.1953125q-3.5546875-0.3515625-5.83984375-1.875z"/></g><g data-name="slogan" fill="#FFFFFF" data="id:373" transform="translate(104.68016573531376,256.8266091101164) scale(0.3756079282461557)"><path d="M2.71484375,19.19921875l0-0.15625l5.33203125,0l0,28.92578125l-5.33203125,0l0-0.15625q0.99609375-0.2734375,1.46484375-1.455078125t0.46875-4.189453125l0-17.32421875q0-3.0078125-0.46875-4.189453125t-1.46484375-1.455078125z M21.328125,27.01171875q-0.99609375-4.16015625-2.685546875-5.76171875t-5.283203125-1.796875l-2.67578125-0.15625l0-0.25390625l10.390625,0l0.37109375,7.890625z M12.67578125,32.65625q3.0078125-0.1171875,4.169921875-0.9375t1.630859375-2.71484375l0.1171875,0l0,8.203125l-0.1171875,0q-0.48828125-2.20703125-1.66015625-3.203125t-4.140625-1.03515625l-1.953125-0.0390625l0-0.234375z M22.75390625,39.8046875l0.1171875,0.078125l-0.87890625,8.0859375l-11.30859375,0l0-0.234375l2.75390625-0.15625q3.76953125-0.1953125,5.927734375-1.884765625t3.388671875-5.888671875z M33.4765625,43.45703125q0,2.32421875,0.458984375,3.193359375t1.611328125,1.201171875l0,0.1171875l-7.2265625,0l0-0.1171875q1.19140625-0.3515625,1.611328125-1.201171875t0.419921875-3.193359375l0-10.33203125q0-2.51953125-0.439453125-3.53515625t-1.513671875-1.42578125l0.0390625-0.078125q3.0859375-0.234375,5.3125-1.484375l0.078125,0.078125q-0.3515625,1.71875-0.3515625,6.4453125l0,10.33203125z M47.48046875,43.45703125q0,2.36328125,0.419921875,3.193359375t1.611328125,1.201171875l0,0.1171875l-7.24609375,0l0-0.1171875q1.19140625-0.3125,1.66015625-1.220703125t0.46875-3.173828125l0-8.88671875q0-3.0078125-1.298828125-4.560546875t-3.701171875-1.552734375q-2.24609375,0-3.515625,1.42578125l-0.078125-0.0390625q0.52734375-1.2890625,1.982421875-2.265625t3.369140625-0.9765625q2.9296875,0,4.62890625,1.884765625t1.69921875,4.970703125l0,10z M70.46875,22.7734375l0.0390625-0.078125l2.63671875-0.87890625q0.76171875,0.95703125,0.76171875,2.1875q0,1.19140625-0.91796875,2.001953125t-2.40234375,1.044921875l-0.1171875-0.078125q0.68359375-0.80078125,0.68359375-2.041015625t-0.68359375-2.158203125z M55.3515625,34.609375q0-3.203125,2.021484375-5.341796875t5.341796875-2.529296875l0,0.15625q-1.9140625,0.48828125-2.958984375,2.44140625t-1.005859375,5.2734375q0.0390625,6.19140625,3.96484375,7.24609375l0,0.15625q-3.3203125-0.3125-5.341796875-2.353515625t-2.021484375-5.048828125z M65.3125,42.01171875l0-0.15625q3.80859375-1.03515625,3.92578125-7.36328125q0.0390625-3.28125-1.005859375-5.205078125t-2.919921875-2.392578125l0-0.15625q3.28125,0.3515625,5.302734375,2.490234375t2.021484375,5.263671875q0,3.046875-2.021484375,5.107421875t-5.302734375,2.412109375z M55.3125,44.765625q1.6015625-0.76171875,2.94921875-1.953125l0.13671875,0.1171875q-0.76171875,0.99609375-0.76171875,1.71875q0,1.328125,1.9921875,1.328125l8.203125,0q3.2421875,0,4.90234375,1.455078125t1.66015625,3.740234375q0,2.55859375-2.3046875,4.4140625t-6.69921875,2.0703125l0-0.21484375q3.3203125-0.1953125,5.1953125-1.591796875t1.875-3.369140625q0-3.80859375-5.5859375-3.7890625l-7.32421875,0q-4.23828125,0-4.23828125-3.92578125z M54.140625,52.8125q0-1.11328125,0.888671875-1.8359375t2.197265625-0.80078125l0.0390625,0.078125q-0.64453125,0.95703125-0.64453125,2.32421875q0,2.0703125,1.5625,3.349609375t4.609375,1.513671875l0,0.21484375q-4.47265625-0.1953125-6.5625-1.640625t-2.08984375-3.203125z M81.30859375,23.359375q-1.03515625,0-1.71875-0.556640625t-0.68359375-1.435546875q0-0.91796875,0.654296875-1.474609375t1.748046875-0.556640625q1.03515625,0,1.69921875,0.556640625t0.6640625,1.474609375q0,0.87890625-0.6640625,1.435546875t-1.69921875,0.556640625z M83.02734375,43.45703125q0,2.36328125,0.419921875,3.212890625t1.572265625,1.181640625l0,0.1171875l-7.1484375,0l0-0.1171875q1.19140625-0.3515625,1.611328125-1.201171875t0.419921875-3.193359375l0-10.33203125q0-2.51953125-0.439453125-3.53515625t-1.513671875-1.42578125l0.0390625-0.078125q3.046875-0.234375,5.3125-1.484375l0.078125,0.078125q-0.3515625,1.71875-0.3515625,6.4453125l0,10.33203125z M95.8203125,43.45703125q0,2.32421875,0.458984375,3.193359375t1.611328125,1.201171875l0,0.1171875l-7.2265625,0l0-0.1171875q1.19140625-0.3515625,1.611328125-1.201171875t0.419921875-3.193359375l0-10.33203125q0-2.51953125-0.439453125-3.53515625t-1.513671875-1.42578125l0.0390625-0.078125q3.0859375-0.234375,5.3125-1.484375l0.078125,0.078125q-0.3515625,1.71875-0.3515625,6.4453125l0,10.33203125z M109.82421875,43.45703125q0,2.36328125,0.419921875,3.193359375t1.611328125,1.201171875l0,0.1171875l-7.24609375,0l0-0.1171875q1.19140625-0.3125,1.66015625-1.220703125t0.46875-3.173828125l0-8.88671875q0-3.0078125-1.298828125-4.560546875t-3.701171875-1.552734375q-2.24609375,0-3.515625,1.42578125l-0.078125-0.0390625q0.52734375-1.2890625,1.982421875-2.265625t3.369140625-0.9765625q2.9296875,0,4.62890625,1.884765625t1.69921875,4.970703125l0,10z M116.85546875,37.40234375q0-4.31640625,2.34375-7.275390625t5.9375-3.388671875l0,0.15625q-2.20703125,0.56640625-3.642578125,2.978515625t-1.435546875,5.849609375q0,4.609375,2.40234375,7.28515625t6.11328125,2.67578125q3.515625,0,5.68359375-2.44140625l0.1171875,0.078125q-0.87890625,2.24609375-2.900390625,3.564453125t-4.775390625,1.318359375q-4.31640625,0-7.080078125-3.056640625t-2.763671875-7.744140625z M122.65625,35.72265625l-0.0390625-0.1953125l8.59375-0.234375q0.15625-0.64453125,0.15625-1.875q0-5.68359375-3.6328125-6.5234375l0-0.15625q3.0859375,0.3515625,4.78515625,2.490234375t1.69921875,5.029296875q0,0.91796875-0.15625,1.46484375l-11.40625,0z M139.04296875,37.40234375q0-4.31640625,2.34375-7.275390625t5.9375-3.388671875l0,0.15625q-2.20703125,0.56640625-3.642578125,2.978515625t-1.435546875,5.849609375q0,4.609375,2.40234375,7.28515625t6.11328125,2.67578125q3.515625,0,5.68359375-2.44140625l0.1171875,0.078125q-0.87890625,2.24609375-2.900390625,3.564453125t-4.775390625,1.318359375q-4.31640625,0-7.080078125-3.056640625t-2.763671875-7.744140625z M144.84375,35.72265625l-0.0390625-0.1953125l8.59375-0.234375q0.15625-0.64453125,0.15625-1.875q0-5.68359375-3.6328125-6.5234375l0-0.15625q3.0859375,0.3515625,4.78515625,2.490234375t1.69921875,5.029296875q0,0.91796875-0.15625,1.46484375l-11.40625,0z M166.9921875,43.45703125q0,2.32421875,0.517578125,3.193359375t1.923828125,1.201171875l0,0.1171875l-7.59765625,0l0-0.1171875q1.19140625-0.3515625,1.611328125-1.201171875t0.419921875-3.193359375l0-10.33203125q0-2.51953125-0.439453125-3.53515625t-1.513671875-1.42578125l0.0390625-0.078125q3.046875-0.234375,5.3125-1.484375l0.078125,0.078125q-0.3515625,1.71875-0.3515625,6.4453125l0,10.33203125z M173.671875,26.6015625q1.19140625,0,2.03125,0.60546875l-0.625,2.59765625l-0.13671875,0q-0.76171875-0.68359375-2.34375-0.68359375q-2.12890625,0-3.28125,1.97265625l-0.078125-0.0390625q0.3515625-1.9921875,1.552734375-3.22265625t2.880859375-1.23046875z M181.9921875,23.359375q-1.03515625,0-1.71875-0.556640625t-0.68359375-1.435546875q0-0.91796875,0.654296875-1.474609375t1.748046875-0.556640625q1.03515625,0,1.69921875,0.556640625t0.6640625,1.474609375q0,0.87890625-0.6640625,1.435546875t-1.69921875,0.556640625z M183.7109375,43.45703125q0,2.36328125,0.419921875,3.212890625t1.572265625,1.181640625l0,0.1171875l-7.1484375,0l0-0.1171875q1.19140625-0.3515625,1.611328125-1.201171875t0.419921875-3.193359375l0-10.33203125q0-2.51953125-0.439453125-3.53515625t-1.513671875-1.42578125l0.0390625-0.078125q3.046875-0.234375,5.3125-1.484375l0.078125,0.078125q-0.3515625,1.71875-0.3515625,6.4453125l0,10.33203125z M196.50390625,43.45703125q0,2.32421875,0.458984375,3.193359375t1.611328125,1.201171875l0,0.1171875l-7.2265625,0l0-0.1171875q1.19140625-0.3515625,1.611328125-1.201171875t0.419921875-3.193359375l0-10.33203125q0-2.51953125-0.439453125-3.53515625t-1.513671875-1.42578125l0.0390625-0.078125q3.0859375-0.234375,5.3125-1.484375l0.078125,0.078125q-0.3515625,1.71875-0.3515625,6.4453125l0,10.33203125z M210.5078125,43.45703125q0,2.36328125,0.419921875,3.193359375t1.611328125,1.201171875l0,0.1171875l-7.24609375,0l0-0.1171875q1.19140625-0.3125,1.66015625-1.220703125t0.46875-3.173828125l0-8.88671875q0-3.0078125-1.298828125-4.560546875t-3.701171875-1.552734375q-2.24609375,0-3.515625,1.42578125l-0.078125-0.0390625q0.52734375-1.2890625,1.982421875-2.265625t3.369140625-0.9765625q2.9296875,0,4.62890625,1.884765625t1.69921875,4.970703125l0,10z M233.49609375,22.7734375l0.0390625-0.078125l2.63671875-0.87890625q0.76171875,0.95703125,0.76171875,2.1875q0,1.19140625-0.91796875,2.001953125t-2.40234375,1.044921875l-0.1171875-0.078125q0.68359375-0.80078125,0.68359375-2.041015625t-0.68359375-2.158203125z M218.37890625,34.609375q0-3.203125,2.021484375-5.341796875t5.341796875-2.529296875l0,0.15625q-1.9140625,0.48828125-2.958984375,2.44140625t-1.005859375,5.2734375q0.0390625,6.19140625,3.96484375,7.24609375l0,0.15625q-3.3203125-0.3125-5.341796875-2.353515625t-2.021484375-5.048828125z M228.33984375,42.01171875l0-0.15625q3.80859375-1.03515625,3.92578125-7.36328125q0.0390625-3.28125-1.005859375-5.205078125t-2.919921875-2.392578125l0-0.15625q3.28125,0.3515625,5.302734375,2.490234375t2.021484375,5.263671875q0,3.046875-2.021484375,5.107421875t-5.302734375,2.412109375z M218.33984375,44.765625q1.6015625-0.76171875,2.94921875-1.953125l0.13671875,0.1171875q-0.76171875,0.99609375-0.76171875,1.71875q0,1.328125,1.9921875,1.328125l8.203125,0q3.2421875,0,4.90234375,1.455078125t1.66015625,3.740234375q0,2.55859375-2.3046875,4.4140625t-6.69921875,2.0703125l0-0.21484375q3.3203125-0.1953125,5.1953125-1.591796875t1.875-3.369140625q0-3.80859375-5.5859375-3.7890625l-7.32421875,0q-4.23828125,0-4.23828125-3.92578125z M217.16796875,52.8125q0-1.11328125,0.888671875-1.8359375t2.197265625-0.80078125l0.0390625,0.078125q-0.64453125,0.95703125-0.64453125,2.32421875q0,2.0703125,1.5625,3.349609375t4.609375,1.513671875l0,0.21484375q-4.47265625-0.1953125-6.5625-1.640625t-2.08984375-3.203125z  M248.203125,33.45703125q0-6.23046875,3.720703125-10.283203125t9.599609375-4.482421875l0,0.234375q-4.39453125,0.56640625-7.041015625,4.365234375t-2.646484375,10.166015625q0,6.2890625,2.63671875,10.09765625t7.05078125,4.375l0,0.234375q-5.83984375-0.44921875-9.580078125-4.501953125t-3.740234375-10.205078125z M264.31640625,18.92578125l0-0.234375q4.51171875,0.234375,7.0703125,1.8359375l0.25390625,6.953125l-0.15625,0.0390625q-0.99609375-4.23828125-2.646484375-6.259765625t-4.521484375-2.333984375z M264.31640625,48.1640625l0-0.234375q3.2421875-0.390625,5.15625-2.51953125t2.890625-6.2109375l0.15625,0.05859375l-0.83984375,7.1875q-2.75390625,1.5234375-7.36328125,1.71875z M277.03125,37.40234375q0-4.19921875,2.421875-7.236328125t6.3671875-3.486328125l0,0.21484375q-2.44140625,0.56640625-3.896484375,3.41796875t-1.455078125,7.08984375q0.0390625,4.47265625,1.46484375,7.236328125t3.88671875,3.330078125l0,0.1953125q-4.04296875-0.44921875-6.416015625-3.388671875t-2.373046875-7.373046875z M288.4375,26.89453125l0-0.21484375q3.92578125,0.48828125,6.318359375,3.525390625t2.392578125,7.197265625q0,4.39453125-2.3828125,7.34375t-6.328125,3.41796875l0-0.1953125q2.44140625-0.56640625,3.857421875-3.33984375t1.416015625-7.2265625q0-4.19921875-1.435546875-7.03125t-3.837890625-3.4765625z M307.79296875,43.45703125q0,2.32421875,0.458984375,3.193359375t1.611328125,1.201171875l0,0.1171875l-7.2265625,0l0-0.1171875q1.19140625-0.3515625,1.611328125-1.201171875t0.419921875-3.193359375l0-10.33203125q0-2.51953125-0.439453125-3.53515625t-1.513671875-1.42578125l0.0390625-0.078125q3.0859375-0.234375,5.3125-1.484375l0.078125,0.078125q-0.3515625,1.71875-0.3515625,6.4453125l0,10.33203125z M321.796875,43.45703125q0,2.36328125,0.419921875,3.193359375t1.611328125,1.201171875l0,0.1171875l-7.24609375,0l0-0.1171875q1.19140625-0.3125,1.66015625-1.220703125t0.46875-3.173828125l0-8.88671875q0-3.0078125-1.298828125-4.560546875t-3.701171875-1.552734375q-2.24609375,0-3.515625,1.42578125l-0.078125-0.0390625q0.52734375-1.2890625,1.982421875-2.265625t3.369140625-0.9765625q2.9296875,0,4.62890625,1.884765625t1.69921875,4.970703125l0,10z M340.8203125,44.375l0.1171875,0.0390625q-0.1953125,1.40625-1.513671875,2.59765625t-3.310546875,1.19140625q-2.71484375,0-4.19921875-1.66015625t-1.484375-4.94140625l0-14.27734375l-1.40625,0l0-0.234375q1.03515625-0.44921875,2.34375-1.6015625t1.89453125-2.12890625l0.15625,0.09765625l0,3.3984375l6.5234375,0l0,0.46875l-6.5234375,0l0,13.92578125q0,5.44921875,3.76953125,5.4296875q2.67578125,0.01953125,3.6328125-2.3046875z M343.22265625,37.40234375q0-4.31640625,2.34375-7.275390625t5.9375-3.388671875l0,0.15625q-2.20703125,0.56640625-3.642578125,2.978515625t-1.435546875,5.849609375q0,4.609375,2.40234375,7.28515625t6.11328125,2.67578125q3.515625,0,5.68359375-2.44140625l0.1171875,0.078125q-0.87890625,2.24609375-2.900390625,3.564453125t-4.775390625,1.318359375q-4.31640625,0-7.080078125-3.056640625t-2.763671875-7.744140625z M349.0234375,35.72265625l-0.0390625-0.1953125l8.59375-0.234375q0.15625-0.64453125,0.15625-1.875q0-5.68359375-3.6328125-6.5234375l0-0.15625q3.0859375,0.3515625,4.78515625,2.490234375t1.69921875,5.029296875q0,0.91796875-0.15625,1.46484375l-11.40625,0z M371.171875,43.45703125q0,2.32421875,0.458984375,3.193359375t1.611328125,1.201171875l0,0.1171875l-7.2265625,0l0-0.1171875q1.19140625-0.3515625,1.611328125-1.201171875t0.419921875-3.193359375l0-10.33203125q0-2.51953125-0.439453125-3.53515625t-1.513671875-1.42578125l0.0390625-0.078125q3.0859375-0.234375,5.3125-1.484375l0.078125,0.078125q-0.3515625,1.71875-0.3515625,6.4453125l0,10.33203125z M385.17578125,43.45703125q0,2.36328125,0.419921875,3.193359375t1.611328125,1.201171875l0,0.1171875l-7.24609375,0l0-0.1171875q1.19140625-0.3125,1.66015625-1.220703125t0.46875-3.173828125l0-8.88671875q0-3.0078125-1.298828125-4.560546875t-3.701171875-1.552734375q-2.24609375,0-3.515625,1.42578125l-0.078125-0.0390625q0.52734375-1.2890625,1.982421875-2.265625t3.369140625-0.9765625q2.9296875,0,4.62890625,1.884765625t1.69921875,4.970703125l0,10z M404.19921875,44.375l0.1171875,0.0390625q-0.1953125,1.40625-1.513671875,2.59765625t-3.310546875,1.19140625q-2.71484375,0-4.19921875-1.66015625t-1.484375-4.94140625l0-14.27734375l-1.40625,0l0-0.234375q1.03515625-0.44921875,2.34375-1.6015625t1.89453125-2.12890625l0.15625,0.09765625l0,3.3984375l6.5234375,0l0,0.46875l-6.5234375,0l0,13.92578125q0,5.44921875,3.76953125,5.4296875q2.67578125,0.01953125,3.6328125-2.3046875z  M420.17578125,23.28125l0,3.57421875l5.76171875,0l0,0.46875l-5.76171875,0l0,16.1328125q0,2.32421875,0.5859375,3.193359375t2.1484375,1.201171875l0,0.1171875l-7.8515625,0l0-0.1171875q1.19140625-0.3515625,1.6015625-1.201171875t0.41015625-3.193359375l0-16.1328125l-1.3671875,0l0-0.46875l1.3671875,0l0-3.57421875q0-6.40625,5.546875-7.1875l0,0.1953125q-2.44140625,1.19140625-2.44140625,6.9921875z M424.86328125,16.09375q2.67578125,0.390625,4.16015625,1.6796875l-0.99609375,4.9609375l-0.1171875-0.0390625q-0.68359375-5.52734375-3.046875-6.40625l0-0.1953125z M428.84765625,37.40234375q0-4.19921875,2.421875-7.236328125t6.3671875-3.486328125l0,0.21484375q-2.44140625,0.56640625-3.896484375,3.41796875t-1.455078125,7.08984375q0.0390625,4.47265625,1.46484375,7.236328125t3.88671875,3.330078125l0,0.1953125q-4.04296875-0.44921875-6.416015625-3.388671875t-2.373046875-7.373046875z M440.25390625,26.89453125l0-0.21484375q3.92578125,0.48828125,6.318359375,3.525390625t2.392578125,7.197265625q0,4.39453125-2.3828125,7.34375t-6.328125,3.41796875l0-0.1953125q2.44140625-0.56640625,3.857421875-3.33984375t1.416015625-7.2265625q0-4.19921875-1.435546875-7.03125t-3.837890625-3.4765625z M459.609375,43.45703125q0,2.32421875,0.517578125,3.193359375t1.923828125,1.201171875l0,0.1171875l-7.59765625,0l0-0.1171875q1.19140625-0.3515625,1.611328125-1.201171875t0.419921875-3.193359375l0-10.33203125q0-2.51953125-0.439453125-3.53515625t-1.513671875-1.42578125l0.0390625-0.078125q3.046875-0.234375,5.3125-1.484375l0.078125,0.078125q-0.3515625,1.71875-0.3515625,6.4453125l0,10.33203125z M466.2890625,26.6015625q1.19140625,0,2.03125,0.60546875l-0.625,2.59765625l-0.13671875,0q-0.76171875-0.68359375-2.34375-0.68359375q-2.12890625,0-3.28125,1.97265625l-0.078125-0.0390625q0.3515625-1.9921875,1.552734375-3.22265625t2.880859375-1.23046875z  M499.98046875,41.4453125q1.40625,3.7109375,2.20703125,4.892578125t1.9140625,1.474609375l0,0.15625l-8.5546875,0l0-0.15625q1.484375-0.390625,1.806640625-1.494140625t-0.556640625-3.798828125l-1.71875-4.58984375l-9.2578125-0.15625l0.09765625-0.1953125l8.984375-0.21484375l-5.87890625-15.87890625l0.95703125-2.44140625l1.5625,0z M481.42578125,42.24609375q-0.95703125,2.79296875-0.439453125,3.994140625t2.607421875,1.572265625l0,0.15625l-7.16796875,0l0-0.15625q1.2890625-0.3515625,2.20703125-1.455078125t1.953125-3.740234375l7.24609375-18.1640625l0.078125,0.2734375z M514.296875,19.19921875q-1.03515625,0.2734375-1.474609375,1.4453125t-0.439453125,4.19921875l0,17.32421875q0,3.046875,0.439453125,4.19921875t1.474609375,1.4453125l0,0.15625l-7.24609375,0l0-0.15625q0.99609375-0.2734375,1.46484375-1.455078125t0.46875-4.189453125l0-17.32421875q0-3.0078125-0.46875-4.1796875t-1.46484375-1.46484375l0-0.15625l7.24609375,0l0,0.15625z  M526.015625,26.93359375l0.37109375-7.890625l7.48046875,0l0,0.25390625l-0.44921875,0.0390625q-3.2421875,0.1171875-4.755859375,1.77734375t-2.470703125,5.8984375z M539.94140625,42.16796875q0,3.046875,0.498046875,4.19921875t1.630859375,1.4453125l0,0.15625l-7.63671875,0l0-0.15625q1.07421875-0.2734375,1.591796875-1.455078125t0.517578125-4.189453125l0-23.125l3.3984375,0l0,23.125z M550.09765625,19.04296875l0.37109375,7.890625l-0.1171875,0.078125q-0.95703125-4.19921875-2.51953125-5.87890625t-4.765625-1.796875l-0.41015625-0.0390625l0-0.25390625l7.44140625,0z M559.0625,43.45703125q0,2.32421875,0.517578125,3.193359375t1.923828125,1.201171875l0,0.1171875l-7.59765625,0l0-0.1171875q1.19140625-0.3515625,1.611328125-1.201171875t0.419921875-3.193359375l0-10.33203125q0-2.51953125-0.439453125-3.53515625t-1.513671875-1.42578125l0.0390625-0.078125q3.046875-0.234375,5.3125-1.484375l0.078125,0.078125q-0.3515625,1.71875-0.3515625,6.4453125l0,10.33203125z M565.7421875,26.6015625q1.19140625,0,2.03125,0.60546875l-0.625,2.59765625l-0.13671875,0q-0.76171875-0.68359375-2.34375-0.68359375q-2.12890625,0-3.28125,1.97265625l-0.078125-0.0390625q0.3515625-1.9921875,1.552734375-3.22265625t2.880859375-1.23046875z M579.98046875,46.3671875q2.24609375,0,3.515625-1.4453125l0.0390625,0.078125q-0.56640625,1.23046875-1.982421875,2.216796875t-3.330078125,0.986328125q-2.9296875,0-4.62890625-1.85546875t-1.69921875-4.94140625l0-8.28125q0-2.51953125-0.439453125-3.53515625t-1.552734375-1.42578125l0.078125-0.078125q3.046875-0.234375,5.3125-1.484375l0.0390625,0.078125q-0.3515625,2.28515625-0.3515625,6.4453125l0,7.12890625q0,3.0078125,1.298828125,4.560546875t3.701171875,1.552734375z M589.0234375,42.08984375q0,2.55859375,0.419921875,3.49609375t1.494140625,1.30859375l0,0.1171875q-2.32421875,0.0390625-4.9609375,1.23046875l-0.078125-0.078125l0-15.0390625q0-2.51953125-0.439453125-3.53515625t-1.513671875-1.42578125l0.0390625-0.078125q3.046875-0.234375,5.3125-1.484375l0.078125,0.078125q-0.3515625,1.71875-0.3515625,6.4453125l0,8.96484375z M596.2109375,32.40234375q0-2.16796875,1.455078125-3.740234375t3.935546875-1.923828125l0,0.15625q-1.328125,0.390625-2.099609375,1.455078125t-0.771484375,2.412109375q0,1.5625,1.1328125,2.744140625t2.75390625,1.982421875t3.2421875,1.640625t2.763671875,2.177734375t1.142578125,3.134765625q0,2.24609375-1.54296875,3.76953125t-4.21875,1.9140625l0-0.1953125q3.046875-0.68359375,3.046875-4.00390625q0-1.5234375-1.123046875-2.67578125t-2.724609375-1.953125t-3.18359375-1.640625t-2.6953125-2.16796875t-1.11328125-3.0859375z M604.19921875,26.89453125l0-0.15625q3.125,0.390625,4.8828125,1.953125l-0.99609375,4.84375l-0.078125,0q-0.83984375-5.72265625-3.80859375-6.640625z M595.56640625,46.25l0.83984375-4.921875l0.078125,0q0.48828125,2.9296875,1.865234375,4.58984375t3.056640625,2.01171875l0,0.1953125q-3.5546875-0.3515625-5.83984375-1.875z M626.38671875,44.375l0.1171875,0.0390625q-0.1953125,1.40625-1.513671875,2.59765625t-3.310546875,1.19140625q-2.71484375,0-4.19921875-1.66015625t-1.484375-4.94140625l0-14.27734375l-1.40625,0l0-0.234375q1.03515625-0.44921875,2.34375-1.6015625t1.89453125-2.12890625l0.15625,0.09765625l0,3.3984375l6.5234375,0l0,0.46875l-6.5234375,0l0,13.92578125q0,5.44921875,3.76953125,5.4296875q2.67578125,0.01953125,3.6328125-2.3046875z"/></g></svg>